<?xml version="1.0" standalone="no"?>
<!DOCTYPE svg PUBLIC "-//W3C//DTD SVG 1.1//EN" "http://www.w3.org/Graphics/SVG/1.1/DTD/svg11.dtd" >
<svg>
<metadata>
Created by FontForge 20090622 at Thu Jun 18 04:58:13 2015
 By deploy user
Digitized data copyright The Monotype Corporation 1991-1995. All rights reserved. Monotype Corsiva&#226;&#132;&#162; is a trademark of The Monotype Corporation which may be registered in certain jurisdictions.
</metadata>
<defs>
<font id="MonotypeCorsiva" horiz-adv-x="1460" >
  <font-face 
    font-family="Monotype Corsiva"
    font-weight="400"
    font-style="italic"
    font-stretch="normal"
    units-per-em="2048"
    panose-1="3 1 1 1 1 2 1 1 1 1"
    ascent="1638"
    descent="-410"
    x-height="840"
    cap-height="1351"
    bbox="-491 -628 2373 1869"
    underline-thickness="102"
    underline-position="-195"
    slope="-14.1"
    unicode-range="U+0020-U+F108"
  />
<missing-glyph horiz-adv-x="1536" 
d="M256 0v1280h1024v-1280h-1024zM288 32h960v1216h-960v-1216z" />
    <glyph glyph-name=".notdef" horiz-adv-x="1536" 
d="M256 0v1280h1024v-1280h-1024zM288 32h960v1216h-960v-1216z" />
    <glyph glyph-name=".null" horiz-adv-x="0" 
 />
    <glyph glyph-name="nonmarkingreturn" horiz-adv-x="450" 
 />
    <glyph glyph-name="space" unicode=" " horiz-adv-x="450" 
 />
    <glyph glyph-name="exclam" unicode="!" horiz-adv-x="573" 
d="M433 330h-58q65 477 93 808q1 19 9 27q15 14 57 25q69 18 96 18q21 0 21 -21q0 -14 -8 -37q-13 -38 -88 -326zM379 216q39 0 65.5 -29.5t26.5 -74.5q0 -65 -31 -102t-78 -37q-39 0 -65.5 27.5t-26.5 70.5q0 63 37 110q27 35 72 35z" />
    <glyph glyph-name="quotedbl" unicode="&#x22;" horiz-adv-x="451" 
d="M565 683l78 384q16 80 38 105.5t52 25.5q20 0 31 -11t11 -31q0 -13 -20 -72l-136 -391q-12 -36 -32 -36q-27 0 -22 26zM306 683l77 384q17 80 38.5 105.5t52.5 25.5q20 0 31 -11t11 -31q0 -13 -20 -72l-136 -391q-12 -36 -32 -36q-27 0 -22 26z" />
    <glyph glyph-name="numbersign" unicode="#" horiz-adv-x="1393" 
d="M476 27l113 350h-244l36 110h244l78 244h-245l37 110h244l107 336h116l-107 -336h228l107 336h116l-108 -336h245l-36 -110h-244l-78 -244h244l-36 -110h-244l-113 -350h-116l113 350h-228l-113 -350h-116zM741 487h228l78 244h-228z" />
    <glyph glyph-name="dollar" unicode="$" horiz-adv-x="901" 
d="M768 1332h64l-34 -141h22q78 0 128.5 -36t50.5 -77q0 -25 -19 -44t-44 -19q-19 0 -33 7q-9 4 -47 38q-33 30 -79 41l-109 -425q97 -86 135 -155t38 -138q0 -136 -96.5 -250t-250.5 -147l-66 -255h-64l64 244q-25 -2 -48 -2q-119 0 -162.5 27.5t-43.5 70.5q0 27 19 47
t43 20q21 0 80 -32q44 -24 58 -28q28 -8 74 -12l122 482q-92 83 -123 141.5t-31 131.5q0 126 89 229t226 131zM713 1107q-91 -19 -139 -77.5t-48 -132.5q0 -76 89 -171zM514 70q104 20 163.5 85.5t59.5 147.5q0 47 -18 82.5t-94 116.5z" />
    <glyph glyph-name="percent" unicode="%" horiz-adv-x="1393" 
d="M489 -7l146 252l366 667l151 286q24 -7 80 -14q-92 -149 -174 -298l-321 -585q-88 -160 -164 -316q-19 4 -51 6q-11 0 -33 2zM645 1198q83 0 135.5 -57.5t52.5 -162.5q0 -175 -108 -310q-87 -110 -205 -110q-82 0 -135.5 58.5t-53.5 155.5q0 156 89.5 291t224.5 135z
M631 1156q-63 0 -117.5 -125.5t-54.5 -277.5q0 -78 24 -115t55 -37q56 0 101 97q66 142 66 304q0 78 -26 122q-20 32 -48 32zM1206 625q83 0 135.5 -57.5t52.5 -162.5q0 -175 -108 -310q-87 -110 -205 -110q-82 0 -135.5 58.5t-53.5 155.5q0 156 89.5 291t224.5 135z
M1192 583q-63 0 -117.5 -125.5t-54.5 -277.5q0 -78 24 -115t55 -37q56 0 101 97q66 142 66 304q0 78 -26 122q-20 32 -48 32z" />
    <glyph glyph-name="ampersand" unicode="&#x26;" horiz-adv-x="1597" 
d="M1509 1138q-29 -59 -47.5 -115t-58.5 -223q-68 -286 -115 -388q-65 -139 -191 -257q127 -139 198 -179t141 -40q78 0 132 43.5t54 94.5q0 19 -12 50q-13 35 -13 52q0 28 17 45.5t43 17.5q28 0 46 -20.5t18 -58.5q0 -118 -96.5 -208.5t-227.5 -90.5q-58 0 -115.5 21.5
t-109.5 63.5q-35 29 -140 151q-159 -126 -340 -126q-199 0 -329 126t-130 313q0 181 126 307t300 126q95 0 143.5 -37t48.5 -87q0 -114 -208 -163q89 -34 167 -98q102 -82 241 -247q43 51 71 98.5t55 123.5q18 47 57 203q36 145 51 188q33 95 66.5 167.5t78.5 146.5
q-179 1 -252 -33q-104 -48 -104 -136q0 -26 14 -93q5 -25 5 -41q0 -24 -15.5 -40t-39.5 -16q-28 0 -47 24t-19 69q0 93 58.5 181.5t153.5 130t270 41.5q28 0 52 -1q87 -5 97 -5q39 0 59 16.5t20 42.5q0 10 -6 36q-6 24 -6 34q0 26 16 43t40 17q25 0 43 -21t18 -57
q0 -73 -70 -129t-208 -63zM471 596q140 -3 191 26t51 77q0 35 -25 57.5t-67 22.5q-99 0 -180 -86.5t-81 -201.5q0 -90 60 -185t159 -152t204 -57q102 0 207 60q-167 201 -196 229q-57 55 -132 102t-191 92v16z" />
    <glyph glyph-name="quotesingle" unicode="'" horiz-adv-x="328" 
d="M374 683l77 384q17 80 38.5 105.5t52.5 25.5q20 0 31 -11t11 -31q0 -13 -20 -72l-136 -391q-12 -36 -32 -36q-27 0 -22 26z" />
    <glyph glyph-name="parenleft" unicode="(" horiz-adv-x="532" 
d="M971 1389q0 -16 -36 -31q-61 -26 -200.5 -162.5t-235.5 -305t-155 -380t-59 -409.5q0 -121 16 -219t47 -180q48 -128 77 -177q10 -17 10 -25q0 -21 -17 -21q-13 0 -32 25q-82 106 -141 296.5t-59 376.5q0 245 85.5 461t222 402t333.5 311q95 60 123 60q21 0 21 -22z" />
    <glyph glyph-name="parenright" unicode=")" horiz-adv-x="451" 
d="M-145 -499q0 17 36 32q61 26 200.5 162.5t235.5 305t155 380t59 409.5q0 121 -16 219t-47 180q-48 128 -77 177q-10 17 -10 25q0 21 17 21q13 0 32 -25q82 -106 141 -296.5t59 -376.5q0 -246 -85.5 -461.5t-222 -402t-333.5 -310.5q-95 -61 -123 -61q-21 0 -21 22z" />
    <glyph glyph-name="asterisk" unicode="*" horiz-adv-x="860" 
d="M658 1412q20 -118 64 -240q33 -5 53 -5q63 0 195 17q10 -24 17 -49q-117 -64 -213 -141q30 -102 95 -223q-19 -15 -40 -29q-104 86 -198 152q-89 -53 -196 -152q-25 14 -45 33q63 121 98 219q-103 78 -208 141q7 25 17 49q121 -14 182 -14q20 0 63 2q44 130 60 240l28 1
q9 0 28 -1zM634 1152q-43 0 -73.5 -30.5t-30.5 -73.5t30.5 -74t73.5 -31q44 0 74.5 31t30.5 74t-30.5 73.5t-74.5 30.5z" />
    <glyph glyph-name="plus" unicode="+" horiz-adv-x="1065" 
d="M661 643v385h111v-385h387v-111h-387v-391h-111v391h-387v111h387z" />
    <glyph glyph-name="comma" unicode="," horiz-adv-x="451" 
d="M56 -311l-19 65q91 70 140 138q32 45 32 74t-24 74q-24 46 -24 76q0 38 27 66t64 28q41 0 70.5 -33.5t29.5 -80.5q0 -54 -30 -122.5t-91 -133.5q-83 -90 -175 -151z" />
    <glyph glyph-name="hyphen" unicode="-" horiz-adv-x="573" 
d="M194 460h463l-24 -99h-465z" />
    <glyph glyph-name="hyphen" unicode="&#xad;" horiz-adv-x="573" 
d="M194 460h463l-24 -99h-465z" />
    <glyph glyph-name="period" unicode="." horiz-adv-x="451" 
d="M258 216q39 0 65.5 -29.5t26.5 -74.5q0 -65 -31 -102t-78 -37q-39 0 -65.5 27.5t-26.5 70.5q0 63 37 110q27 35 72 35z" />
    <glyph glyph-name="slash" unicode="/" horiz-adv-x="696" 
d="M-23 -384l991 1769h104l-991 -1769h-104z" />
    <glyph glyph-name="zero" unicode="0" horiz-adv-x="901" 
d="M703 1198q143 0 229.5 -105t86.5 -314q0 -297 -149.5 -552.5t-362.5 -255.5q-125 0 -211.5 109t-86.5 297q0 221 86 432.5t194 300t214 88.5zM685 1139q-62 0 -126.5 -82.5t-119 -302t-54.5 -418.5q0 -160 46.5 -233t106.5 -73q53 0 105 53q77 79 139 297.5t62 439.5
q0 171 -52 256q-39 63 -107 63z" />
    <glyph glyph-name="one" unicode="1" horiz-adv-x="901" 
d="M856 1209h32l-138 -540l-115 -501q-17 -63 -17 -85q0 -17 17 -27.5t77 -16.5q45 -4 88 -12l-20 -50q-215 23 -300 23q-124 0 -269 -23l17 50q52 14 119 28q66 13 90 40q33 35 69 168l108 413q53 236 53 267q0 35 -29 35q-22 0 -201 -80l-20 50q260 124 318 164.5
t121 96.5z" />
    <glyph glyph-name="two" unicode="2" horiz-adv-x="901" 
d="M403 898l-51 25q79 157 163.5 217.5t189.5 60.5q126 0 201 -80t75 -187q0 -66 -27 -134t-89 -142q-40 -49 -220 -203q-242 -210 -340 -339q131 6 270 6q45 0 78 -1q73 -3 100 14t89 114h69q-81 -112 -141 -275q-71 13 -150 19.5t-166 6.5q-103 0 -303 -13l20 63
q91 135 272 305q179 168 231 235q75 97 109 183q26 64 26 124q0 90 -49 144t-121 54q-60 0 -117.5 -43t-118.5 -154z" />
    <glyph glyph-name="three" unicode="3" horiz-adv-x="901" 
d="M426 964l-41 29q102 116 150 147q87 56 177 56q92 0 145 -47t53 -121q0 -156 -236 -331q81 -4 123 -29t68.5 -76.5t26.5 -122.5q0 -193 -195 -359q-167 -142 -343 -142q-79 0 -142.5 36t-63.5 89q0 22 16.5 38.5t38.5 16.5q30 0 69 -37q51 -49 76 -61q35 -17 62 -17
q78 0 174 92q142 134 142 296q0 81 -44.5 129.5t-114.5 48.5q-51 0 -116 -23l7 62q128 45 230 159q72 80 72 162q0 62 -31.5 97t-85.5 35q-114 0 -217 -127z" />
    <glyph glyph-name="four" unicode="4" horiz-adv-x="901" 
d="M932 408l-21 -105h-155l-72 -333h-141l72 333q-325 2 -414 -3q-12 -1 -19 -1q-29 0 -29 21q0 8 24 49q114 194 326.5 421.5t445.5 413.5h28l-42 -161l-88 -350l-67 -285h152zM637 408q9 50 40 174l97 391q-195 -185 -285.5 -287.5t-214.5 -277.5h363z" />
    <glyph glyph-name="five" unicode="5" horiz-adv-x="901" 
d="M1019 1225h55l-71 -148q-10 -15 -31.5 -23.5t-93.5 -8.5q-214 0 -290 -11q-17 -43 -26 -72t-9 -44q0 -38 59 -63q106 -44 150 -85t70 -104t26 -146q0 -213 -168 -379.5t-374 -166.5q-96 0 -147 31q-36 23 -36 63q0 26 16 43t38 17q14 0 22 -3t40 -24q41 -28 66.5 -36
t62.5 -8q138 0 247.5 116t109.5 258q0 95 -54 171t-155 117q-42 18 -56 35t-14 43q0 29 33 132l68 212q38 19 103 24l214 4q73 3 98 14.5t47 41.5z" />
    <glyph glyph-name="six" unicode="6" horiz-adv-x="901" 
d="M1093 1200l-12 -60q-166 -7 -282 -61.5t-197.5 -154t-131.5 -264.5q56 46 113 68.5t115 22.5q114 0 184 -80t70 -230q0 -206 -121 -346q-105 -122 -268 -122q-138 0 -226.5 105t-88.5 292q0 222 115 420t302.5 304.5t427.5 105.5zM451 582q-27 -156 -27 -257
q0 -158 48 -227.5t120 -69.5q78 0 124 75q61 97 61 285q0 155 -42 219.5t-103 64.5q-38 0 -83.5 -22.5t-97.5 -67.5z" />
    <glyph glyph-name="seven" unicode="7" horiz-adv-x="901" 
d="M429 922h-51q4 14 24 76q38 121 53 188q107 -17 350 -17q165 0 321 4q-334 -425 -419 -552q-148 -220 -200 -341q-25 -58 -39 -162q-14 -105 -36 -134t-57 -29q-31 0 -54 26t-23 64q0 94 70 221q100 183 453 617l130 161h-376q-67 0 -89.5 -17.5t-56.5 -104.5z" />
    <glyph glyph-name="eight" unicode="8" horiz-adv-x="901" 
d="M741 671q170 -170 170 -320q0 -145 -122.5 -261.5t-298.5 -116.5q-144 0 -218.5 78.5t-74.5 171.5q0 62 31 126.5t97 125.5q51 48 234 160q-107 121 -107 248q0 129 99 222.5t243 93.5q106 0 172.5 -58t66.5 -137t-61 -155q-80 -100 -231 -178zM696 724
q140 97 182.5 155.5t42.5 109.5q0 59 -43.5 101.5t-108.5 42.5q-77 0 -131 -54t-54 -130q0 -105 112 -225zM602 590q-160 -112 -214.5 -194t-54.5 -168q0 -82 57 -138.5t141 -56.5q61 0 118 33.5t91.5 95t34.5 123.5q0 57 -33.5 123.5t-139.5 181.5z" />
    <glyph glyph-name="nine" unicode="9" horiz-adv-x="901" 
d="M147 -26l12 59q166 7 282 62t197.5 154t131.5 265q-55 -46 -112 -69t-116 -23q-114 0 -184 80.5t-70 230.5q0 205 121 345q105 122 268 122q138 0 226.5 -105t88.5 -292q0 -221 -115 -419.5t-302.5 -305t-427.5 -104.5zM789 591q27 156 27 257q0 159 -48 228t-120 69
q-78 0 -124 -74q-61 -98 -61 -286q0 -155 42 -219t103 -64q39 0 84 22.5t97 66.5z" />
    <glyph glyph-name="colon" unicode=":" horiz-adv-x="532" 
d="M401 832q39 0 65.5 -29t26.5 -74q0 -66 -31 -102.5t-78 -36.5q-39 0 -65.5 27.5t-26.5 70.5q0 62 37 109q27 35 72 35zM258 216q39 0 65.5 -29.5t26.5 -74.5q0 -65 -31 -102t-78 -37q-39 0 -65.5 27.5t-26.5 70.5q0 63 37 110q27 35 72 35z" />
    <glyph glyph-name="semicolon" unicode=";" horiz-adv-x="491" 
d="M413 832q38 0 65 -29t27 -74q0 -66 -31 -102.5t-78 -36.5q-39 0 -65.5 27.5t-26.5 70.5q0 62 37 109q27 35 72 35zM54 -311l-19 65q91 70 140 138q32 45 32 74t-24 74q-24 46 -24 76q0 38 27 66t64 28q41 0 70.5 -33.5t29.5 -80.5q0 -54 -30 -122.5t-91 -133.5
q-83 -90 -175 -151z" />
    <glyph glyph-name="semicolon" unicode="&#x37e;" horiz-adv-x="491" 
d="M413 832q38 0 65 -29t27 -74q0 -66 -31 -102.5t-78 -36.5q-39 0 -65.5 27.5t-26.5 70.5q0 62 37 109q27 35 72 35zM54 -311l-19 65q91 70 140 138q32 45 32 74t-24 74q-24 46 -24 76q0 38 27 66t64 28q41 0 70.5 -33.5t29.5 -80.5q0 -54 -30 -122.5t-91 -133.5
q-83 -90 -175 -151z" />
    <glyph glyph-name="less" unicode="&#x3c;" horiz-adv-x="1065" 
d="M1115 231v-108l-893 410v95l893 409v-107l-751 -351z" />
    <glyph glyph-name="equal" unicode="=" horiz-adv-x="1065" 
d="M1159 815v-113h-885v113h885zM1159 473v-113h-885v113h885z" />
    <glyph glyph-name="greater" unicode="&#x3e;" horiz-adv-x="1065" 
d="M331 231l751 348l-751 351v107l893 -409v-95l-893 -410v108z" />
    <glyph glyph-name="question" unicode="?" horiz-adv-x="778" 
d="M340 329h-64q18 198 46 253q19 39 87 61q201 66 272 141q70 74 70 164q0 72 -38 114t-94 42q-48 0 -121 -55q-31 -23 -39 -27q-13 -5 -28 -5q-25 0 -43.5 18.5t-18.5 43.5q0 44 51 82t128 38q120 0 204 -88.5t84 -223.5q0 -137 -95 -242q-60 -68 -223 -129
q-124 -47 -143.5 -68.5t-34.5 -118.5zM288 216q39 0 65.5 -29.5t26.5 -74.5q0 -65 -31 -102t-78 -37q-39 0 -65.5 27.5t-26.5 70.5q0 63 37 110q27 35 72 35z" />
    <glyph glyph-name="at" unicode="@" horiz-adv-x="1434" 
d="M1131 1010l57 13q-42 -145 -82 -301.5t-61 -277.5q-7 -35 -7 -50q0 -21 9.5 -32.5t24.5 -11.5q38 0 99 51q86 72 134.5 173t48.5 204q0 157 -101.5 258t-263.5 101q-156 0 -289 -84.5t-222.5 -258t-89.5 -351.5q0 -117 54 -225q41 -81 130 -132.5t194 -51.5
q226 0 475 201l34 -40q-255 -227 -553 -227q-218 0 -340.5 119t-122.5 324q0 208 105 393.5t284.5 294.5t364.5 109q132 0 244 -56t171.5 -145t59.5 -182q0 -146 -98 -290.5t-260 -228.5q-116 -60 -182 -60q-23 0 -35.5 12.5t-12.5 33.5q0 28 39 149q-88 -98 -163 -147
t-137 -49q-40 0 -72.5 44.5t-32.5 116.5q0 127 84.5 276t195.5 223t240 74q21 0 60 -3zM1028 879q-42 9 -69 9q-76 0 -139.5 -45t-110.5 -154t-47 -221q0 -54 20 -79.5t55 -25.5q36 0 70 20q48 28 85.5 77.5t49.5 87.5l34 134z" />
    <glyph glyph-name="A" unicode="A" horiz-adv-x="1270" 
d="M1299 44l-10 -57q-36 -3 -63 -3q-39 0 -94 6q-94 10 -119 10q-42 0 -129 -13q31 78 52 164q15 61 32 210q-117 1 -363 -5q-254 -388 -372.5 -487.5t-225.5 -99.5q-56 0 -83.5 21.5t-27.5 55.5q0 26 16 43t40 17q14 0 38 -5q60 -14 80 -14q67 0 148 76q132 124 390 520
q292 448 473 652q-247 -22 -308 -42q-84 -27 -126 -80t-42 -108q0 -18 13 -51q14 -37 14 -54q0 -22 -17 -39t-41 -17q-34 0 -54.5 25.5t-20.5 76.5q0 72 37.5 139.5t107.5 113t175 69.5q54 13 190 23q118 10 148 19q47 13 90 51q-30 -123 -43 -215l-78 -578l-45 -414
q74 -19 133 -19q39 0 85 9zM977 435q48 406 96 593q-127 -168 -157 -212l-257 -381q83 -3 237 -3q38 0 81 3z" />
    <glyph glyph-name="B" unicode="B" horiz-adv-x="1229" 
d="M642 959l12 48q114 8 246 40q-35 -103 -51 -166l-54 -223q177 0 266.5 88.5t89.5 210.5q0 85 -64.5 137t-192.5 52q-181 0 -345 -86t-255.5 -224.5t-91.5 -277.5q0 -38 10.5 -70.5t30.5 -59.5q12 -16 53 -44q46 -32 57 -47.5t11 -36.5t-15.5 -36.5t-37.5 -15.5
q-57 0 -115.5 83t-58.5 205q0 168 100.5 325.5t284.5 252.5t405 95q180 0 273.5 -71t93.5 -173q0 -97 -63 -176.5t-191 -122.5q88 -14 139 -47.5t78.5 -84.5t27.5 -117q0 -108 -63.5 -204.5t-187 -160t-257.5 -63.5q-39 0 -167 8q-61 3 -128 3q-102 0 -181 -16l15 55
q105 6 149.5 50.5t83.5 196.5l148 581q9 37 9 56q0 15 -12.5 26.5t-31.5 11.5q-8 0 -20 -2zM779 598l-51 -201q-39 -156 -75 -240q-21 -50 -54 -85q90 -22 155 -22q175 0 264.5 108t89.5 241q0 66 -33.5 113.5t-88 66.5t-207.5 19z" />
    <glyph glyph-name="C" unicode="C" horiz-adv-x="1065" 
d="M1192 764h-54q5 78 5 125q0 141 -58.5 196.5t-147.5 55.5q-119 0 -247 -96.5t-220 -301t-92 -420.5q0 -209 85.5 -320.5t214.5 -111.5q175 0 321 210q15 21 31 21q13 0 22 -8.5t9 -19.5q0 -27 -66.5 -106t-167.5 -131.5t-199 -52.5q-118 0 -219 61.5t-157 175.5t-56 271
q0 219 114.5 436t286.5 335t336 118q59 0 117 -13q25 -6 206 -69q-57 -172 -64 -355z" />
    <glyph glyph-name="D" unicode="D" horiz-adv-x="1434" 
d="M650 962l10 43q109 9 257 44q-43 -111 -76 -252l-66 -279q-71 -302 -160 -456q86 -17 152 -17q175 0 305 73.5t206.5 214.5t76.5 311q0 223 -130 358.5t-340 135.5q-177 0 -334 -84t-248.5 -222.5t-91.5 -269.5q0 -128 112 -188q32 -18 41.5 -31t9.5 -32
q0 -24 -18.5 -42.5t-42.5 -18.5q-53 0 -103 70q-68 98 -68 201q0 172 102.5 332.5t285.5 255.5t407 95q276 0 439.5 -147.5t163.5 -370.5q0 -207 -114 -380.5t-275.5 -247t-322.5 -73.5q-52 0 -180 10q-108 8 -205 8q-45 0 -137 -3l23 49q92 5 114.5 16t38.5 37
q29 46 79 200l69 261l80 326q6 24 6 41q0 16 -10 25.5t-28 9.5q-7 0 -28 -3z" />
    <glyph glyph-name="E" unicode="E" horiz-adv-x="1270" 
d="M1312 959h-53q8 51 8 81q0 40 -33.5 52.5t-252.5 12.5l-146 -1l-111 -442h207q98 0 120.5 14.5t32.5 72.5h57q-32 -121 -57 -266h-51q5 47 5 73q0 11 -14 27q-7 8 -26 11q-27 5 -84 5h-205q-89 -340 -185 -533q93 29 165 29q120 0 294 -38q92 -21 125 -21q44 0 71 22
t27 50q0 16 -13 52q-8 25 -8 47q0 23 18.5 41t44.5 18q31 0 51.5 -24t20.5 -64q0 -85 -74.5 -149t-196.5 -64q-64 0 -162 11q-215 24 -328 24q-148 0 -346 -24l16 55q118 33 139 48.5t35 45.5q48 95 124.5 381l155.5 604q-120 0 -227 -57t-167 -148.5t-60 -192.5
q0 -43 8.5 -75t38.5 -90q19 -35 19 -57t-18.5 -39t-45.5 -17q-39 0 -62 39q-34 57 -34 155q0 210 159 377t463 167h343q178 0 263 23q-40 -166 -51 -236z" />
    <glyph glyph-name="F" unicode="F" horiz-adv-x="1187" 
d="M1363 932h-54q17 84 17 108q0 33 -23 49t-87 16l-64 -1l-21 1h-200l-32 -117q-54 -194 -82 -318h195q71 0 92 14t35 71h54q-31 -126 -54 -263h-55q7 57 7 67q0 24 -24 36q-14 7 -76 9h-191q-29 -139 -76 -300t-81 -249q80 -13 143 -13q41 0 81 7l-17 -57q-29 -4 -54 -4
q-22 0 -138 7q-69 5 -117 5q-97 0 -207 -18l12 55q89 19 117.5 40t43.5 51q31 61 116 378l153 599q-134 -4 -234.5 -60t-160 -150.5t-59.5 -191.5q0 -39 10 -80q5 -23 28 -66q29 -53 29 -74t-17 -36.5t-44 -15.5q-40 0 -65 42q-34 56 -34 159q0 201 157 370q157 168 414 168
h384q64 0 141 8q23 2 99 21q-51 -209 -61 -267z" />
    <glyph glyph-name="G" unicode="G" horiz-adv-x="1270" 
d="M1331 796h-54q5 47 5 83q0 135 -69.5 197t-171.5 62q-141 0 -283 -95.5t-232.5 -266.5t-90.5 -357q0 -189 89.5 -278t200.5 -89q66 0 126.5 17.5t115.5 51.5q46 157 46 209q0 25 -18.5 39.5t-65.5 14.5q-16 0 -77 -5l9 49q44 8 89 8q36 0 89 -2q41 -1 61 -1q36 0 110 6
q39 3 67 4l-11 -51q-50 1 -71 -21.5t-44 -117.5q-82 -341 -162 -493.5t-182 -219t-220 -66.5q-100 0 -161.5 45.5t-61.5 95.5q0 27 19.5 46t44.5 19q34 0 77 -48q49 -54 76.5 -70t58.5 -16q63 0 111 49q98 97 193 449q-66 -36 -134 -54.5t-139 -18.5q-176 0 -277 93
q-135 124 -135 346q0 202 102.5 380t285 293t346.5 115q89 0 209 -28q121 -27 184 -28q-55 -190 -55 -346z" />
    <glyph glyph-name="H" unicode="H" horiz-adv-x="1393" 
d="M1380 45l-13 -57q-51 -6 -78 -6q-43 0 -114 7q-76 7 -130 7q-43 0 -89 -14q41 115 93 320l77 300l-270 -10q-71 -4 -146 -11q-68 -267 -140 -395t-164.5 -188.5t-177.5 -60.5q-83 0 -142 40q-43 28 -43 70q0 25 17 42.5t41 17.5q39 0 80 -55q25 -33 40.5 -42.5t34.5 -9.5
q78 0 146.5 126t200.5 623l98 366q-200 0 -300.5 -66t-100.5 -149q0 -28 27 -71q24 -40 24 -65q0 -29 -18.5 -47.5t-46.5 -18.5q-35 0 -60 33.5t-25 97.5q0 116 84 205t244 126q92 21 367 21q-74 -146 -165 -516q264 0 416 19q87 290 153 404.5t148.5 165.5t184.5 51
q88 0 135.5 -33.5t47.5 -76.5q0 -25 -17 -41t-44 -16q-35 0 -79 50q-45 50 -80 50q-75 0 -148 -139q-130 -248 -301 -1047q17 -2 48 -7q57 -10 92 -10q41 0 93 10z" />
    <glyph glyph-name="I" unicode="I" horiz-adv-x="778" 
d="M970 1183l-17 -54q-113 -7 -150 -28q-24 -14 -40 -42q-19 -36 -111 -382q-30 -114 -153 -623q70 -23 177 -20l-16 -48q-32 -1 -128 8q-69 6 -161 6q-127 0 -233 -19l12 53q110 17 167 44q14 7 22 17q15 18 32.5 72.5t119.5 445.5q30 113 122 494q-69 2 -169 -19l19 55
q42 11 86 15.5t199 8.5q145 4 222 16z" />
    <glyph glyph-name="J" unicode="J" horiz-adv-x="819" 
d="M1004 1180q-73 -162 -155 -451l-149 -521q-71 -250 -198 -366q-128 -117 -279 -117q-100 0 -161 45t-61 99q0 25 18 44t41 19q34 0 73 -41q53 -55 83 -70q42 -21 76 -21q36 0 62 16q43 26 75 81.5t132 369.5q84 262 163 544l87 304l-48 2q-159 0 -263 -76.5t-104 -161.5
q0 -30 26 -69q24 -36 24 -57q0 -26 -19.5 -45.5t-46.5 -19.5q-35 0 -57.5 31t-22.5 91q0 112 79.5 205.5t214.5 136.5q90 29 273 29q26 0 137 -1z" />
    <glyph glyph-name="K" unicode="K" horiz-adv-x="1352" 
d="M1551 1180l-6 -25q-81 -20 -134 -50t-143 -109q-239 -209 -416 -321q51 -63 87 -141t125 -359q80 -251 163 -339t169 -88q83 0 113 88q18 52 31 64q18 16 40 16q24 0 41 -16.5t17 -39.5q0 -60 -71 -116t-180 -56q-94 0 -178.5 48t-154.5 151t-143 319q-68 204 -105 279.5
t-103 159.5l-106 -405q-32 -123 -40 -176q68 -29 122 -29q13 0 37 2l-13 -50q-20 -1 -25 -1q-33 0 -94 7q-64 7 -105 7q-83 0 -263 -32l6 48q96 19 135 52.5t62 105.5q53 162 138 487l122 463q-198 -12 -313 -90q-89 -59 -89 -132q0 -26 25 -66q23 -36 23 -58
q0 -27 -20 -47.5t-47 -20.5q-31 0 -55.5 31t-24.5 82q0 139 138.5 250.5t481.5 111.5h65q-55 -143 -72 -207l-80 -303q74 28 172.5 95.5t189.5 143.5q167 140 190 170q7 10 7 17q0 8 -20.5 14.5t-115.5 8.5l13 56q128 -12 210 -12q84 0 194 12z" />
    <glyph glyph-name="L" unicode="L" horiz-adv-x="1188" 
d="M98 -17l12 54q105 20 140.5 46t64 92.5t77.5 274.5q65 275 118 396q81 182 201.5 270t243.5 88q79 0 133 -40t54 -83q0 -24 -16.5 -41t-39.5 -17q-30 0 -73 39q-48 42 -74.5 55t-51.5 13q-29 0 -57 -16q-39 -22 -83.5 -83.5t-92.5 -182.5q-31 -82 -79 -270
q-75 -299 -114 -397q-28 -70 -68 -116q143 32 228 32q53 0 98 -6.5t157 -32.5q97 -23 136 -23q38 0 64.5 23.5t26.5 53.5q0 19 -14 53q-13 32 -13 51q0 27 16 42.5t42 15.5q30 0 51 -26.5t21 -72.5q0 -87 -72 -150t-195 -63q-61 0 -157 9q-324 29 -424 29q-147 0 -260 -17z
" />
    <glyph glyph-name="M" unicode="M" horiz-adv-x="1720" 
d="M944 -42l-80 1076q-26 -272 -96 -507.5t-159 -364t-182 -180.5t-184 -52q-55 0 -84.5 22.5t-29.5 54.5q0 27 21.5 47t54.5 20q24 0 69 -11q41 -11 68 -11q47 0 98 35q77 52 152.5 186.5t135 375t74.5 469.5q-227 0 -369 -113q-113 -90 -113 -201q0 -49 54 -118
q29 -37 29 -60q0 -26 -16.5 -43t-39.5 -17q-39 0 -69 44q-41 59 -41 140q0 114 76.5 218.5t212 159t317.5 55.5q98 0 157 18q-3 -90 -3 -97q0 -9 3 -41l59 -760q241 421 471 693q163 193 284 261q-69 -190 -148 -501l-122 -480q-10 -40 -27 -117l-24 -107q76 -18 139 -18
q51 0 109 12l-13 -58q-51 -9 -79 -9q-41 0 -118 9q-63 8 -112 8q-52 0 -118 -20q55 144 115 387l77 306q49 198 85 272q-80 -91 -247 -334q-134 -196 -300 -496z" />
    <glyph glyph-name="N" unicode="N" horiz-adv-x="1434" 
d="M915 1204l28 -117q39 -160 77 -280t195 -555q15 55 60 244q58 246 77 309q56 185 108 272t116 125t145 38q65 0 99.5 -25t34.5 -60q0 -25 -18.5 -44t-43.5 -19q-18 0 -42 10q-50 20 -60 23q-18 4 -39 4q-49 0 -84 -33q-62 -58 -136.5 -291t-189.5 -745l-34 -149
q-114 251 -154 356q-54 141 -123 356l-110 346q-20 -120 -93.5 -404.5t-87.5 -327.5q-46 -135 -98.5 -207t-115 -105t-137.5 -33q-94 0 -154 42q-46 31 -46 79q0 21 17 37.5t41 16.5q31 0 67 -33q64 -59 117 -59q57 0 112 51q82 78 158 327q92 301 177 764q-35 0 -134 -20
t-165.5 -56.5t-102 -95t-35.5 -122.5q0 -32 9 -65q6 -22 26 -54q23 -37 23 -56q0 -24 -17.5 -41t-43.5 -17q-38 0 -65 39.5t-27 120.5q0 134 67.5 228t180.5 142q72 30 278 58q76 10 143 26z" />
    <glyph glyph-name="O" unicode="O" horiz-adv-x="1229" 
d="M899 1197q126 0 227.5 -58.5t157.5 -167t56 -252.5q0 -188 -101 -373t-247 -279t-324 -94q-205 0 -331.5 128t-126.5 337q0 200 101 386.5t248 279.5t340 93zM826 1125q-116 0 -213.5 -68.5t-159.5 -214t-62 -337.5q0 -220 97 -339.5t242 -119.5q108 0 204.5 71
t159 223.5t62.5 350.5q0 205 -95.5 319.5t-234.5 114.5z" />
    <glyph glyph-name="P" unicode="P" horiz-adv-x="1106" 
d="M627 957l12 45q145 14 248 40q-25 -70 -54 -183l-74 -281l92 -6q64 -3 139.5 32t135 123t59.5 190q0 101 -72.5 160t-221.5 59q-170 0 -333 -84.5t-251.5 -216t-88.5 -259.5q0 -63 23 -109.5t82 -91.5q49 -36 49 -70q0 -22 -16 -37t-38 -15q-59 0 -114 81t-55 205
q0 227 174 414q228 246 612 246q146 0 239.5 -38t140 -104t46.5 -143q0 -98 -65.5 -192.5t-193 -152.5t-283.5 -58q-24 0 -75 3l-79 -311q-20 -79 -45 -156q78 -19 136 -19q73 0 157 28l-12 -56q-78 -21 -132 -21q-52 0 -152 11q-80 10 -130 10q-97 0 -199 -23l12 53
q104 17 142 49q54 45 88 181l151 599q10 42 10 59q0 16 -13 28.5t-31 12.5q-7 0 -20 -2z" />
    <glyph glyph-name="Q" unicode="Q" horiz-adv-x="1229" 
d="M781 -17l167 -162q139 -140 194 -181q78 -58 135 -79.5t104 -21.5q40 0 72 12t58 36q15 14 39 61q26 51 66 51q20 0 35 -15.5t15 -36.5q0 -54 -81 -104q-113 -70 -258 -70q-97 0 -158 20q-84 28 -159.5 81t-201.5 184q-115 118 -150.5 149.5t-70.5 52.5q-19 12 -91 40
q-140 56 -213 168t-73 270q0 272 187 516t483 244q141 0 242 -56.5t159.5 -166.5t58.5 -248q0 -245 -158.5 -473t-400.5 -271zM826 1125q-116 0 -213.5 -68.5t-159.5 -214t-62 -337.5q0 -220 97 -339.5t242 -119.5q108 0 204.5 71t159 223.5t62.5 350.5q0 205 -95.5 319.5
t-234.5 114.5z" />
    <glyph glyph-name="R" unicode="R" horiz-adv-x="1229" 
d="M737 572l-134 -531q48 -7 77 -7q44 0 109 15l-10 -49q-67 -14 -104 -14q-39 0 -115 7q-67 7 -111 7q-80 0 -185 -23l15 56q110 28 143 55q50 43 77 151l140 559q26 107 26 126q0 18 -12.5 27t-49.5 8l13 48q101 1 242 37q-12 -38 -31 -112l-75 -295q48 -10 81 -10
q125 0 214 87.5t89 207.5q0 93 -71.5 153t-194.5 60q-157 0 -307 -76t-225 -188.5t-75 -235.5q0 -93 77 -160q39 -33 48 -48t9 -32q0 -21 -15.5 -36.5t-37.5 -15.5q-54 0 -96 63q-54 82 -54 202q0 154 85 287t257.5 220t363.5 87q178 0 293 -67t115 -198q0 -123 -105.5 -229
t-290.5 -136q46 -92 59 -124q21 -54 64 -182q101 -301 209 -424q80 -90 173 -90q96 0 123 87q16 55 30 68q19 18 43 18t40.5 -17t16.5 -41q0 -62 -68 -118t-175 -56q-97 0 -185.5 47t-172 154t-145.5 257q-31 75 -91 275q-36 122 -45 146l-25 2q-9 0 -26 -2z" />
    <glyph glyph-name="S" unicode="S" horiz-adv-x="942" 
d="M1029 811h-52q11 105 11 159q0 77 -41.5 121.5t-112.5 44.5q-110 0 -192 -79.5t-82 -178.5q0 -53 22.5 -96t99.5 -120q141 -138 185 -216t44 -152q0 -109 -66.5 -210t-196 -166.5t-273.5 -65.5q-142 0 -239.5 74t-97.5 156q0 44 25.5 73t58.5 29q34 0 56 -27
q14 -16 28 -72q16 -68 39 -98.5t63.5 -50t88.5 -19.5q143 0 250 96.5t107 213.5q0 40 -13.5 79.5t-49.5 89.5q-25 34 -111 120q-85 84 -107 115q-31 45 -46 90.5t-15 90.5q0 91 61 183t158.5 146.5t221.5 54.5q62 0 153 -19q52 -10 90 -15q-22 -65 -34 -122.5t-33 -228.5z
" />
    <glyph glyph-name="T" unicode="T" horiz-adv-x="1024" 
d="M991 57l-14 -57q-69 -15 -113 -15q-42 0 -139 9q-73 6 -131 6q-100 0 -206 -18l14 55q101 10 147 42q33 23 56.5 78.5t106.5 387.5l128 530l7 25q-59 2 -89 2q-185 0 -293.5 -40t-163 -116t-54.5 -164q0 -31 11 -57q8 -18 44 -58q34 -37 34 -68q0 -27 -20 -46t-48 -19
q-42 0 -68 40q-38 59 -38 150q0 122 75.5 237t207.5 178t321 63q90 0 287 -26q140 -18 203 -18t89 21t26 56q0 7 -3 28q-3 19 -3 25q0 27 18 45t43 18q30 0 49.5 -22t19.5 -59q0 -76 -81 -131t-271 -55q-68 0 -145 6q-10 -36 -63 -244l-87 -346l-53 -211l-55 -241
q67 -8 111 -8q67 0 140 17z" />
    <glyph glyph-name="U" unicode="U" horiz-adv-x="1515" 
d="M928 1195q-101 -178 -199 -453q-69 -195 -69 -326q0 -146 70.5 -227t176.5 -81q100 0 188 50q117 66 216.5 201t162.5 323.5t63 352.5q0 114 -49 216q-26 52 -29 62q-4 14 -4 30q0 30 18.5 49t45.5 19q47 0 74 -50q39 -68 39 -211q0 -306 -134 -609t-309.5 -433
t-368.5 -130q-157 0 -241 104.5t-84 257.5q0 126 39 258q51 173 211 517q-125 3 -224 -30.5t-142.5 -85.5t-43.5 -103q0 -21 23 -57q24 -41 24 -64q0 -29 -18 -48t-45 -19q-33 0 -57.5 30t-24.5 78q0 77 45 154.5t116.5 124.5t176.5 69q52 11 216 20q112 6 137 11z" />
    <glyph glyph-name="V" unicode="V" horiz-adv-x="1311" 
d="M643 -41l-36 484q-11 148 -11 195q0 135 38.5 248.5t136.5 243.5q-117 0 -238.5 -56t-178 -129t-56.5 -147q0 -34 21 -72q27 -48 27 -73q0 -23 -14 -37t-36 -14q-32 0 -56 33q-30 44 -30 109q0 122 92 235t252 167q103 35 300 48q53 4 108 10q-135 -198 -176 -330.5
t-41 -359.5q0 -174 18 -318l192 205l164 168q248 255 334 402q65 111 65 202q0 50 -23 110q-15 38 -15 58q0 27 20.5 47t48.5 20q38 0 64 -39t26 -122q0 -81 -34 -171.5t-143 -230.5t-337 -371q-239 -242 -482 -515z" />
    <glyph glyph-name="W" unicode="W" horiz-adv-x="1802" 
d="M1228 -88l20 644q7 214 40 402q-58 -71 -146 -212q-263 -423 -567 -794q-22 133 -35.5 311t-13.5 312q0 189 35.5 301.5t134.5 246.5q-188 -21 -298.5 -119t-110.5 -201q0 -38 21 -77q25 -47 25 -63q0 -26 -16.5 -43t-40.5 -17q-32 0 -52 29q-27 38 -27 98q0 91 52.5 186
t139.5 156.5t198 89.5q61 15 205 31q49 6 97 13q-217 -304 -217 -614q0 -97 15 -387q59 71 107 137q33 46 172 255q224 340 335 479q78 96 176 179q-96 -377 -96 -1083l251 311q101 126 204.5 293.5t136.5 267.5q21 65 21 123q0 57 -26 120q-16 40 -16 58q0 27 19.5 45.5
t49.5 18.5q38 0 60 -34q32 -46 32 -122q0 -101 -69.5 -266t-308.5 -482q-308 -405 -507 -593z" />
    <glyph glyph-name="X" unicode="X" horiz-adv-x="1147" 
d="M440 1100l12 59q35 8 84 8q98 0 119 2q40 2 111 12q0 -186 59 -414q145 199 299 362q95 102 178 143q59 29 125 29q48 0 71 -17.5t23 -45.5t-21 -44t-89 -22q-95 -10 -154 -39.5t-138 -114.5q-130 -141 -272 -333q49 -144 73 -281t24 -267q0 -39 -2 -84q44 -11 87 -11
q40 0 108 6l-12 -57q-40 -3 -52 -3q-27 0 -86 6q-50 6 -83 6q-32 0 -116 -9q12 69 12 122q0 119 -15 226.5t-45 203.5l-162 -227q-210 -291 -319 -373t-202 -82q-34 0 -53.5 18t-19.5 43q0 26 20 43.5t76 24.5q107 14 184 73q102 78 261 297l191 264q-97 306 -97 490
q-42 2 -61 2q-52 0 -118 -16z" />
    <glyph glyph-name="Y" unicode="Y" horiz-adv-x="1147" 
d="M1090 59l-21 -59q-62 -16 -106 -16q-47 0 -124 8q-73 8 -116 8q-61 0 -187 -14l17 51q94 24 118 52t80 239.5t56 278.5q0 134 -52 275t-130 228q-147 -54 -210.5 -101.5t-102 -116.5t-38.5 -121q0 -51 46 -95q39 -38 39 -67q0 -26 -15.5 -43t-38.5 -17q-41 0 -69 40
q-38 55 -38 132q0 111 62 209t173 164q65 39 214 83q55 16 99 33q84 -101 135 -237.5t70 -338.5q186 390 354.5 548.5t274.5 158.5q33 0 54 -19t21 -47q0 -29 -24.5 -47t-95.5 -23q-70 -5 -108 -28q-75 -46 -176.5 -170t-200.5 -310t-151 -387.5t-56 -262.5q47 -8 93 -8
q70 0 154 20z" />
    <glyph glyph-name="Z" unicode="Z" horiz-adv-x="1270" 
d="M1127 1047q-65 -15 -134 -15q-111 0 -262 43q-93 26 -118 26q-43 0 -65.5 -17.5t-22.5 -42.5q0 -28 32 -52q33 -26 41.5 -40t8.5 -34q0 -25 -18 -43t-43 -18q-40 0 -69 37t-29 100q0 88 66 150t163 62q62 0 148 -13q196 -30 292 -30q98 0 187 45q25 12 35 12
q13 0 23.5 -9t10.5 -18q0 -31 -93 -114q-97 -86 -182 -175l-500 -518l-286 -309q216 62 326 62q158 0 339 -66q100 -36 140 -36q46 0 68.5 20t22.5 58q0 20 -10 46q-12 31 -12 45q0 28 20 49t47 21q30 0 51.5 -24.5t21.5 -65.5q0 -97 -77 -160t-175 -63q-59 0 -206 19
q-168 21 -361 21q-223 0 -298 -31q-30 -12 -45 -12q-11 0 -21 9q-7 8 -7 20q0 29 38 65q41 39 152 155l282 288l300 306q110 112 219 247z" />
    <glyph glyph-name="bracketleft" unicode="[" horiz-adv-x="491" 
d="M523 1377h302l-15 -63h-191l-363 -1596h187l-14 -62h-300z" />
    <glyph glyph-name="backslash" unicode="\" horiz-adv-x="983" 
d="M962 -384h-104l-430 1769h104z" />
    <glyph glyph-name="bracketright" unicode="]" horiz-adv-x="655" 
d="M368 -344h-302l14 62h192l363 1596h-188l15 63h300z" />
    <glyph glyph-name="asciicircum" unicode="^" horiz-adv-x="1065" 
d="M616 841h-112l200 328h107l199 -328h-112l-141 200z" />
    <glyph glyph-name="underscore" unicode="_" horiz-adv-x="1024" 
d="M-12 -154h1048v-102h-1048v102z" />
    <glyph glyph-name="grave" unicode="`" horiz-adv-x="451" 
d="M311 1252h167l110 -290h-60z" />
    <glyph glyph-name="a" unicode="a" horiz-adv-x="860" 
d="M856 858l66 14l-75 -253q-45 -151 -85 -348q-22 -107 -22 -138t25 -31q16 0 51 21q62 37 119 92l32 -39q-114 -104 -146 -126q-64 -44 -122 -65q-38 -14 -74 -14q-26 0 -39 12t-13 35q0 15 8 41l40 136q-86 -103 -205 -177q-73 -46 -134 -46q-58 0 -89 41q-42 55 -42 144
q0 106 56.5 236t151.5 236t200 156q81 38 208 38q32 0 65 -4zM732 705q-54 11 -91 11q-90 0 -157 -49.5t-124.5 -178t-57.5 -256.5q0 -68 23 -98t60 -30q69 0 148 74.5t116 214.5z" />
    <glyph glyph-name="b" unicode="b" horiz-adv-x="860" 
d="M478 666q81 89 159.5 130.5t138.5 41.5q70 0 112 -56t42 -169q0 -164 -77 -321t-190.5 -239t-221.5 -82q-92 0 -147 54t-55 140q0 69 27 192l118 529q43 194 108 295.5t171 162t201 60.5q57 0 83.5 -19.5t26.5 -52.5q0 -30 -24 -50t-68 -20q-33 0 -114 15q-36 7 -64 7
q-50 0 -81 -54q-23 -42 -63 -213zM675 727q-49 0 -116.5 -59t-127.5 -208.5t-60 -293.5q0 -54 34.5 -90.5t80.5 -36.5q111 0 198 175.5t87 349.5q0 79 -33 129q-23 34 -63 34z" />
    <glyph glyph-name="c" unicode="c" horiz-adv-x="696" 
d="M723 217l21 -58q-238 -187 -402 -187q-87 0 -126.5 62t-39.5 157q0 158 84 325t204 256q94 69 212 69q74 0 112 -28t38 -68q0 -31 -20 -50.5t-56 -19.5q-35 0 -90 32q-57 34 -95 34q-49 0 -97.5 -44.5t-92.5 -172.5t-44 -257q0 -95 37 -147q27 -40 76 -40q117 0 279 137z
" />
    <glyph glyph-name="d" unicode="d" horiz-adv-x="901" 
d="M944 207l28 -38q-134 -113 -199 -150q-90 -51 -142 -51q-24 0 -39 13.5t-15 30.5t11 56l35 122q-120 -129 -200 -175t-144 -46q-53 0 -89 46.5t-36 136.5q0 142 97.5 326.5t217 273t218.5 88.5q22 0 66 -7q47 195 90 284.5t111 154.5t155.5 100.5t163.5 35.5q40 0 64 -21
t24 -53q0 -31 -22 -50.5t-60 -19.5q-25 0 -93 10t-93 10q-35 0 -61.5 -21.5t-50.5 -92.5q-16 -45 -73 -287l-142 -604q-25 -107 -25 -142q0 -38 29 -38q18 0 42 13q34 19 132 95zM732 723q-80 18 -113 18q-67 0 -131 -52.5t-123.5 -203.5t-59.5 -263q0 -51 27.5 -83.5
t62.5 -32.5q42 0 96 37q77 55 122 134q27 50 73 245z" />
    <glyph glyph-name="e" unicode="e" horiz-adv-x="696" 
d="M698 251l33 -44q-245 -233 -420 -233q-71 0 -108.5 48t-37.5 154q0 214 130 426q146 241 349 241q71 0 108.5 -35.5t37.5 -97.5q0 -65 -45 -128t-161 -131q-58 -33 -248 -119q-9 -54 -9 -103q0 -71 22.5 -99t65.5 -28q41 0 90 23q66 31 193 126zM348 396q161 72 242 155
q55 58 55 115q0 43 -22.5 68.5t-58.5 25.5q-37 0 -72 -28q-47 -37 -79 -112q-46 -110 -65 -224z" />
    <glyph glyph-name="f" unicode="f" horiz-adv-x="655" 
d="M208 776h239q59 250 135 372t198 192.5t230 70.5q61 0 92 -24t31 -57q0 -30 -21 -50t-55 -20q-35 0 -132 21q-48 10 -75 10q-66 0 -119 -81.5t-85 -220.5l-50 -213h264l-16 -71h-267l-158 -638q-73 -291 -233.5 -441t-348.5 -150q-63 0 -95.5 24.5t-32.5 60.5
q0 31 22.5 49.5t64.5 18.5q21 0 62 -5q70 -9 134 -9q99 0 144 46.5t90 227.5l203 816h-239z" />
    <glyph glyph-name="g" unicode="g" horiz-adv-x="819" 
d="M847 848l81 18q-73 -234 -134 -469q-44 -168 -61 -280q-9 -56 -10 -142q-2 -144 -32 -232q-42 -123 -156.5 -198t-271.5 -75q-135 0 -212.5 63.5t-77.5 145.5q0 81 62 151q46 53 192 128q74 39 139 80q-74 -38 -115 -38q-37 0 -65.5 34.5t-28.5 91.5q0 184 109.5 365.5
t263.5 272.5q95 56 238 56q28 0 69 -2zM735 700q-48 9 -85 9q-95 0 -163 -50t-116 -168q-67 -167 -67 -281q0 -47 26.5 -79t59.5 -32q40 0 99 38.5t96.5 96.5t76.5 200zM599 155q-68 -61 -262 -195q-171 -116 -210 -167q-39 -52 -39 -110q0 -57 50.5 -102.5t122.5 -45.5
q68 0 132 33.5t111.5 97t65.5 143.5t19 212q1 29 10 134z" />
    <glyph glyph-name="h" unicode="h" horiz-adv-x="901" 
d="M977 212l26 -37q-92 -102 -189 -162q-66 -41 -109 -41q-35 0 -56.5 28t-21.5 87q0 40 16.5 116.5t93.5 328.5q34 124 34 145q0 34 -34 34q-42 0 -105 -42q-88 -58 -156 -148q-43 -58 -69 -172l-80 -348h-149q48 175 74 286l147 642q40 177 105.5 272.5t171 152.5
t208.5 57q43 0 68 -21t25 -53q0 -27 -24.5 -47.5t-66.5 -20.5q-24 0 -62 5q-86 12 -119 12q-46 0 -75 -37t-60 -174l-112 -494q119 125 259 211q82 51 132 51q39 0 61 -23.5t22 -65.5q0 -34 -8 -68q-13 -59 -61 -214q-65 -214 -76.5 -266t-11.5 -93q0 -16 5.5 -24t16.5 -8
q24 0 90 57z" />
    <glyph glyph-name="i" unicode="i" horiz-adv-x="491" 
d="M600 1271q31 0 51 -20.5t20 -52.5q0 -44 -30.5 -77.5t-68.5 -33.5q-30 0 -50 21t-20 55q0 45 29 76.5t69 31.5zM206 609l-44 34q100 110 182.5 156.5t140.5 46.5q32 0 49 -14t17 -38q0 -29 -65 -246q-106 -355 -106 -428q0 -14 7 -23.5t15 -9.5q32 0 164 124l39 -38
q-137 -129 -200 -165t-103 -36q-35 0 -55.5 22t-20.5 61q0 125 150 611q7 23 7 41q0 20 -18 20q-20 0 -45.5 -16t-113.5 -102z" />
    <glyph glyph-name="j" unicode="j" horiz-adv-x="451" 
d="M611 1271q31 0 51 -20.5t20 -52.5q0 -44 -30.5 -77.5t-67.5 -33.5q-31 0 -51 21t-20 55q0 45 29.5 76.5t68.5 31.5zM213 601l-38 43q85 92 183.5 147t151.5 55q22 0 36.5 -13.5t14.5 -34.5q0 -26 -32 -142l-173 -631q-87 -322 -192 -435.5t-246 -113.5q-70 0 -107.5 26.5
t-37.5 60.5q0 24 17.5 41t42.5 17q28 0 80 -26q60 -30 92 -30q54 0 87 50q33 49 99 316q68 273 115 444l70 252q20 61 20 76q0 8 -6.5 14t-13.5 6q-39 0 -163 -122z" />
    <glyph glyph-name="k" unicode="k" horiz-adv-x="901" 
d="M329 0h-149l131 545q95 405 124.5 499t71 155t104 109t135 73.5t127.5 25.5q52 0 77.5 -20t25.5 -53q0 -28 -23 -48t-58 -20q-44 0 -133 15q-29 6 -51 6q-31 0 -58.5 -22t-49 -78.5t-60.5 -234.5l-71 -320q96 109 199 168q78 44 149 44q50 0 84.5 -37.5t34.5 -94.5
q0 -107 -111 -191t-339 -90q77 -34 123 -74.5t90.5 -112t114.5 -239.5q83 -200 154 -266q70 -66 154 -66q49 0 81 21.5t32 43.5q0 14 -10 38q-11 26 -11 44q0 23 18 41t42 18q28 0 48 -22.5t20 -59.5q0 -72 -66 -128t-172 -56q-109 0 -195 55t-161 176q-43 70 -150 319
q-50 118 -90 177q-31 46 -85 91zM434 473q135 -1 218.5 26t119 72t35.5 98q0 38 -20.5 61t-49.5 23q-94 0 -288 -210z" />
    <glyph glyph-name="l" unicode="l" horiz-adv-x="491" 
d="M590 241l34 -36q-78 -88 -184.5 -160.5t-175.5 -72.5q-31 0 -51 23.5t-20 64.5q0 80 62 332l108 439q59 238 99 319q62 123 175.5 191t239.5 68q43 0 67.5 -20.5t24.5 -49.5q0 -32 -24 -52.5t-70 -20.5q-30 0 -85 10q-48 8 -89 8t-62 -17q-29 -24 -52.5 -101t-76.5 -304
l-99 -419q-74 -315 -74 -329q0 -32 23 -32q22 0 64 26q83 52 166 133z" />
    <glyph glyph-name="m" unicode="m" horiz-adv-x="1270" 
d="M201 611l-30 40q99 99 188 146t140 47q21 0 31.5 -9t10.5 -25q0 -20 -16 -77q-23 -84 -32 -133q240 244 367 244q33 0 50 -18t17 -57q0 -42 -30 -143q114 119 198 168.5t131 49.5q42 0 65 -24t23 -74q0 -30 -10 -71t-73 -250q-79 -259 -79 -309q0 -34 28 -34q19 0 37 12
q59 42 121 104l33 -36q-21 -17 -79 -70q-80 -72 -110 -90q-58 -34 -98 -34q-30 0 -53 29.5t-23 81.5q0 48 14 112.5t82 289.5q51 169 51 205q0 34 -30 34q-25 0 -67 -25q-86 -52 -144 -127q-40 -52 -70 -165q-67 -247 -100 -403h-142l149 611q16 66 16 76q0 16 -8 24.5
t-23 8.5q-27 0 -84 -42q-99 -71 -142.5 -137.5t-74.5 -202.5l-77 -338h-143l113 477q50 207 50 225q0 23 -18 23q-39 0 -159 -114z" />
    <glyph glyph-name="n" unicode="n" horiz-adv-x="942" 
d="M204 607l-34 35q128 122 204 162t130 40q21 0 33 -9t12 -21q0 -9 -5 -32l-45 -201q102 113 256 211q82 51 135 51q39 0 61 -25t22 -72q0 -31 -9 -70q-16 -65 -84 -283q-64 -204 -64 -271q0 -20 6 -30t17 -10q29 0 91 56q44 40 88 74l25 -36q-92 -102 -191 -164
q-63 -40 -104 -40q-38 0 -59 27.5t-21 89.5q0 89 111 443q34 126 34 147q0 31 -37 31q-40 0 -103 -42q-94 -62 -157 -146q-40 -54 -67 -172l-81 -349h-149q42 150 73 287l89 380q5 23 5 33q0 27 -20 27q-16 0 -46 -21q-62 -41 -116 -100z" />
    <glyph glyph-name="o" unicode="o" horiz-adv-x="819" 
d="M670 841q98 0 163 -78t65 -217q0 -222 -156 -398.5t-330 -176.5q-107 0 -172.5 70t-65.5 191q0 210 120 388q151 221 376 221zM585 766q-85 0 -164.5 -121.5t-79.5 -335.5q0 -130 49 -205q36 -55 96 -55q84 0 153 104q88 135 88 335q0 150 -40.5 214t-101.5 64z" />
    <glyph glyph-name="p" unicode="p" horiz-adv-x="901" 
d="M189 593l-39 40q91 109 181 161t156 52q25 0 39.5 -12.5t14.5 -36.5q0 -29 -6.5 -59.5t-40.5 -144.5q153 153 209 189q94 61 172 61q51 0 86 -48t35 -145q0 -242 -151 -460t-334 -218q-72 0 -144 39l-85 -330q-8 -30 -8 -49q0 -37 28 -53q43 -25 181 -41l-13 -50
q-161 13 -253 13q-95 0 -246 -13l13 50q76 8 110.5 42t55.5 121l181 759q51 212 51 236q0 26 -25 26q-44 0 -168 -129zM391 121q79 -79 162 -79q120 0 210.5 187t90.5 365q0 57 -25.5 86.5t-68.5 29.5q-48 0 -108 -47q-93 -73 -142 -145q-35 -52 -66 -180z" />
    <glyph glyph-name="q" unicode="q" horiz-adv-x="819" 
d="M892 879h69q-53 -157 -139 -508l-173 -724q-4 -22 -4 -41q0 -27 20.5 -41.5t114.5 -28.5l-17 -55q-103 20 -211 20q-99 0 -271 -20l13 55q94 7 132.5 27t62.5 62t55 169l97 412q-99 -115 -214 -183q-87 -52 -150 -52q-50 0 -85.5 47.5t-35.5 138.5q0 224 182 456.5
t406 232.5q47 0 113 -14zM763 711q-72 20 -126 20q-88 0 -156.5 -52t-123.5 -188.5t-55 -267.5q0 -58 26 -90t65 -32q35 0 89 38q100 70 151 145q36 52 72 199z" />
    <glyph glyph-name="r" unicode="r" horiz-adv-x="614" 
d="M359 0h-149l70 269q51 198 89 376q9 44 9 55q0 24 -22 24q-15 0 -46 -20.5t-112 -101.5l-31 35q96 103 191.5 154.5t146.5 51.5q18 0 28.5 -8.5t10.5 -21.5t-13 -69l-43 -179q101 159 228 272q61 54 102 54q30 0 50 -19.5t20 -45.5q0 -27 -19.5 -46t-97.5 -45
q-74 -25 -120.5 -60t-102 -107t-77.5 -125.5t-67 -248.5z" />
    <glyph glyph-name="s" unicode="s" horiz-adv-x="655" 
d="M613 842q89 0 137.5 -34.5t48.5 -79.5q0 -27 -20.5 -47t-49.5 -20q-19 0 -33 8.5t-40 42.5q-49 65 -97 65q-41 0 -72.5 -31.5t-31.5 -78.5q0 -41 20 -79.5t101 -124.5q111 -118 111 -224t-90 -185.5t-232 -79.5q-119 0 -177 48.5t-58 119.5q0 35 22 58t54 23
q28 0 48 -18.5t20 -43.5q0 -10 -2 -26q-1 -13 -1 -22q0 -33 28 -56q27 -23 74 -23q54 0 95 18.5t64 56t23 74.5q0 36 -21.5 72t-96.5 119q-104 116 -104 223q0 98 79 171.5t201 73.5z" />
    <glyph glyph-name="t" unicode="t" horiz-adv-x="655" 
d="M454 995l159 61l-72 -280h207l-16 -71h-207l-88 -335q-41 -151 -41 -210q0 -27 11.5 -39t31.5 -12q31 0 95 37q84 49 160 111l38 -46q-219 -165 -293 -202t-119 -37q-37 0 -58.5 27t-21.5 88q0 72 38 220l103 398h-162l18 71h161z" />
    <glyph glyph-name="u" unicode="u" horiz-adv-x="942" 
d="M850 814h142l-94 -349q-83 -304 -83 -346q0 -19 9 -29t20 -10q17 0 40 15q33 23 125 116l33 -37q-201 -209 -296 -209q-32 0 -54.5 24.5t-22.5 69.5q0 52 22 139q-89 -102 -220 -179q-87 -51 -151 -51q-35 0 -55 23t-20 73q0 39 9 84q13 63 66 253q67 241 67 289
q0 28 -20 28q-18 0 -49 -18.5t-106 -89.5l-44 35q134 120 204.5 157.5t113.5 37.5q24 0 39 -17.5t15 -54.5q0 -69 -72 -339q-64 -243 -64 -277q0 -21 13.5 -36t29.5 -15q56 0 159 92.5t135 210.5z" />
    <glyph glyph-name="v" unicode="v" horiz-adv-x="901" 
d="M635 746q-77 -123 -106.5 -217t-29.5 -187q0 -86 38 -269q221 168 313 314.5t92 252.5q0 31 -23 78q-25 50 -25 74q0 26 18 45.5t43 19.5q33 0 53 -28.5t20 -96.5q0 -213 -151 -415q-185 -248 -469 -382q-7 47 -28 150q-41 207 -41 288q0 107 50 207.5t148 174.5
q-176 -3 -252 -39q-54 -26 -54 -61q0 -14 14 -47q9 -23 9 -39t-13.5 -28.5t-33.5 -12.5q-26 0 -44 22t-18 59q0 59 39 106.5t135 74.5t254 25q64 28 81 28q16 0 29 -13t13 -28q0 -31 -61 -56z" />
    <glyph glyph-name="w" unicode="w" horiz-adv-x="1393" 
d="M587 813q46 32 70 32q19 0 31 -12.5t12 -30.5q0 -39 -59 -54l-77 -151q-29 -63 -43.5 -126t-14.5 -129q0 -83 40 -266q154 102 287 273q-1 43 -1 63q0 220 65 347q43 84 95 84q31 0 51.5 -26.5t20.5 -78.5q0 -42 -16 -97q-27 -90 -64 -165q0 -252 38 -400q120 82 233 206
q83 91 126 189.5t43 161.5q0 31 -22 80q-25 57 -25 83t19 44.5t46 18.5q33 0 52.5 -31.5t19.5 -112.5q0 -206 -179 -432t-437 -349q-32 109 -59 324q-136 -136 -169 -163q-66 -55 -127.5 -93.5t-131.5 -67.5q-7 57 -32 184q-35 179 -35 256q0 104 50.5 204.5t151.5 176.5
q-181 -5 -258 -42q-52 -25 -52 -60q0 -13 12 -42q11 -27 11 -40q0 -18 -13 -31t-33 -13q-26 0 -44 23t-18 65q0 80 72 130q104 73 364 68z" />
    <glyph glyph-name="x" unicode="x" horiz-adv-x="860" 
d="M268 639l-29 40q106 90 185 132q53 29 79 29q38 0 61 -38q33 -54 65 -236q124 182 219 251t159 69q33 0 53 -19t20 -47q0 -31 -28 -51q-20 -14 -109 -20q-73 -4 -128 -49q-88 -73 -170 -213l64 -299q41 -197 86 -292t110 -146q37 -29 82 -29q64 0 93 78q19 51 61 51
q20 0 35 -16.5t15 -41.5q0 -49 -55.5 -90t-142.5 -41q-96 0 -183.5 60.5t-151 194t-117.5 424.5l-64 -90q-126 -178 -195 -229t-132 -51q-44 0 -73 24.5t-29 58.5q0 28 19 48.5t44 20.5q26 0 53 -34q23 -30 44 -30q14 0 31 9q25 14 67 60q60 65 92 112l124 183l-41 187
q-16 76 -32.5 97.5t-36.5 21.5q-15 0 -42 -16q-58 -33 -102 -73z" />
    <glyph glyph-name="y" unicode="y" horiz-adv-x="819" 
d="M171 638l-32 47l74 50q108 74 152 95q25 12 46 12t40 -24q88 -111 148 -299.5t60 -365.5q0 -23 -2 -70q169 311 169 494q0 38 -17 101q-18 70 -18 100q0 29 18.5 48t46.5 19q35 0 56.5 -27t21.5 -77q0 -129 -59 -321.5t-185.5 -414t-231 -329t-202 -154t-184.5 -46.5
q-66 0 -99.5 24.5t-33.5 58.5q0 30 26 51.5t70 21.5q34 0 93 -13q63 -14 86 -14q61 0 129 51q93 70 147.5 167t54.5 196q0 139 -40.5 334t-114.5 298q-37 53 -79 53q-49 0 -140 -66z" />
    <glyph glyph-name="z" unicode="z" horiz-adv-x="901" 
d="M806 737q-91 -25 -167 -25q-42 0 -93 5q-71 8 -95 8q-30 0 -46 -14t-16 -36q0 -34 36 -37q45 -5 45 -41q0 -17 -14 -30.5t-32 -13.5q-36 0 -66.5 35.5t-30.5 88.5q0 68 57 117t141 49q44 0 119 -12q121 -19 174 -19q54 0 101 36q22 16 36 16q12 0 20.5 -7.5t8.5 -14.5
q0 -10 -11 -22q-34 -42 -155 -158l-310 -297l-226 -210q57 6 89 6q45 0 82 -7.5t119 -34.5q107 -37 174 -37q42 0 64.5 19.5t22.5 49.5q0 17 -16 48q-14 30 -14 46q0 24 16 41t40 17q29 0 48.5 -23.5t19.5 -60.5q0 -56 -41 -117.5t-103 -94.5t-153 -33q-75 0 -219 43
q-120 35 -176 35q-34 0 -79 -36q-26 -22 -45 -22q-37 0 -37 18q0 17 21 41q56 66 284 273l270 255z" />
    <glyph glyph-name="braceleft" unicode="{" horiz-adv-x="491" 
d="M862 1378l-8 -34q-130 -11 -181 -74q-67 -85 -125 -354q-48 -229 -61 -264q-24 -67 -60 -103q-27 -27 -77 -41q69 -42 69 -112q0 -29 -8 -68q-4 -26 -50 -201q-50 -190 -58.5 -238.5t-8.5 -86.5q0 -52 41 -86t123 -37l-8 -38q-155 3 -213.5 45.5t-58.5 118.5q0 83 74 359
q52 199 52 236q0 44 -20.5 69.5t-75.5 38.5q59 7 96.5 36t53.5 68q11 28 63 249q62 262 85 323q36 97 112.5 144t243.5 50z" />
    <glyph glyph-name="bar" unicode="|" horiz-adv-x="1065" 
d="M667 -499v1907h111v-1907h-111z" />
    <glyph glyph-name="braceright" unicode="}" horiz-adv-x="491" 
d="M-78 -359l7 34q131 11 181 74q68 84 125 354q49 229 62 264q24 67 60 103q27 26 77 41q-69 41 -69 112q0 29 7 68q5 26 51 200q49 190 58 239t9 86q0 53 -41 86.5t-123 37.5l8 38q155 -4 213.5 -46t58.5 -118q0 -83 -74 -359q-53 -199 -53 -236q0 -44 21 -69.5t75 -38.5
q-58 -7 -96 -36t-53 -68q-11 -28 -63 -249q-62 -262 -85 -324q-36 -96 -112.5 -143t-243.5 -50z" />
    <glyph glyph-name="asciitilde" unicode="~" horiz-adv-x="1065" 
d="M1104 734l62 -69q-61 -106 -122.5 -149t-124.5 -43q-27 0 -61.5 9.5t-175.5 65.5q-110 44 -152 44q-50 0 -91.5 -32t-95.5 -126l-62 72q71 121 127 162t123 41q62 0 216 -64q135 -55 173 -55q98 0 184 144z" />
    <glyph glyph-name="Adieresis" unicode="&#xc4;" horiz-adv-x="1270" 
d="M1299 44l-10 -57q-36 -3 -63 -3q-39 0 -94 6q-94 10 -119 10q-42 0 -129 -13q31 78 52 164q15 61 32 210q-117 1 -363 -5q-254 -388 -372.5 -487.5t-225.5 -99.5q-56 0 -83.5 21.5t-27.5 55.5q0 26 16 43t40 17q14 0 38 -5q60 -14 80 -14q67 0 148 76q132 124 390 520
q292 448 473 652q-247 -22 -308 -42q-84 -27 -126 -80t-42 -108q0 -18 13 -51q14 -37 14 -54q0 -22 -17 -39t-41 -17q-34 0 -54.5 25.5t-20.5 76.5q0 72 37.5 139.5t107.5 113t175 69.5q54 13 190 23q118 10 148 19q47 13 90 51q-30 -123 -43 -215l-78 -578l-45 -414
q74 -19 133 -19q39 0 85 9zM977 435q48 406 96 593q-127 -168 -157 -212l-257 -381q83 -3 237 -3q38 0 81 3zM1040 1510q38 0 65.5 -27t27.5 -66q0 -38 -27.5 -65.5t-65.5 -27.5t-65.5 27.5t-27.5 65.5q0 39 27.5 66t65.5 27zM1329 1509q39 0 66 -27t27 -65q0 -39 -27 -66
t-66 -27q-38 0 -65 27t-27 66q0 38 27 65t65 27z" />
    <glyph glyph-name="Aring" unicode="&#xc5;" horiz-adv-x="1270" 
d="M1104 1199q-41 22 -65.5 63.5t-24.5 89.5q0 72 51 123.5t124 51.5q72 0 123 -51.5t51 -123.5q0 -60 -37 -107.5t-97 -62.5q-20 -97 -40 -244l-63 -470l-45 -414q74 -19 133 -19q39 0 85 9l-10 -57q-36 -3 -63 -3q-39 0 -94 6q-94 10 -119 10q-42 0 -129 -13q31 78 52 164
q15 61 32 210q-117 1 -363 -5q-254 -388 -372.5 -487.5t-225.5 -99.5q-56 0 -83.5 21.5t-27.5 55.5q0 26 16 43t40 17q14 0 38 -5q60 -14 80 -14q67 0 148 76q132 124 390 520q292 448 473 652q-247 -22 -308 -42q-84 -27 -126 -80t-42 -108q0 -18 13 -51q14 -37 14 -54
q0 -22 -17 -39t-41 -17q-34 0 -54.5 25.5t-20.5 76.5q0 76 41 146.5t118.5 115.5t196.5 67q34 7 240 23zM1188 1457q-43 0 -74 -31t-31 -74q0 -44 31 -75t74 -31q44 0 74.5 31t30.5 75q0 43 -30.5 74t-74.5 31zM977 435q48 406 96 593q-127 -168 -157 -212l-257 -381
q83 -3 237 -3q38 0 68 2z" />
    <glyph glyph-name="Ccedilla" unicode="&#xc7;" horiz-adv-x="1065" 
d="M1192 764h-54q5 78 5 125q0 141 -58.5 196.5t-147.5 55.5q-119 0 -247 -96.5t-220 -301t-92 -420.5q0 -209 85.5 -320.5t214.5 -111.5q175 0 321 210q15 21 31 21q13 0 22 -8.5t9 -19.5q0 -27 -66.5 -106t-167.5 -131.5t-199 -52.5q-118 0 -219 61.5t-157 175.5t-56 271
q0 219 114.5 436t286.5 335t336 118q59 0 117 -13q25 -6 206 -69q-57 -172 -64 -355zM594 -162h65l-61 -113q56 -8 82.5 -37.5t26.5 -69.5q0 -70 -85 -141.5t-240 -96.5l19 60q92 19 148 67q39 33 39 75q0 32 -25 53.5t-61 21.5q-6 0 -16 -1z" />
    <glyph glyph-name="Eacute" unicode="&#xc9;" horiz-adv-x="1270" 
d="M1312 959h-53q8 51 8 81q0 40 -33.5 52.5t-252.5 12.5l-146 -1l-111 -442h207q98 0 120.5 14.5t32.5 72.5h57q-32 -121 -57 -266h-51q5 47 5 73q0 11 -14 27q-7 8 -26 11q-27 5 -84 5h-205q-89 -340 -185 -533q93 29 165 29q120 0 294 -38q92 -21 125 -21q44 0 71 22
t27 50q0 16 -13 52q-8 25 -8 47q0 23 18.5 41t44.5 18q31 0 51.5 -24t20.5 -64q0 -85 -74.5 -149t-196.5 -64q-64 0 -162 11q-215 24 -328 24q-148 0 -346 -24l16 55q118 33 139 48.5t35 45.5q48 95 124.5 381l155.5 604q-120 0 -227 -57t-167 -148.5t-60 -192.5
q0 -43 8.5 -75t38.5 -90q19 -35 19 -57t-18.5 -39t-45.5 -17q-39 0 -62 39q-34 57 -34 155q0 210 159 377t463 167h343q178 0 263 23q-40 -166 -51 -236zM1121 1615h190l-339 -290h-59z" />
    <glyph glyph-name="Ntilde" unicode="&#xd1;" horiz-adv-x="1434" 
d="M915 1204l28 -117q39 -160 77 -280t195 -555q15 55 60 244q58 246 77 309q56 185 108 272t116 125t145 38q65 0 99.5 -25t34.5 -60q0 -25 -18.5 -44t-43.5 -19q-18 0 -42 10q-50 20 -60 23q-18 4 -39 4q-49 0 -84 -33q-62 -58 -136.5 -291t-189.5 -745l-34 -149
q-114 251 -154 356q-54 141 -123 356l-110 346q-20 -120 -93.5 -404.5t-87.5 -327.5q-46 -135 -98.5 -207t-115 -105t-137.5 -33q-94 0 -154 42q-46 31 -46 79q0 21 17 37.5t41 16.5q31 0 67 -33q64 -59 117 -59q57 0 112 51q82 78 158 327q92 301 177 764q-35 0 -134 -20
t-165.5 -56.5t-102 -95t-35.5 -122.5q0 -32 9 -65q6 -22 26 -54q23 -37 23 -56q0 -24 -17.5 -41t-43.5 -17q-38 0 -65 39.5t-27 120.5q0 134 67.5 228t180.5 142q72 30 278 58q76 10 143 26zM1458 1549h57q-28 -92 -82.5 -141t-115.5 -49q-31 0 -56 6q-13 3 -67 29
q-56 26 -71 31q-22 6 -44 6q-27 0 -46 -15t-40 -57h-55q24 99 74.5 144.5t109.5 45.5q44 0 133 -35q84 -33 118 -33q32 0 56.5 19.5t28.5 48.5z" />
    <glyph glyph-name="Odieresis" unicode="&#xd6;" horiz-adv-x="1229" 
d="M899 1197q126 0 227.5 -58.5t157.5 -167t56 -252.5q0 -188 -101 -373t-247 -279t-324 -94q-205 0 -331.5 128t-126.5 337q0 200 101 386.5t248 279.5t340 93zM826 1125q-116 0 -213.5 -68.5t-159.5 -214t-62 -337.5q0 -220 97 -339.5t242 -119.5q108 0 204.5 71
t159 223.5t62.5 350.5q0 205 -95.5 319.5t-234.5 114.5zM814 1510q38 0 65.5 -27t27.5 -66q0 -38 -27.5 -65.5t-65.5 -27.5t-65.5 27.5t-27.5 65.5q0 39 27.5 66t65.5 27zM1103 1509q39 0 66 -27t27 -65q0 -39 -27 -66t-66 -27q-38 0 -65 27t-27 66q0 38 27 65t65 27z" />
    <glyph glyph-name="Udieresis" unicode="&#xdc;" horiz-adv-x="1515" 
d="M928 1195q-101 -178 -199 -453q-69 -195 -69 -326q0 -146 70.5 -227t176.5 -81q100 0 188 50q117 66 216.5 201t162.5 323.5t63 352.5q0 114 -49 216q-26 52 -29 62q-4 14 -4 30q0 30 18.5 49t45.5 19q47 0 74 -50q39 -68 39 -211q0 -306 -134 -609t-309.5 -433
t-368.5 -130q-157 0 -241 104.5t-84 257.5q0 126 39 258q51 173 211 517q-125 3 -224 -30.5t-142.5 -85.5t-43.5 -103q0 -21 23 -57q24 -41 24 -64q0 -29 -18 -48t-45 -19q-33 0 -57.5 30t-24.5 78q0 77 45 154.5t116.5 124.5t176.5 69q52 11 216 20q112 6 137 11z
M1018 1510q38 0 65.5 -27t27.5 -66q0 -38 -27.5 -65.5t-65.5 -27.5t-65.5 27.5t-27.5 65.5q0 39 27.5 66t65.5 27zM1307 1509q39 0 66 -27t27 -65q0 -39 -27 -66t-66 -27q-38 0 -65 27t-27 66q0 38 27 65t65 27z" />
    <glyph glyph-name="aacute" unicode="&#xe1;" horiz-adv-x="860" 
d="M856 858l66 14l-75 -253q-45 -151 -85 -348q-22 -107 -22 -138t25 -31q16 0 51 21q62 37 119 92l32 -39q-114 -104 -146 -126q-64 -44 -122 -65q-38 -14 -74 -14q-26 0 -39 12t-13 35q0 15 8 41l40 136q-86 -103 -205 -177q-73 -46 -134 -46q-58 0 -89 41q-42 55 -42 144
q0 106 56.5 236t151.5 236t200 156q81 38 208 38q32 0 65 -4zM732 705q-54 11 -91 11q-90 0 -157 -49.5t-124.5 -178t-57.5 -256.5q0 -68 23 -98t60 -30q69 0 148 74.5t116 214.5zM795 1253h190l-339 -290h-59z" />
    <glyph glyph-name="agrave" unicode="&#xe0;" horiz-adv-x="860" 
d="M856 858l66 14l-75 -253q-45 -151 -85 -348q-22 -107 -22 -138t25 -31q16 0 51 21q62 37 119 92l32 -39q-114 -104 -146 -126q-64 -44 -122 -65q-38 -14 -74 -14q-26 0 -39 12t-13 35q0 15 8 41l40 136q-86 -103 -205 -177q-73 -46 -134 -46q-58 0 -89 41q-42 55 -42 144
q0 106 56.5 236t151.5 236t200 156q81 38 208 38q32 0 65 -4zM732 705q-54 11 -91 11q-90 0 -157 -49.5t-124.5 -178t-57.5 -256.5q0 -68 23 -98t60 -30q69 0 148 74.5t116 214.5zM516 1252h167l110 -290h-60z" />
    <glyph glyph-name="acircumflex" unicode="&#xe2;" horiz-adv-x="860" 
d="M856 858l66 14l-75 -253q-45 -151 -85 -348q-22 -107 -22 -138t25 -31q16 0 51 21q62 37 119 92l32 -39q-114 -104 -146 -126q-64 -44 -122 -65q-38 -14 -74 -14q-26 0 -39 12t-13 35q0 15 8 41l40 136q-86 -103 -205 -177q-73 -46 -134 -46q-58 0 -89 41q-42 55 -42 144
q0 106 56.5 236t151.5 236t200 156q81 38 208 38q32 0 65 -4zM732 705q-54 11 -91 11q-90 0 -157 -49.5t-124.5 -178t-57.5 -256.5q0 -68 23 -98t60 -30q69 0 148 74.5t116 214.5zM711 1254h151l73 -291h-57l-104 183l-268 -183h-64z" />
    <glyph glyph-name="adieresis" unicode="&#xe4;" horiz-adv-x="860" 
d="M856 858l66 14l-75 -253q-45 -151 -85 -348q-22 -107 -22 -138t25 -31q16 0 51 21q62 37 119 92l32 -39q-114 -104 -146 -126q-64 -44 -122 -65q-38 -14 -74 -14q-26 0 -39 12t-13 35q0 15 8 41l40 136q-86 -103 -205 -177q-73 -46 -134 -46q-58 0 -89 41q-42 55 -42 144
q0 106 56.5 236t151.5 236t200 156q81 38 208 38q32 0 65 -4zM732 705q-54 11 -91 11q-90 0 -157 -49.5t-124.5 -178t-57.5 -256.5q0 -68 23 -98t60 -30q69 0 148 74.5t116 214.5zM593 1147q38 0 65.5 -27t27.5 -66q0 -38 -27.5 -65.5t-65.5 -27.5t-65.5 27.5t-27.5 65.5
q0 39 27.5 66t65.5 27zM882 1146q39 0 66 -27t27 -65q0 -39 -27 -66t-66 -27q-38 0 -65 27t-27 66q0 38 27 65t65 27z" />
    <glyph glyph-name="atilde" unicode="&#xe3;" horiz-adv-x="860" 
d="M856 858l66 14l-75 -253q-45 -151 -85 -348q-22 -107 -22 -138t25 -31q16 0 51 21q62 37 119 92l32 -39q-114 -104 -146 -126q-64 -44 -122 -65q-38 -14 -74 -14q-26 0 -39 12t-13 35q0 15 8 41l40 136q-86 -103 -205 -177q-73 -46 -134 -46q-58 0 -89 41q-42 55 -42 144
q0 106 56.5 236t151.5 236t200 156q81 38 208 38q32 0 65 -4zM732 705q-54 11 -91 11q-90 0 -157 -49.5t-124.5 -178t-57.5 -256.5q0 -68 23 -98t60 -30q69 0 148 74.5t116 214.5zM977 1187h57q-28 -92 -82.5 -141t-115.5 -49q-31 0 -56 6q-13 3 -67 29q-56 26 -71 31
q-22 6 -44 6q-27 0 -46 -15t-40 -57h-55q24 99 74.5 144.5t109.5 45.5q44 0 133 -35q84 -33 118 -33q32 0 56.5 19.5t28.5 48.5z" />
    <glyph glyph-name="aring" unicode="&#xe5;" horiz-adv-x="860" 
d="M856 858l66 14l-75 -253q-45 -151 -85 -348q-22 -107 -22 -138t25 -31q16 0 51 21q62 37 119 92l32 -39q-114 -104 -146 -126q-64 -44 -122 -65q-38 -14 -74 -14q-26 0 -39 12t-13 35q0 15 8 41l40 136q-86 -103 -205 -177q-73 -46 -134 -46q-58 0 -89 41q-42 55 -42 144
q0 106 56.5 236t151.5 236t200 156q81 38 208 38q32 0 65 -4zM732 705q-54 11 -91 11q-90 0 -157 -49.5t-124.5 -178t-57.5 -256.5q0 -68 23 -98t60 -30q69 0 148 74.5t116 214.5zM744 1283q72 0 123 -51.5t51 -123.5t-51 -123.5t-123 -51.5q-73 0 -124 51.5t-51 123.5
t51 123.5t124 51.5zM743 1213q-43 0 -74 -31t-31 -74q0 -44 31 -75t74 -31q44 0 74.5 31t30.5 75q0 43 -30.5 74t-74.5 31z" />
    <glyph glyph-name="ccedilla" unicode="&#xe7;" horiz-adv-x="696" 
d="M723 217l21 -58q-238 -187 -402 -187q-87 0 -126.5 62t-39.5 157q0 158 84 325t204 256q94 69 212 69q74 0 112 -28t38 -68q0 -31 -20 -50.5t-56 -19.5q-35 0 -90 32q-57 34 -95 34q-49 0 -97.5 -44.5t-92.5 -172.5t-44 -257q0 -95 37 -147q27 -40 76 -40q117 0 279 137z
M374 19h65l-61 -113q56 -8 82.5 -37.5t26.5 -69.5q0 -70 -85 -141.5t-240 -96.5l19 60q92 19 148 67q39 33 39 75q0 32 -25 53.5t-61 21.5q-6 0 -16 -1z" />
    <glyph glyph-name="eacute" unicode="&#xe9;" horiz-adv-x="696" 
d="M698 251l33 -44q-245 -233 -420 -233q-71 0 -108.5 48t-37.5 154q0 214 130 426q146 241 349 241q71 0 108.5 -35.5t37.5 -97.5q0 -65 -45 -128t-161 -131q-58 -33 -248 -119q-9 -54 -9 -103q0 -71 22.5 -99t65.5 -28q41 0 90 23q66 31 193 126zM348 396q161 72 242 155
q55 58 55 115q0 43 -22.5 68.5t-58.5 25.5q-37 0 -72 -28q-47 -37 -79 -112q-46 -110 -65 -224zM713 1253h190l-339 -290h-59z" />
    <glyph glyph-name="egrave" unicode="&#xe8;" horiz-adv-x="696" 
d="M698 251l33 -44q-245 -233 -420 -233q-71 0 -108.5 48t-37.5 154q0 214 130 426q146 241 349 241q71 0 108.5 -35.5t37.5 -97.5q0 -65 -45 -128t-161 -131q-58 -33 -248 -119q-9 -54 -9 -103q0 -71 22.5 -99t65.5 -28q41 0 90 23q66 31 193 126zM348 396q161 72 242 155
q55 58 55 115q0 43 -22.5 68.5t-58.5 25.5q-37 0 -72 -28q-47 -37 -79 -112q-46 -110 -65 -224zM434 1252h167l110 -290h-60z" />
    <glyph glyph-name="ecircumflex" unicode="&#xea;" horiz-adv-x="696" 
d="M698 251l33 -44q-245 -233 -420 -233q-71 0 -108.5 48t-37.5 154q0 214 130 426q146 241 349 241q71 0 108.5 -35.5t37.5 -97.5q0 -65 -45 -128t-161 -131q-58 -33 -248 -119q-9 -54 -9 -103q0 -71 22.5 -99t65.5 -28q41 0 90 23q66 31 193 126zM348 396q161 72 242 155
q55 58 55 115q0 43 -22.5 68.5t-58.5 25.5q-37 0 -72 -28q-47 -37 -79 -112q-46 -110 -65 -224zM629 1254h151l73 -291h-57l-104 183l-268 -183h-64z" />
    <glyph glyph-name="edieresis" unicode="&#xeb;" horiz-adv-x="696" 
d="M698 251l33 -44q-245 -233 -420 -233q-71 0 -108.5 48t-37.5 154q0 214 130 426q146 241 349 241q71 0 108.5 -35.5t37.5 -97.5q0 -65 -45 -128t-161 -131q-58 -33 -248 -119q-9 -54 -9 -103q0 -71 22.5 -99t65.5 -28q41 0 90 23q66 31 193 126zM348 396q161 72 242 155
q55 58 55 115q0 43 -22.5 68.5t-58.5 25.5q-37 0 -72 -28q-47 -37 -79 -112q-46 -110 -65 -224zM511 1147q38 0 65.5 -27t27.5 -66q0 -38 -27.5 -65.5t-65.5 -27.5t-65.5 27.5t-27.5 65.5q0 39 27.5 66t65.5 27zM800 1146q39 0 66 -27t27 -65q0 -39 -27 -66t-66 -27
q-38 0 -65 27t-27 66q0 38 27 65t65 27z" />
    <glyph glyph-name="iacute" unicode="&#xed;" horiz-adv-x="491" 
d="M206 609l-44 34q100 110 182.5 156.5t140.5 46.5q32 0 49 -14t17 -38q0 -29 -65 -246q-106 -355 -106 -428q0 -14 7 -23.5t15 -9.5q10 0 32 14q56 37 99 80q20 19 33 30l40 -38q-122 -111 -148 -130q-57 -42 -106 -61q-25 -10 -49 -10q-36 0 -56.5 21.5t-20.5 61.5
q0 72 40 224q69 269 109 387q8 24 8 41q0 20 -18 20q-20 0 -45.5 -16t-113.5 -102zM611 1253h190l-339 -290h-59z" />
    <glyph glyph-name="igrave" unicode="&#xec;" horiz-adv-x="491" 
d="M206 609l-44 34q100 110 182.5 156.5t140.5 46.5q32 0 49 -14t17 -38q0 -29 -65 -246q-106 -355 -106 -428q0 -14 7 -23.5t15 -9.5q10 0 32 14q56 37 99 80q20 19 33 30l40 -38q-122 -111 -148 -130q-57 -42 -106 -61q-25 -10 -49 -10q-36 0 -56.5 21.5t-20.5 61.5
q0 72 40 224q69 269 109 387q8 24 8 41q0 20 -18 20q-20 0 -45.5 -16t-113.5 -102zM332 1252h167l110 -290h-60z" />
    <glyph glyph-name="icircumflex" unicode="&#xee;" horiz-adv-x="491" 
d="M206 609l-44 34q100 110 182.5 156.5t140.5 46.5q32 0 49 -14t17 -38q0 -29 -65 -246q-106 -355 -106 -428q0 -14 7 -23.5t15 -9.5q10 0 32 14q56 37 99 80q20 19 33 30l40 -38q-122 -111 -148 -130q-57 -42 -106 -61q-25 -10 -49 -10q-36 0 -56.5 21.5t-20.5 61.5
q0 72 40 224q69 269 109 387q8 24 8 41q0 20 -18 20q-20 0 -45.5 -16t-113.5 -102zM527 1254h151l73 -291h-57l-104 183l-268 -183h-64z" />
    <glyph glyph-name="idieresis" unicode="&#xef;" horiz-adv-x="491" 
d="M206 609l-44 34q100 110 182.5 156.5t140.5 46.5q32 0 49 -14t17 -38q0 -29 -65 -246q-106 -355 -106 -428q0 -14 7 -23.5t15 -9.5q10 0 32 14q56 37 99 80q20 19 33 30l40 -38q-122 -111 -148 -130q-57 -42 -106 -61q-25 -10 -49 -10q-36 0 -56.5 21.5t-20.5 61.5
q0 72 40 224q69 269 109 387q8 24 8 41q0 20 -18 20q-20 0 -45.5 -16t-113.5 -102zM409 1147q38 0 65.5 -27t27.5 -66q0 -38 -27.5 -65.5t-65.5 -27.5t-65.5 27.5t-27.5 65.5q0 39 27.5 66t65.5 27zM698 1146q39 0 66 -27t27 -65q0 -39 -27 -66t-66 -27q-38 0 -65 27t-27 66
q0 38 27 65t65 27z" />
    <glyph glyph-name="ntilde" unicode="&#xf1;" horiz-adv-x="942" 
d="M204 607l-34 35q128 122 204 162t130 40q21 0 33 -9t12 -21q0 -9 -5 -32l-45 -201q102 113 256 211q82 51 135 51q39 0 61 -25t22 -72q0 -31 -9 -70q-16 -65 -84 -283q-64 -204 -64 -271q0 -20 6 -30t17 -10q29 0 91 56q44 40 88 74l25 -36q-92 -102 -191 -164
q-63 -40 -104 -40q-38 0 -59 27.5t-21 89.5q0 89 111 443q34 126 34 147q0 31 -37 31q-40 0 -103 -42q-94 -62 -157 -146q-40 -54 -67 -172l-81 -349h-149q42 150 73 287l89 380q5 23 5 33q0 27 -20 27q-16 0 -46 -21q-62 -41 -116 -100zM1018 1187h57q-28 -92 -82.5 -141
t-115.5 -49q-31 0 -56 6q-13 3 -67 29q-56 26 -71 31q-22 6 -44 6q-27 0 -46 -15t-40 -57h-55q24 99 74.5 144.5t109.5 45.5q44 0 133 -35q84 -33 118 -33q32 0 56.5 19.5t28.5 48.5z" />
    <glyph glyph-name="oacute" unicode="&#xf3;" horiz-adv-x="819" 
d="M670 841q98 0 163 -78t65 -217q0 -222 -156 -398.5t-330 -176.5q-107 0 -172.5 70t-65.5 191q0 210 120 388q151 221 376 221zM585 766q-85 0 -164.5 -121.5t-79.5 -335.5q0 -130 49 -205q36 -55 96 -55q84 0 153 104q88 135 88 335q0 150 -40.5 214t-101.5 64zM775 1253
h190l-339 -290h-59z" />
    <glyph glyph-name="ograve" unicode="&#xf2;" horiz-adv-x="819" 
d="M670 841q98 0 163 -78t65 -217q0 -222 -156 -398.5t-330 -176.5q-107 0 -172.5 70t-65.5 191q0 210 120 388q151 221 376 221zM585 766q-85 0 -164.5 -121.5t-79.5 -335.5q0 -130 49 -205q36 -55 96 -55q84 0 153 104q88 135 88 335q0 150 -40.5 214t-101.5 64zM496 1252
h167l110 -290h-60z" />
    <glyph glyph-name="ocircumflex" unicode="&#xf4;" horiz-adv-x="819" 
d="M670 841q98 0 163 -78t65 -217q0 -222 -156 -398.5t-330 -176.5q-107 0 -172.5 70t-65.5 191q0 210 120 388q151 221 376 221zM585 766q-85 0 -164.5 -121.5t-79.5 -335.5q0 -130 49 -205q36 -55 96 -55q84 0 153 104q88 135 88 335q0 150 -40.5 214t-101.5 64zM691 1254
h151l73 -291h-57l-104 183l-268 -183h-64z" />
    <glyph glyph-name="odieresis" unicode="&#xf6;" horiz-adv-x="819" 
d="M670 841q98 0 163 -78t65 -217q0 -222 -156 -398.5t-330 -176.5q-107 0 -172.5 70t-65.5 191q0 210 120 388q151 221 376 221zM585 766q-85 0 -164.5 -121.5t-79.5 -335.5q0 -130 49 -205q36 -55 96 -55q84 0 153 104q88 135 88 335q0 150 -40.5 214t-101.5 64zM574 1147
q38 0 65.5 -27t27.5 -66q0 -38 -27.5 -65.5t-65.5 -27.5t-65.5 27.5t-27.5 65.5q0 39 27.5 66t65.5 27zM863 1146q39 0 66 -27t27 -65q0 -39 -27 -66t-66 -27q-38 0 -65 27t-27 66q0 38 27 65t65 27z" />
    <glyph glyph-name="otilde" unicode="&#xf5;" horiz-adv-x="819" 
d="M670 841q98 0 163 -78t65 -217q0 -222 -156 -398.5t-330 -176.5q-107 0 -172.5 70t-65.5 191q0 210 120 388q151 221 376 221zM585 766q-85 0 -164.5 -121.5t-79.5 -335.5q0 -130 49 -205q36 -55 96 -55q84 0 153 104q88 135 88 335q0 150 -40.5 214t-101.5 64zM958 1187
h57q-28 -92 -82.5 -141t-115.5 -49q-31 0 -56 6q-13 3 -67 29q-56 26 -71 31q-22 6 -44 6q-27 0 -46 -15t-40 -57h-55q24 99 74.5 144.5t109.5 45.5q44 0 133 -35q84 -33 118 -33q32 0 56.5 19.5t28.5 48.5z" />
    <glyph glyph-name="uacute" unicode="&#xfa;" horiz-adv-x="942" 
d="M850 814h142l-94 -349q-83 -304 -83 -346q0 -19 9 -29t20 -10q17 0 40 15q33 23 125 116l33 -37q-201 -209 -296 -209q-32 0 -54.5 24.5t-22.5 69.5q0 52 22 139q-89 -102 -220 -179q-87 -51 -151 -51q-35 0 -55 23t-20 73q0 39 9 84q13 63 66 253q67 241 67 289
q0 28 -20 28q-18 0 -49 -18.5t-106 -89.5l-44 35q134 120 204.5 157.5t113.5 37.5q24 0 39 -17.5t15 -54.5q0 -69 -72 -339q-64 -243 -64 -277q0 -21 13.5 -36t29.5 -15q56 0 159 92.5t135 210.5zM836 1253h190l-339 -290h-59z" />
    <glyph glyph-name="ugrave" unicode="&#xf9;" horiz-adv-x="942" 
d="M850 814h142l-94 -349q-83 -304 -83 -346q0 -19 9 -29t20 -10q17 0 40 15q33 23 125 116l33 -37q-201 -209 -296 -209q-32 0 -54.5 24.5t-22.5 69.5q0 52 22 139q-89 -102 -220 -179q-87 -51 -151 -51q-35 0 -55 23t-20 73q0 39 9 84q13 63 66 253q67 241 67 289
q0 28 -20 28q-18 0 -49 -18.5t-106 -89.5l-44 35q134 120 204.5 157.5t113.5 37.5q24 0 39 -17.5t15 -54.5q0 -69 -72 -339q-64 -243 -64 -277q0 -21 13.5 -36t29.5 -15q56 0 159 92.5t135 210.5zM557 1252h167l110 -290h-60z" />
    <glyph glyph-name="ucircumflex" unicode="&#xfb;" horiz-adv-x="942" 
d="M850 814h142l-94 -349q-83 -304 -83 -346q0 -19 9 -29t20 -10q17 0 40 15q33 23 125 116l33 -37q-201 -209 -296 -209q-32 0 -54.5 24.5t-22.5 69.5q0 52 22 139q-89 -102 -220 -179q-87 -51 -151 -51q-35 0 -55 23t-20 73q0 39 9 84q13 63 66 253q67 241 67 289
q0 28 -20 28q-18 0 -49 -18.5t-106 -89.5l-44 35q134 120 204.5 157.5t113.5 37.5q24 0 39 -17.5t15 -54.5q0 -69 -72 -339q-64 -243 -64 -277q0 -21 13.5 -36t29.5 -15q56 0 159 92.5t135 210.5zM752 1254h151l73 -291h-57l-104 183l-268 -183h-64z" />
    <glyph glyph-name="udieresis" unicode="&#xfc;" horiz-adv-x="942" 
d="M850 814h142l-94 -349q-83 -304 -83 -346q0 -19 9 -29t20 -10q17 0 40 15q33 23 125 116l33 -37q-201 -209 -296 -209q-32 0 -54.5 24.5t-22.5 69.5q0 52 22 139q-89 -102 -220 -179q-87 -51 -151 -51q-35 0 -55 23t-20 73q0 39 9 84q13 63 66 253q67 241 67 289
q0 28 -20 28q-18 0 -49 -18.5t-106 -89.5l-44 35q134 120 204.5 157.5t113.5 37.5q24 0 39 -17.5t15 -54.5q0 -69 -72 -339q-64 -243 -64 -277q0 -21 13.5 -36t29.5 -15q56 0 159 92.5t135 210.5zM635 1147q38 0 65.5 -27t27.5 -66q0 -38 -27.5 -65.5t-65.5 -27.5
t-65.5 27.5t-27.5 65.5q0 39 27.5 66t65.5 27zM924 1146q39 0 66 -27t27 -65q0 -39 -27 -66t-66 -27q-38 0 -65 27t-27 66q0 38 27 65t65 27z" />
    <glyph glyph-name="dagger" unicode="&#x2020;" horiz-adv-x="942" 
d="M602 897l101 447q8 35 13.5 40.5t32.5 11.5q69 14 89 14q25 0 25 -22q0 -7 -8 -36l-128 -455q224 44 281 44q35 0 35 -26q0 -11 -8 -47q-10 -43 -18 -54q-7 -10 -22 -10q-46 0 -283 36l-336 -1229q-11 -39 -19.5 -49t-21.5 -10q-21 0 -21 28q0 9 3 22l272 1238
q-219 -36 -277 -36q-14 0 -24.5 8.5t-10.5 19.5q0 14 10 48l13 44q5 15 26 15q60 0 276 -42z" />
    <glyph glyph-name="degree" unicode="&#xb0;" horiz-adv-x="819" 
d="M684 1197q110 0 188.5 -78t78.5 -190q0 -114 -78.5 -192t-190.5 -78t-190 78t-78 193q0 111 79.5 189t190.5 78zM682 1101q-70 0 -121 -51t-51 -122q0 -70 51.5 -121.5t122.5 -51.5q70 0 120 50.5t50 122.5q0 73 -49.5 123t-122.5 50z" />
    <glyph glyph-name="cent" unicode="&#xa2;" horiz-adv-x="901" 
d="M856 827q62 -26 62 -82q0 -32 -21.5 -51t-60.5 -19q-25 0 -59 18l-327 -555q20 -59 90 -59q27 0 70 13t87 39t116 84l23 -58l-92 -61q-96 -65 -155 -90q-87 -35 -158 -35q-34 0 -70 16l-174 -296h-64l194 330q-51 63 -51 178q0 151 85.5 318.5t205.5 254.5q93 69 212 69
q15 0 28 -2l127 216h66zM427 209l300 511q-41 21 -71 21q-49 0 -94.5 -41t-93 -179.5t-47.5 -250.5q0 -25 6 -61z" />
    <glyph glyph-name="sterling" unicode="&#xa3;" horiz-adv-x="983" 
d="M797 552l-23 -63h-232q-64 -244 -153 -377q56 11 93 11q53 0 168 -19q109 -18 152 -18q58 0 94.5 39t52.5 134h55q-13 -157 -69 -220.5t-163 -63.5q-53 0 -131 8q-206 23 -270 23q-103 0 -266 -34l6 56q100 26 132.5 48.5t53.5 63.5t50 178q10 48 42 171h-171l18 63h170
q104 368 280 554q131 139 307 139q84 0 117 -20.5t33 -53.5q0 -26 -17.5 -42.5t-42.5 -16.5q-13 0 -37 6q-110 27 -170 27q-99 0 -159 -117q-87 -170 -159 -476h239z" />
    <glyph glyph-name="section" unicode="&#xa7;" horiz-adv-x="860" 
d="M913 1411q111 0 172.5 -46t61.5 -103q0 -25 -18.5 -42.5t-45.5 -17.5q-20 0 -34.5 9t-38.5 40q-70 94 -150 94q-66 0 -109 -52t-43 -157q0 -64 10 -131t46 -222q55 -242 55 -394q0 -357 -229 -582q-179 -175 -393 -175q-119 0 -200 51q-57 36 -57 86q0 27 17 45t39 18
q17 0 30.5 -6.5t60.5 -43.5q103 -80 175 -80q83 0 136.5 75t53.5 234q0 75 -6 130q-3 24 -40 209q-42 215 -49 268q-9 72 -9 135q0 171 84.5 332.5t209.5 243.5t271 82zM664 1276q-116 -114 -166 -237t-50 -274q0 -59 7.5 -121.5t40.5 -237.5q31 -162 36 -208q8 -74 8 -146
q0 -124 -58 -269q128 120 182 251.5t54 316.5q0 88 -7 155q-3 30 -36 192q-38 183 -44 236q-9 77 -9 152q0 95 42 190z" />
    <glyph glyph-name="bullet" unicode="&#x2022;" horiz-adv-x="1229" 
d="M819 939q127 0 217 -90t90 -217t-90 -217t-217 -90t-217 90t-90 217t90 217t217 90z" />
    <glyph glyph-name="paragraph" unicode="&#xb6;" horiz-adv-x="1024" 
d="M962 1287h83l-27 -116h145l-19 -65h-144l-130 -518h202l-19 -69h-203l-111 -434q-111 -431 -428 -431q-100 0 -154.5 39.5t-54.5 90.5q0 26 19 46.5t43 20.5q35 0 72 -36q42 -40 63 -49q41 -16 76 -16q52 0 108 35.5t100 114t83 227.5l100 392h-38q-174 0 -260.5 75
t-86.5 200q0 156 127.5 266.5t361.5 110.5h63zM914 1106q-115 -6 -168.5 -39.5t-98.5 -122t-45 -177.5q0 -79 62 -138q36 -34 119 -41z" />
    <glyph glyph-name="germandbls" unicode="&#xdf;" horiz-adv-x="860" 
d="M144 -100l254 1023q71 285 172 387t246 102q103 0 166.5 -58t63.5 -142q0 -64 -23 -115q-33 -71 -112 -167q-92 -112 -121 -166q-21 -39 -21 -67q0 -45 40 -116q72 -124 89 -176t17 -114q0 -83 -41 -157.5t-114 -123.5q-53 -35 -128 -35q-85 0 -135 42t-50 102
q0 42 22.5 66.5t55.5 24.5q30 0 49 -18.5t19 -45.5q0 -11 -4 -26q-4 -18 -4 -29q0 -21 19 -35q18 -14 52 -14q59 0 99.5 43.5t40.5 107.5q0 94 -73 226q-70 126 -76 142q-11 27 -11 49q0 40 17.5 78.5t102.5 155.5q169 229 169 362q0 69 -34.5 106t-92.5 37
q-75 0 -130.5 -68t-108.5 -285l-213 -873q-81 -332 -241 -489t-351 -157q-70 0 -101.5 23t-31.5 58q0 34 24 53.5t77 19.5q23 0 83 -8q58 -8 89 -8q110 0 151 42q52 54 99 243z" />
    <glyph glyph-name="registered" unicode="&#xae;" horiz-adv-x="1515" 
d="M920 1411q197 0 367 -98t268.5 -268t98.5 -367t-98.5 -367t-268.5 -268t-367 -98q-196 0 -366 98t-268.5 268t-98.5 367t98.5 367t268.5 268t366 98zM920 1338q-176 0 -329.5 -88.5t-241.5 -241.5t-88 -330t88 -330t241.5 -241.5t329.5 -88.5q177 0 330.5 88.5
t241.5 241.5t88 330t-88 330t-241.5 241.5t-330.5 88.5zM528 1114h386q142 0 220 -64t78 -160q0 -82 -55.5 -137.5t-167.5 -84.5l209 -298q36 -51 66 -71q20 -14 55 -17v-33h-183l-295 405h-76v-309q7 -34 30 -48.5t88 -14.5v-33h-367v33q48 0 68.5 11.5t30.5 36.5
q5 14 5 90v523q0 77 -5 91q-7 21 -25.5 32.5t-61.5 11.5v36zM765 697h30q131 0 193 51t62 131q0 81 -56.5 136t-144.5 55q-38 0 -84 -16v-357z" />
    <glyph glyph-name="copyright" unicode="&#xa9;" horiz-adv-x="1515" 
d="M920 1411q197 0 367 -98t268.5 -268t98.5 -367t-98.5 -367t-268.5 -268t-367 -98q-196 0 -366 98t-268.5 268t-98.5 367t98.5 367t268.5 268t366 98zM920 1338q-176 0 -329.5 -88.5t-241.5 -241.5t-88 -330t88 -330t241.5 -241.5t329.5 -88.5q177 0 330.5 88.5
t241.5 241.5t88 330t-88 330t-241.5 241.5t-330.5 88.5zM1271 1134l20 -280h-39q-36 118 -114 177t-189 59q-94 0 -167.5 -46.5t-113.5 -132.5t-40 -210q0 -209 89.5 -311t241.5 -102q195 0 312 162l37 -19q-139 -203 -383 -203q-199 0 -331 129t-132 315q0 194 141 328.5
t357 134.5q46 0 76.5 -6t108.5 -32q25 -8 38 -8q30 0 48 45h40z" />
    <glyph glyph-name="trademark" unicode="&#x2122;" horiz-adv-x="2048" 
d="M194 1181h728l22 -201h-34q-10 73 -53 107t-141 34h-75v-579q0 -83 19.5 -106t86.5 -26v-36h-374v36q66 6 83 27.5t17 103.5v580h-76q-94 0 -134.5 -31t-55.5 -110h-34zM1299 1181l273 -572l265 572h279v-37q-57 -1 -75 -11.5t-27 -32t-9 -91.5v-468q0 -85 19 -106
t92 -25v-36h-398v36q59 1 79.5 12t30 32t9.5 86v492l-307 -658h-32l-308 649v-482q0 -66 7 -84q9 -25 28 -36t58 -11h36v-36h-306v36q56 0 75.5 10t28.5 31.5t9 89.5v466q0 74 -8 94.5t-29 31.5t-76 11v37h286z" />
    <glyph glyph-name="acute" unicode="&#xb4;" horiz-adv-x="614" 
d="M672 1253h190l-339 -290h-59z" />
    <glyph glyph-name="dieresis" unicode="&#xa8;" horiz-adv-x="737" 
d="M532 1147q38 0 65.5 -27t27.5 -66q0 -38 -27.5 -65.5t-65.5 -27.5t-65.5 27.5t-27.5 65.5q0 39 27.5 66t65.5 27zM821 1146q39 0 66 -27t27 -65q0 -39 -27 -66t-66 -27q-38 0 -65 27t-27 66q0 38 27 65t65 27z" />
    <glyph glyph-name="notequal" unicode="&#x2260;" horiz-adv-x="1124" 
d="M871 700l-142 -229h459v-113h-528l-229 -371h-109l229 371h-248v113h318l141 229h-459v113h528l229 371h109l-229 -371h248v-113h-317z" />
    <glyph glyph-name="AE" unicode="&#xc6;" horiz-adv-x="1515" 
d="M1561 938h-51q10 68 10 97q0 49 -25.5 64t-157.5 15q-103 0 -173 -7l-113 -440h126q111 0 130 12.5t41 89.5h53q-54 -164 -69 -293h-51q11 59 11 81q0 24 -23 36.5t-105 12.5h-129l-91 -355q-28 -111 -47 -173q124 20 182 20q47 0 146 -14q126 -18 201 -18q48 0 70 15.5
t22 38.5q0 16 -14 39q-31 53 -31 74q0 25 17 41t43 16q33 0 55 -26.5t22 -74.5q0 -94 -72 -154t-202 -60q-72 0 -223 17q-134 15 -209 15q-148 0 -287 -31l18 56q18 5 27 7q41 10 57.5 23.5t33.5 53.5q12 29 47 160q20 75 35 124h-306l-208 -331q-85 -132 -166 -189
q-60 -42 -116 -42q-46 0 -73 23t-27 53q0 22 17.5 39t41.5 17q20 0 46 -10q47 -19 58 -19q41 0 87 50q77 86 275 430q186 323 287 476q71 106 138 183q30 33 30 41q0 14 -34 14q-59 0 -138 -23l10 51q67 20 119 20q35 0 123 -5q126 -8 320 -8q84 0 158.5 6.5t138.5 18.5
q-26 -67 -36 -112.5t-19 -144.5zM854 476l67 274l84 369q-230 -254 -434 -643q67 -6 134 -6q71 0 149 6z" />
    <glyph glyph-name="Oslash" unicode="&#xd8;" horiz-adv-x="1352" 
d="M1250 1095q71 -63 111.5 -160.5t40.5 -215.5q0 -188 -101 -373.5t-247.5 -279t-324.5 -93.5q-162 0 -283 86l-136 -176l-47 38l137 178q-129 129 -129 347q0 191 100 376.5t247.5 280.5t321.5 95q148 0 260 -66l116 149l47 -41zM506 236l608 784q-92 105 -231 105
q-112 0 -209.5 -69t-159 -214t-61.5 -337q0 -160 53 -269zM1152 969l-612 -790q43 -62 110 -97.5t142 -35.5q107 0 203.5 70.5t159.5 223.5t63 345q0 176 -66 284z" />
    <glyph glyph-name="infinity" unicode="&#x221e;" 
d="M654 667q65 149 143.5 213t226.5 64q162 0 272.5 -117t110.5 -300q0 -204 -133 -327q-101 -93 -216 -93q-86 0 -159 53.5t-178 232.5q-66 -128 -143.5 -180.5t-180.5 -52.5q-145 0 -244 103.5t-99 265.5t91 264.5t216 102.5q88 0 153.5 -46t139.5 -183zM750 464
q73 -152 145.5 -207.5t166.5 -55.5q124 0 206 89.5t82 236.5q0 145 -86 242t-196 97q-64 0 -112.5 -29.5t-91.5 -99.5q-29 -49 -114 -273zM625 590q-53 119 -118 166.5t-149 47.5q-106 0 -177.5 -75t-71.5 -199q0 -130 69.5 -211t160.5 -81q95 0 167 85q48 56 119 267z" />
    <glyph glyph-name="plusminus" unicode="&#xb1;" horiz-adv-x="1124" 
d="M633 696v385h111v-385h387v-110h-387v-391h-111v391h-387v110h387zM1131 113v-113h-885v113h885z" />
    <glyph glyph-name="lessequal" unicode="&#x2264;" horiz-adv-x="1124" 
d="M1145 330v-108l-893 410v95l893 409v-108l-751 -350zM1145 154v-113h-893v113h893z" />
    <glyph glyph-name="greaterequal" unicode="&#x2265;" horiz-adv-x="1124" 
d="M360 330l751 348l-751 350v108l893 -409v-95l-893 -410v108zM1253 154v-113h-893v113h893z" />
    <glyph glyph-name="yen" unicode="&#xa5;" horiz-adv-x="1475" 
d="M971 621q-6 142 -56.5 274.5t-125.5 214.5q-147 -54 -210.5 -101.5t-102 -116.5t-38.5 -121q0 -51 46 -95q39 -38 39 -67q0 -26 -15.5 -43t-38.5 -17q-41 0 -69 40q-38 55 -38 132q0 111 62 209t173 164q65 39 214 83q55 16 99 33q84 -101 135 -237.5t70 -338.5
q186 390 354.5 548.5t274.5 158.5q33 0 54 -19t21 -47q0 -29 -24.5 -47t-95.5 -23q-74 -5 -122 -37q-84 -55 -194 -201.5t-208 -345.5h292l-16 -58h-303q-14 -31 -39 -104h316l-15 -61h-323q-62 -207 -80 -351q47 -8 93 -8q70 0 154 20l-21 -59q-62 -16 -106 -16
q-47 0 -124 8q-73 8 -116 8q-61 0 -187 -14l17 51q94 24 114 48q28 32 63 163l40 150h-314l16 61h313q16 64 20 104h-307l14 58h295z" />
    <glyph glyph-name="mu1" unicode="&#xb5;" horiz-adv-x="1180" 
d="M1082 118l-12 -47l-205 -84q-8 -3 -16 -3q-22 0 -34 17q-16 24 -16 64q0 23 8 67q-67 -65 -112 -93.5t-105 -47t-93 -18.5q-44 0 -76.5 26.5t-63.5 98.5q-15 -75 -17.5 -106.5t-3.5 -126.5q0 -97 -30.5 -137.5t-77.5 -40.5q-30 0 -48 17.5t-18 47.5q0 38 40 132
q87 205 124 316q49 146 94 325l66 264h157l-123 -491q-18 -74 -18 -105q0 -36 30 -61.5t79 -25.5t96.5 21.5t117.5 83.5l147 578h155l-143 -569q-7 -28 -7 -68q0 -26 8.5 -35.5t31.5 -9.5q27 0 65 11z" />
    <glyph glyph-name="partialdiff" unicode="&#x2202;" horiz-adv-x="1012" 
d="M930 717q12 113 12 187q0 178 -94.5 277t-251.5 99q-98 0 -170.5 -37.5t-130.5 -121.5h-46q82 169 174 235t207 66q102 0 187.5 -56.5t132 -164t46.5 -282.5q0 -275 -96 -511.5t-224 -337.5t-272 -101q-156 0 -247.5 90t-91.5 245t78.5 299t207.5 224.5t266 80.5
q68 0 128.5 -23t112.5 -69q39 -34 72 -99zM913 628q-39 110 -116 167.5t-171 57.5q-93 0 -179 -64t-149.5 -217.5t-63.5 -308.5q0 -112 54 -174.5t141 -62.5q77 0 173.5 64.5t181 203t129.5 334.5z" />
    <glyph glyph-name="summation" unicode="&#x2211;" 
d="M1356 -344h-1313v36l669 804l-669 843v38h1278l27 -337h-40q-15 135 -76 195.5t-173 60.5h-740l562 -714l-629 -750h818q87 0 152 26.5t99.5 73t58.5 146.5l40 -7z" />
    <glyph glyph-name="product" unicode="&#x220f;" horiz-adv-x="1685" 
d="M1240 1298h-795v-1450q0 -83 37 -119t161 -36v-37h-597v37q128 0 163 38t35 117v1336q0 84 -37 119.5t-161 35.5v38h1594v-38q-127 0 -162 -37.5t-35 -117.5v-1336q0 -83 37 -119t160 -36v-37h-597v37q128 0 162.5 38t34.5 117v1450z" />
    <glyph glyph-name="glyph155" horiz-adv-x="1124" 
d="M766 744h-248l-151 -517q-44 -150 -94 -209q-36 -42 -87 -42q-36 0 -58 20.5t-22 47.5q0 28 16 63q12 25 76 100q51 61 80 117.5t59 155.5l80 264h-50q-116 0 -170.5 -26.5t-88.5 -87.5h-36q36 119 125 185t230 66h638l-41 -137h-156l-131 -435q-17 -55 -17 -84
q0 -55 31 -88t75 -33q38 0 72.5 27t64.5 96h36q-32 -128 -73 -178q-59 -73 -140 -73q-72 0 -121.5 56t-49.5 152q0 67 22 131z" />
    <glyph glyph-name="integral" unicode="&#x222b;" horiz-adv-x="561" 
d="M200 895q0 226 16 529q10 201 53 310q26 64 73 96.5t93 32.5q49 0 87 -33t38 -74q0 -46 -26.5 -75t-65.5 -29q-35 0 -76 36q-23 20 -40 20q-18 0 -29 -14.5t-11 -49.5q0 -41 9 -145q37 -411 37 -663q0 -70 -15 -569q-9 -305 -84 -410q-55 -77 -141 -77q-52 0 -85 34
t-33 87q0 44 25.5 71.5t64.5 27.5q40 0 70 -33q28 -31 48 -31q17 0 28 14.5t11 46.5q0 42 -9 120q-38 318 -38 778z" />
    <glyph glyph-name="ordfeminine" unicode="&#xaa;" horiz-adv-x="532" 
d="M661 1206l68 13l-53 -165q-28 -86 -55 -208q-14 -63 -14 -83q0 -9 7 -9t24 11q48 30 85 63l32 -36q-144 -130 -235 -130q-23 0 -34 9.5t-11 25.5q0 9 5 28l13 40q-119 -102 -198 -102q-43 0 -69 31t-26 89q0 93 76.5 207t177.5 164q65 32 158 32q18 0 35 -1zM577 1105
q-26 4 -47 4q-81 0 -133 -68q-75 -99 -75 -216q0 -37 12 -53.5t30 -16.5q42 0 89.5 43.5t71.5 126.5z" />
    <glyph glyph-name="ordmasculine" unicode="&#xba;" horiz-adv-x="532" 
d="M573 1197q73 0 117 -49t44 -131q0 -136 -103.5 -245.5t-225.5 -109.5q-74 0 -120 45.5t-46 117.5q0 152 101.5 262t232.5 110zM519 1139q-51 0 -99 -72t-48 -196q0 -73 29 -117q20 -32 53 -32q49 0 97 71t48 186q0 85 -23.5 122.5t-56.5 37.5z" />
    <glyph glyph-name="Ohm" unicode="&#x2126;" horiz-adv-x="1573" 
d="M50 0l101 343h37q-14 -35 -14 -60q0 -50 35 -81t104 -31h222l24 99q-162 34 -262.5 158.5t-100.5 291.5q0 169 98 325t278.5 249t386.5 93q261 0 419 -172q117 -126 117 -285q0 -140 -74 -281.5t-214 -241t-276 -119.5l-40 -117h225q105 0 157.5 38t80.5 134h36l-99 -343
h-528l128 364q102 21 171 87q94 91 157.5 244.5t63.5 293.5q0 143 -92.5 236t-236.5 93q-142 0 -264 -80t-202 -248.5t-80 -355.5q0 -119 62.5 -199.5t162.5 -100.5l-74 -334h-509z" />
    <glyph glyph-name="ae" unicode="&#xe6;" horiz-adv-x="1106" 
d="M875 774q89 69 186 69q66 0 101 -35t35 -98q0 -58 -33 -115t-114 -114t-285 -149q-9 -54 -9 -103q0 -70 22.5 -99t59.5 -29q97 0 268 134l32 -43q-213 -218 -401 -218q-70 0 -107.5 50.5t-35.5 161.5q-80 -99 -192 -171q-66 -43 -123 -43q-55 0 -85 40q-40 55 -40 145
q0 124 67 265t160.5 240t199.5 139q58 22 173 22q26 0 59 -4l25 39l66 14zM777 396q138 60 221 151q55 60 55 123q0 41 -21.5 65.5t-53.5 24.5q-33 0 -63 -25q-45 -38 -74 -111q-46 -117 -64 -228zM714 705q-55 11 -92 11q-82 0 -144.5 -48t-117.5 -177t-55 -259
q0 -69 22 -98.5t56 -29.5q63 0 136 72t112 217z" />
    <glyph glyph-name="oslash" unicode="&#xf8;" horiz-adv-x="901" 
d="M886 748q52 -82 52 -200q0 -223 -155.5 -400t-328.5 -177q-86 0 -148 46l-66 -83l-39 33l68 86q-55 73 -55 179q0 161 74.5 309t185.5 224.5t224 76.5q87 0 150 -53l70 90l45 -33zM390 208l355 450q-36 108 -119 108q-86 0 -165 -121.5t-79 -335.5q0 -56 8 -101zM761 590
l-352 -444q42 -97 117 -97q84 0 153 104q89 135 89 335q0 54 -7 102z" />
    <glyph glyph-name="questiondown" unicode="&#xbf;" horiz-adv-x="819" 
d="M682 599q-39 0 -65.5 29.5t-26.5 73.5q0 66 30.5 102.5t78.5 36.5q39 0 65 -27.5t26 -69.5q0 -63 -37 -110q-27 -35 -71 -35zM629 486h65q-19 -199 -46 -253q-20 -39 -88 -61q-201 -66 -271 -141q-71 -75 -71 -164q0 -72 38 -114t94 -42q49 0 122 55q31 23 39 26
q13 6 27 6q25 0 43.5 -18.5t18.5 -43.5q0 -44 -51 -82.5t-128 -38.5q-120 0 -204 89t-84 223q0 137 95 243q61 67 223 129q124 47 143.5 68.5t34.5 118.5z" />
    <glyph glyph-name="exclamdown" unicode="&#xa1;" horiz-adv-x="573" 
d="M465 596q-38 0 -65 29t-27 74q0 66 31 102.5t78 36.5q39 0 65.5 -27.5t26.5 -69.5q0 -63 -37 -110q-27 -35 -72 -35zM411 482h59q-66 -478 -94 -808q-1 -20 -9 -27q-15 -15 -57 -25q-68 -18 -95 -18q-22 0 -22 21q0 14 8 37q13 38 88 326z" />
    <glyph glyph-name="logicalnot" unicode="&#xac;" horiz-adv-x="1229" 
d="M1241 815v-455h-113v342h-772v113h885z" />
    <glyph glyph-name="radical" unicode="&#x221a;" horiz-adv-x="1124" 
d="M1047 1869h74l-312 -1947l-496 1021l-198 -91l-34 64l301 151l405 -823z" />
    <glyph glyph-name="florin" unicode="&#x192;" horiz-adv-x="819" 
d="M550 705l-156 -621q-60 -237 -133.5 -354.5t-194.5 -186t-233 -68.5q-59 0 -90 24.5t-31 55.5q0 28 23 49.5t54 21.5q26 0 94 -15q77 -17 113 -17q59 0 97 50q63 81 107 253l202 808h-239l20 71h238q57 247 134 370.5t197.5 193t234.5 69.5q59 0 90 -24.5t31 -56.5
q0 -27 -23 -48.5t-54 -21.5q-26 0 -94 15q-77 17 -113 17q-59 0 -98 -51q-65 -84 -105 -252l-51 -211h265l-18 -71h-267z" />
    <glyph glyph-name="approxequal" unicode="&#x2248;" horiz-adv-x="1124" 
d="M1134 906l62 -70q-61 -106 -122.5 -149t-124.5 -43q-27 0 -61.5 9.5t-175.5 66.5q-110 43 -153 43q-49 0 -90.5 -32t-95.5 -126l-62 72q71 121 127 162t122 41q63 0 217 -64q135 -55 173 -55q98 0 184 145zM1134 592l62 -70q-61 -105 -122.5 -148.5t-124.5 -43.5
q-27 0 -61.5 10t-175.5 66q-110 43 -153 43q-49 0 -90.5 -31.5t-95.5 -125.5l-62 71q71 121 127 162t122 41q63 0 217 -63q135 -56 173 -56q98 0 184 145z" />
    <glyph glyph-name="Delta" unicode="&#x2206;" horiz-adv-x="1253" 
d="M1226 0h-1200l628 1387zM990 82l-399 967l-440 -967h839z" />
    <glyph glyph-name="guillemotleft" unicode="&#xab;" horiz-adv-x="696" 
d="M556 411q28 -38 88 -147q41 -75 60 -131q12 -37 12 -51q0 -29 -29 -29q-24 0 -42 40q-40 90 -225 323l194 175q89 85 110.5 107.5t32.5 37.5q29 38 49 38q11 0 19 -8.5t8 -18.5t-5 -21q-11 -21 -103 -133q-62 -76 -169 -182zM298 411q28 -38 88 -147q41 -75 59 -131
q12 -37 12 -51q0 -29 -29 -29q-23 0 -41 40q-40 90 -225 323l194 175q89 85 110.5 107.5t32.5 37.5q29 38 49 38q11 0 19 -8.5t8 -18.5t-5 -21q-11 -21 -103 -133q-62 -76 -169 -182z" />
    <glyph glyph-name="guillemotright" unicode="&#xbb;" horiz-adv-x="778" 
d="M396 417q-28 37 -87 146q-42 76 -60 132q-12 36 -12 50q0 29 29 29q23 0 41 -40q40 -90 225 -322l-194 -175q-89 -86 -110 -108t-33 -37q-28 -39 -49 -39q-11 0 -19 8.5t-8 19.5q0 9 6 21q10 21 102 133q62 75 169 182zM654 417q-28 37 -87 146q-41 76 -60 132
q-12 36 -12 50q0 29 29 29q23 0 41 -40q41 -90 225 -322l-193 -175q-90 -86 -111 -108t-32 -37q-29 -39 -50 -39q-11 0 -19 8.5t-8 19.5q0 9 6 21q10 21 102 133q63 75 169 182z" />
    <glyph glyph-name="ellipsis" unicode="&#x2026;" horiz-adv-x="2048" 
d="M1032 216q39 0 66 -29.5t27 -74.5q0 -65 -31 -102t-79 -37q-38 0 -64.5 27.5t-26.5 69.5q0 63 37 111q27 35 71 35zM1715 216q39 0 65.5 -29.5t26.5 -74.5q0 -65 -30.5 -102t-78.5 -37q-39 0 -65.5 27.5t-26.5 69.5q0 63 37 111q28 35 72 35zM350 216q39 0 65.5 -29.5
t26.5 -74.5q0 -65 -31 -102t-78 -37q-39 0 -65.5 27.5t-26.5 69.5q0 63 37 111q27 35 72 35z" />
    <glyph glyph-name="nonbreakingspace" unicode="&#xa0;" horiz-adv-x="450" 
 />
    <glyph glyph-name="Agrave" unicode="&#xc0;" horiz-adv-x="1270" 
d="M1299 44l-10 -57q-36 -3 -63 -3q-39 0 -94 6q-94 10 -119 10q-42 0 -129 -13q31 78 52 164q15 61 32 210q-117 1 -363 -5q-254 -388 -372.5 -487.5t-225.5 -99.5q-56 0 -83.5 21.5t-27.5 55.5q0 26 16 43t40 17q14 0 38 -5q60 -14 80 -14q67 0 148 76q132 124 390 520
q292 448 473 652q-247 -22 -308 -42q-84 -27 -126 -80t-42 -108q0 -18 13 -51q14 -37 14 -54q0 -22 -17 -39t-41 -17q-34 0 -54.5 25.5t-20.5 76.5q0 72 37.5 139.5t107.5 113t175 69.5q54 13 190 23q118 10 148 19q47 13 90 51q-30 -123 -43 -215l-78 -578l-45 -414
q74 -19 133 -19q39 0 85 9zM977 435q48 406 96 593q-127 -168 -157 -212l-257 -381q83 -3 237 -3q38 0 81 3zM962 1615h167l110 -290h-60z" />
    <glyph glyph-name="Atilde" unicode="&#xc3;" horiz-adv-x="1270" 
d="M1299 44l-10 -57q-36 -3 -63 -3q-39 0 -94 6q-94 10 -119 10q-42 0 -129 -13q31 78 52 164q15 61 32 210q-117 1 -363 -5q-254 -388 -372.5 -487.5t-225.5 -99.5q-56 0 -83.5 21.5t-27.5 55.5q0 26 16 43t40 17q14 0 38 -5q60 -14 80 -14q67 0 148 76q132 124 390 520
q292 448 473 652q-247 -22 -308 -42q-84 -27 -126 -80t-42 -108q0 -18 13 -51q14 -37 14 -54q0 -22 -17 -39t-41 -17q-34 0 -54.5 25.5t-20.5 76.5q0 72 37.5 139.5t107.5 113t175 69.5q54 13 190 23q118 10 148 19q47 13 90 51q-30 -123 -43 -215l-78 -578l-45 -414
q74 -19 133 -19q39 0 85 9zM977 435q48 406 96 593q-127 -168 -157 -212l-257 -381q83 -3 237 -3q38 0 81 3zM1400 1549h57q-28 -92 -82.5 -141t-115.5 -49q-31 0 -56 6q-13 3 -67 29q-56 26 -71 31q-22 6 -44 6q-27 0 -46 -15t-40 -57h-55q24 99 74.5 144.5t109.5 45.5
q44 0 133 -35q84 -33 118 -33q32 0 56.5 19.5t28.5 48.5z" />
    <glyph glyph-name="Otilde" unicode="&#xd5;" horiz-adv-x="1229" 
d="M899 1197q126 0 227.5 -58.5t157.5 -167t56 -252.5q0 -188 -101 -373t-247 -279t-324 -94q-205 0 -331.5 128t-126.5 337q0 200 101 386.5t248 279.5t340 93zM826 1125q-116 0 -213.5 -68.5t-159.5 -214t-62 -337.5q0 -220 97 -339.5t242 -119.5q108 0 204.5 71
t159 223.5t62.5 350.5q0 205 -95.5 319.5t-234.5 114.5zM1198 1549h57q-28 -92 -82.5 -141t-115.5 -49q-31 0 -56 6q-13 3 -67 29q-56 26 -71 31q-22 6 -44 6q-27 0 -46 -15t-40 -57h-55q24 99 74.5 144.5t109.5 45.5q44 0 133 -35q84 -33 118 -33q32 0 56.5 19.5t28.5 48.5
z" />
    <glyph glyph-name="OE" unicode="&#x152;" horiz-adv-x="1679" 
d="M1729 938h-53q11 69 11 102q0 37 -27.5 54t-110.5 17q-186 0 -276 -5q-20 -107 -108 -439h202q84 0 103 14q14 10 43 86h54q-53 -161 -71 -293h-49q7 53 7 73q0 31 -24 45t-107 14h-173q-80 -311 -144 -531q112 28 200 28q58 0 201 -20q126 -18 174 -18q54 0 78 16.5
t24 39.5q0 15 -19 43q-26 38 -26 66q0 26 15.5 42.5t39.5 16.5q33 0 57 -30t24 -76q0 -87 -73 -147.5t-203 -60.5q-70 0 -156 7q-200 18 -315 18q-123 0 -237 -14q-79 -10 -124 -10q-209 0 -333 131t-124 356q0 204 95 377t253.5 267.5t352.5 94.5q71 0 174 -11
q204 -21 389 -21q87 0 135 3.5t171 21.5q-26 -82 -35 -129.5t-15 -127.5zM905 1143q-214 0 -356 -169q-160 -190 -160 -492q0 -212 96 -341q76 -102 202 -102q73 0 126 34q40 25 64 83t123 452q79 312 79 380q0 67 -48 111t-126 44z" />
    <glyph glyph-name="oe" unicode="&#x153;" horiz-adv-x="1147" 
d="M827 676q121 167 275 167q66 0 101 -35t35 -98q0 -90 -85.5 -179.5t-323.5 -191.5q-8 -75 -8 -109q0 -63 21.5 -92t55.5 -29q83 0 255 142l30 -44q-106 -118 -209.5 -175.5t-172.5 -57.5q-53 0 -85.5 35.5t-43.5 105.5q-60 -72 -130.5 -108t-151.5 -36q-91 0 -152.5 70.5
t-61.5 190.5q0 224 124 405q140 204 332 204q72 0 118.5 -37t76.5 -128zM560 766q-74 0 -135 -103q-82 -135 -82 -354q0 -133 46 -208q31 -52 83 -52q72 0 132 98q82 137 82 341q0 153 -37 215.5t-89 62.5zM838 396q134 68 203 151q52 60 52 119q0 45 -19.5 69.5t-50.5 24.5
q-50 0 -91 -63q-60 -94 -94 -301z" />
    <glyph glyph-name="endash" unicode="&#x2013;" horiz-adv-x="1024" 
d="M127 355l36 129h993l-35 -129h-994z" />
    <glyph glyph-name="emdash" unicode="&#x2014;" horiz-adv-x="2048" 
d="M127 355l36 129h2017l-35 -129h-2018z" />
    <glyph glyph-name="quotedblleft" unicode="&#x201c;" horiz-adv-x="696" 
d="M623 1411l17 -64q-83 -74 -108.5 -118.5t-25.5 -85.5q0 -21 24 -66q19 -36 19 -68q0 -40 -24.5 -65.5t-61.5 -25.5q-38 0 -64.5 29.5t-26.5 77.5q0 84 54.5 175.5t196.5 210.5zM883 1411l17 -64q-84 -74 -109.5 -118.5t-25.5 -85.5q0 -21 24 -66q19 -36 19 -68
q0 -40 -24 -65.5t-62 -25.5t-64.5 29.5t-26.5 77.5q0 84 55 175.5t197 210.5z" />
    <glyph glyph-name="quotedblright" unicode="&#x201d;" horiz-adv-x="737" 
d="M671 918l-18 64q84 74 109.5 118.5t25.5 84.5q0 22 -24 67q-19 36 -19 67q0 41 24.5 66.5t61.5 25.5q38 0 64.5 -29.5t26.5 -77.5q0 -84 -55 -175.5t-196 -210.5zM411 918l-17 64q84 74 109.5 118.5t25.5 84.5q0 22 -24 67q-19 36 -19 67q0 41 24 66.5t61 25.5
q39 0 65 -29.5t26 -77.5q0 -84 -54.5 -175.5t-196.5 -210.5z" />
    <glyph glyph-name="quoteleft" unicode="&#x2018;" horiz-adv-x="491" 
d="M651 1411l17 -64q-83 -74 -108.5 -118.5t-25.5 -85.5q0 -21 24 -66q19 -36 19 -68q0 -40 -24.5 -65.5t-61.5 -25.5q-38 0 -64.5 29.5t-26.5 77.5q0 84 54.5 175.5t196.5 210.5z" />
    <glyph glyph-name="quoteright" unicode="&#x2019;" horiz-adv-x="491" 
d="M417 918l-17 64q84 74 109.5 118.5t25.5 84.5q0 22 -24 67q-19 36 -19 67q0 41 24 66.5t61 25.5q39 0 65 -29.5t26 -77.5q0 -84 -54.5 -175.5t-196.5 -210.5z" />
    <glyph glyph-name="divide" unicode="&#xf7;" horiz-adv-x="1124" 
d="M745 965q37 0 63.5 -26.5t26.5 -63.5q0 -36 -26.5 -62.5t-63.5 -26.5t-63 26t-26 63t26.5 63.5t62.5 26.5zM1187 643v-113h-885v113h885zM745 387q37 0 63.5 -26t26.5 -63t-26.5 -63t-63.5 -26t-63 26t-26 63t26 63t63 26z" />
    <glyph glyph-name="lozenge" unicode="&#x25ca;" horiz-adv-x="1012" 
d="M549 1422l418 -713l-418 -709h-111l-391 709l391 713h111zM495 1325l-340 -616l340 -615l359 615z" />
    <glyph glyph-name="ydieresis" unicode="&#xff;" horiz-adv-x="819" 
d="M171 638l-32 47l74 50q108 74 152 95q25 12 46 12t40 -24q88 -111 148 -299.5t60 -365.5q0 -23 -2 -70q169 311 169 494q0 38 -17 101q-18 70 -18 100q0 29 18.5 48t46.5 19q35 0 56.5 -27t21.5 -77q0 -129 -59 -321.5t-185.5 -414t-231 -329t-202 -154t-184.5 -46.5
q-66 0 -99.5 24.5t-33.5 58.5q0 30 26 51.5t70 21.5q34 0 93 -13q63 -14 86 -14q61 0 129 51q93 70 147.5 167t54.5 196q0 139 -40.5 334t-114.5 298q-37 53 -79 53q-49 0 -140 -66zM573 1147q38 0 65.5 -27t27.5 -66q0 -38 -27.5 -65.5t-65.5 -27.5t-65.5 27.5t-27.5 65.5
q0 39 27.5 66t65.5 27zM862 1146q39 0 66 -27t27 -65q0 -39 -27 -66t-66 -27q-38 0 -65 27t-27 66q0 38 27 65t65 27z" />
    <glyph glyph-name="Ydieresis" unicode="&#x178;" horiz-adv-x="1147" 
d="M1090 59l-21 -59q-62 -16 -106 -16q-47 0 -124 8q-73 8 -116 8q-61 0 -187 -14l17 51q94 24 118 52t80 239.5t56 278.5q0 134 -52 275t-130 228q-147 -54 -210.5 -101.5t-102 -116.5t-38.5 -121q0 -51 46 -95q39 -38 39 -67q0 -26 -15.5 -43t-38.5 -17q-41 0 -69 40
q-38 55 -38 132q0 111 62 209t173 164q65 39 214 83q55 16 99 33q84 -101 135 -237.5t70 -338.5q186 390 354.5 548.5t274.5 158.5q33 0 54 -19t21 -47q0 -29 -24.5 -47t-95.5 -23q-70 -5 -108 -28q-75 -46 -176.5 -170t-200.5 -310t-151 -387.5t-56 -262.5q47 -8 93 -8
q70 0 154 20zM930 1510q38 0 65.5 -27t27.5 -66q0 -38 -27.5 -65.5t-65.5 -27.5t-65.5 27.5t-27.5 65.5q0 39 27.5 66t65.5 27zM1219 1509q39 0 66 -27t27 -65q0 -39 -27 -66t-66 -27q-38 0 -65 27t-27 66q0 38 27 65t65 27z" />
    <glyph glyph-name="fraction" unicode="&#x2044;" horiz-adv-x="123" 
d="M-146 -7l147 252l365 667l151 286q25 -7 80 -14q-92 -149 -173 -298l-321 -585q-88 -160 -164 -316q-41 6 -85 8z" />
    <glyph glyph-name="fraction" unicode="&#x2215;" horiz-adv-x="123" 
d="M-146 -7l147 252l365 667l151 286q25 -7 80 -14q-92 -149 -173 -298l-321 -585q-88 -160 -164 -316q-41 6 -85 8z" />
    <glyph glyph-name="Euro" unicode="&#x20ac;" horiz-adv-x="901" 
d="M328 625q81 257 238.5 416t305.5 159q157 0 279 -61q-55 -159 -64 -301h-53q4 45 4 71q0 125 -36.5 178.5t-124.5 53.5q-119 0 -229.5 -139.5t-166.5 -376.5h342l-32 -62h-322q-6 -33 -14 -98h348l-33 -62h-319q-2 -24 -2 -79q0 -172 71.5 -274.5t188.5 -102.5
q111 0 206 88q13 12 15 12q12 0 21.5 -9t9.5 -20q0 -30 -92.5 -92.5t-211.5 -62.5q-164 0 -269 122.5t-105 325.5q0 33 4 92h-140l33 62h113q4 33 18 98h-143l33 62h127z" />
    <glyph glyph-name="guilsinglleft" unicode="&#x2039;" horiz-adv-x="491" 
d="M353 411q28 -38 88 -147q41 -75 59 -131q12 -37 12 -51q0 -29 -29 -29q-23 0 -41 40q-40 90 -225 323l194 175q89 85 110.5 107.5t32.5 37.5q29 38 49 38q11 0 19 -8.5t8 -18.5t-5 -21q-11 -21 -103 -133q-62 -76 -169 -182z" />
    <glyph glyph-name="guilsinglright" unicode="&#x203a;" horiz-adv-x="532" 
d="M396 417q-28 37 -87 146q-42 76 -60 132q-12 36 -12 50q0 29 29 29q23 0 41 -40q40 -90 225 -322l-194 -175q-89 -86 -110 -108t-33 -37q-28 -39 -49 -39q-11 0 -19 8.5t-8 19.5q0 9 6 21q10 21 102 133q62 75 169 182z" />
    <glyph glyph-name="fi" unicode="&#xf001;" horiz-adv-x="1065" 
d="M193 705l19 72h238q78 309 261 482q156 147 362 147q111 0 171 -36q41 -25 41 -70q0 -30 -23 -51t-57 -21q-23 0 -43 5q-11 3 -79 32q-80 34 -143 34q-66 0 -124 -39t-103.5 -132.5t-114.5 -350.5h165q56 0 97 8q31 5 90 27q83 31 120 31q23 0 38.5 -15.5t15.5 -38.5
q0 -26 -36 -151l-104 -359q-34 -116 -34 -156q0 -16 8 -26.5t17 -10.5q34 0 166 124l35 -36q-123 -113 -146 -130q-61 -47 -105 -65q-22 -10 -42 -10q-38 0 -62 26.5t-24 76.5q0 42 15.5 114.5t87.5 307.5q57 191 57 197q0 26 -22 26q-11 0 -30 -3q-53 -9 -160 -9h-166
l-164 -635q-55 -214 -139.5 -336t-205.5 -189t-243 -67q-60 0 -92.5 24t-32.5 56q0 30 26.5 50t76.5 20q23 0 80 -5q48 -4 67 -4q125 0 170 43q61 57 103 225l208 818h-240z" />
    <glyph glyph-name="fi" unicode="&#xfb01;" horiz-adv-x="1065" 
d="M193 705l19 72h238q78 309 261 482q156 147 362 147q111 0 171 -36q41 -25 41 -70q0 -30 -23 -51t-57 -21q-23 0 -43 5q-11 3 -79 32q-80 34 -143 34q-66 0 -124 -39t-103.5 -132.5t-114.5 -350.5h165q56 0 97 8q31 5 90 27q83 31 120 31q23 0 38.5 -15.5t15.5 -38.5
q0 -26 -36 -151l-104 -359q-34 -116 -34 -156q0 -16 8 -26.5t17 -10.5q34 0 166 124l35 -36q-123 -113 -146 -130q-61 -47 -105 -65q-22 -10 -42 -10q-38 0 -62 26.5t-24 76.5q0 42 15.5 114.5t87.5 307.5q57 191 57 197q0 26 -22 26q-11 0 -30 -3q-53 -9 -160 -9h-166
l-164 -635q-55 -214 -139.5 -336t-205.5 -189t-243 -67q-60 0 -92.5 24t-32.5 56q0 30 26.5 50t76.5 20q23 0 80 -5q48 -4 67 -4q125 0 170 43q61 57 103 225l208 818h-240z" />
    <glyph glyph-name="fl" unicode="&#xf002;" horiz-adv-x="1065" 
d="M842 774l-16 -71h-253l-109 -460q-62 -262 -119 -382q-89 -191 -222.5 -289t-280.5 -98q-68 0 -100 24.5t-32 61.5q0 31 22.5 49.5t63.5 18.5q19 0 49 -4q83 -11 139 -11q102 0 147.5 44.5t85.5 201.5l212 844h-238l20 71h235l37 146q55 218 211.5 353.5t328.5 135.5
q83 0 117.5 -22t34.5 -56q0 -15 -11 -42q91 69 158.5 94.5t135.5 25.5q56 0 81 -19t25 -52q0 -32 -24 -52t-69 -20q-29 0 -83 9q-59 9 -85 9q-51 0 -82.5 -34.5t-56.5 -139.5l-205 -862q-26 -110 -26 -138q0 -31 26 -31q20 0 48 18q71 46 174 139l36 -36
q-127 -126 -234 -189q-70 -42 -118 -42q-38 0 -58 22.5t-20 69.5q0 60 50 270l129 540q44 185 81.5 263t99.5 138q-20 -7 -36 -10.5t-29 -3.5q-26 0 -66 9q-98 21 -138 21q-85 0 -133 -54q-67 -76 -107 -248l-48 -212h252z" />
    <glyph glyph-name="fl" unicode="&#xfb02;" horiz-adv-x="1065" 
d="M842 774l-16 -71h-253l-109 -460q-62 -262 -119 -382q-89 -191 -222.5 -289t-280.5 -98q-68 0 -100 24.5t-32 61.5q0 31 22.5 49.5t63.5 18.5q19 0 49 -4q83 -11 139 -11q102 0 147.5 44.5t85.5 201.5l212 844h-238l20 71h235l37 146q55 218 211.5 353.5t328.5 135.5
q83 0 117.5 -22t34.5 -56q0 -15 -11 -42q91 69 158.5 94.5t135.5 25.5q56 0 81 -19t25 -52q0 -32 -24 -52t-69 -20q-29 0 -83 9q-59 9 -85 9q-51 0 -82.5 -34.5t-56.5 -139.5l-205 -862q-26 -110 -26 -138q0 -31 26 -31q20 0 48 18q71 46 174 139l36 -36
q-127 -126 -234 -189q-70 -42 -118 -42q-38 0 -58 22.5t-20 69.5q0 60 50 270l129 540q44 185 81.5 263t99.5 138q-20 -7 -36 -10.5t-29 -3.5q-26 0 -66 9q-98 21 -138 21q-85 0 -133 -54q-67 -76 -107 -248l-48 -212h252z" />
    <glyph glyph-name="daggerdbl" unicode="&#x2021;" horiz-adv-x="983" 
d="M659 961l64 363q8 46 18 58t41 19q27 5 37 8q23 7 35 7t21.5 -9.5t9.5 -21.5q0 -18 -11 -52l-117 -372q253 47 290 47q15 0 27 -10q9 -7 9 -18q0 -35 -18 -89q-8 -25 -35 -25q-46 0 -284 36l-131 -438l-85 -411q241 36 293 36q32 0 32 -30t-19 -80q-11 -29 -31 -29
q-30 0 -292 50l-65 -373q-8 -44 -19 -55t-37 -14l-79 -8q-26 0 -26 19q0 9 11 45l120 386q-247 -49 -304 -49q-11 0 -19.5 9.5t-8.5 21.5q0 23 11 53l13 37q6 9 15 13t21 4q66 0 282 -36l124 411l87 443q-68 -13 -201 -29q-50 -7 -82 -7q-13 0 -24 9t-11 20q0 10 4 23l10 36
q7 31 15.5 40t23.5 9q21 0 64 -7z" />
    <glyph glyph-name="periodcentered" unicode="&#x2219;" horiz-adv-x="451" 
d="M392 706q39 0 65.5 -29.5t26.5 -74.5q0 -65 -31 -102t-78 -37q-39 0 -65.5 27.5t-26.5 70.5q0 63 37 110q27 35 72 35z" />
    <glyph glyph-name="quotesinglbase" unicode="&#x201a;" horiz-adv-x="369" 
d="M43 -292l-18 68q84 73 109.5 118t25.5 86q0 21 -24 65q-19 37 -19 68q0 40 24 65.5t61 25.5q39 0 65 -29.5t26 -76.5q0 -43 -16.5 -94.5t-51.5 -102.5q-26 -38 -107 -118z" />
    <glyph glyph-name="quotedblbase" unicode="&#x201e;" horiz-adv-x="573" 
d="M293 -292l-18 64q84 74 109.5 118.5t25.5 85.5q0 21 -24 66q-19 36 -19 68q0 40 24.5 65.5t61.5 25.5q38 0 64.5 -29.5t26.5 -77.5q0 -83 -55 -175t-196 -211zM33 -292l-17 64q84 74 109.5 118.5t25.5 85.5q0 21 -24 66q-19 36 -19 68q0 40 24 65.5t61 25.5
q39 0 65 -29.5t26 -77.5q0 -83 -54.5 -175t-196.5 -211z" />
    <glyph glyph-name="perthousand" unicode="&#x2030;" horiz-adv-x="1966" 
d="M480 -7l146 252l366 667l151 286q24 -7 80 -14q-92 -149 -174 -298l-321 -585q-88 -160 -164 -316q-19 4 -51 6q-11 0 -33 2zM636 1198q83 0 135.5 -57.5t52.5 -162.5q0 -175 -108 -310q-87 -110 -205 -110q-82 0 -135.5 58.5t-53.5 155.5q0 156 89.5 291t224.5 135z
M622 1156q-63 0 -117.5 -125.5t-54.5 -277.5q0 -78 24 -115t55 -37q56 0 101 97q66 142 66 304q0 78 -26 122q-20 32 -48 32zM1197 625q83 0 135.5 -57.5t52.5 -162.5q0 -175 -108 -310q-87 -110 -205 -110q-82 0 -135.5 58.5t-53.5 155.5q0 156 89.5 291t224.5 135z
M1183 583q-63 0 -117.5 -125.5t-54.5 -277.5q0 -78 24 -115t55 -37q56 0 101 97q66 142 66 304q0 78 -26 122q-20 32 -48 32zM1790 625q82 0 135 -57.5t53 -162.5q0 -175 -108 -310q-87 -110 -205 -110q-83 0 -136 58.5t-53 155.5q0 156 89.5 291t224.5 135zM1775 583
q-62 0 -116.5 -125.5t-54.5 -277.5q0 -78 24 -115t55 -37q56 0 101 97q66 142 66 304q0 78 -26 122q-20 32 -49 32z" />
    <glyph glyph-name="Acircumflex" unicode="&#xc2;" horiz-adv-x="1270" 
d="M1299 44l-10 -57q-36 -3 -63 -3q-39 0 -94 6q-94 10 -119 10q-42 0 -129 -13q31 78 52 164q15 61 32 210q-117 1 -363 -5q-254 -388 -372.5 -487.5t-225.5 -99.5q-56 0 -83.5 21.5t-27.5 55.5q0 26 16 43t40 17q14 0 38 -5q60 -14 80 -14q67 0 148 76q132 124 390 520
q292 448 473 652q-247 -22 -308 -42q-84 -27 -126 -80t-42 -108q0 -18 13 -51q14 -37 14 -54q0 -22 -17 -39t-41 -17q-34 0 -54.5 25.5t-20.5 76.5q0 72 37.5 139.5t107.5 113t175 69.5q54 13 190 23q118 10 148 19q47 13 90 51q-30 -123 -43 -215l-78 -578l-45 -414
q74 -19 133 -19q39 0 85 9zM977 435q48 406 96 593q-127 -168 -157 -212l-257 -381q83 -3 237 -3q38 0 81 3zM1158 1616h151l73 -291h-57l-104 183l-268 -183h-64z" />
    <glyph glyph-name="Ecircumflex" unicode="&#xca;" horiz-adv-x="1270" 
d="M1312 959h-53q8 51 8 81q0 40 -33.5 52.5t-252.5 12.5l-146 -1l-111 -442h207q98 0 120.5 14.5t32.5 72.5h57q-32 -121 -57 -266h-51q5 47 5 73q0 11 -14 27q-7 8 -26 11q-27 5 -84 5h-205q-89 -340 -185 -533q93 29 165 29q120 0 294 -38q92 -21 125 -21q44 0 71 22
t27 50q0 16 -13 52q-8 25 -8 47q0 23 18.5 41t44.5 18q31 0 51.5 -24t20.5 -64q0 -85 -74.5 -149t-196.5 -64q-64 0 -162 11q-215 24 -328 24q-148 0 -346 -24l16 55q118 33 139 48.5t35 45.5q48 95 124.5 381l155.5 604q-120 0 -227 -57t-167 -148.5t-60 -192.5
q0 -43 8.5 -75t38.5 -90q19 -35 19 -57t-18.5 -39t-45.5 -17q-39 0 -62 39q-34 57 -34 155q0 210 159 377t463 167h343q178 0 263 23q-40 -166 -51 -236zM1037 1616h151l73 -291h-57l-104 183l-268 -183h-64z" />
    <glyph glyph-name="Aacute" unicode="&#xc1;" horiz-adv-x="1270" 
d="M1299 44l-10 -57q-36 -3 -63 -3q-39 0 -94 6q-94 10 -119 10q-42 0 -129 -13q31 78 52 164q15 61 32 210q-117 1 -363 -5q-254 -388 -372.5 -487.5t-225.5 -99.5q-56 0 -83.5 21.5t-27.5 55.5q0 26 16 43t40 17q14 0 38 -5q60 -14 80 -14q67 0 148 76q132 124 390 520
q292 448 473 652q-247 -22 -308 -42q-84 -27 -126 -80t-42 -108q0 -18 13 -51q14 -37 14 -54q0 -22 -17 -39t-41 -17q-34 0 -54.5 25.5t-20.5 76.5q0 72 37.5 139.5t107.5 113t175 69.5q54 13 190 23q118 10 148 19q47 13 90 51q-30 -123 -43 -215l-78 -578l-45 -414
q74 -19 133 -19q39 0 85 9zM977 435q48 406 96 593q-127 -168 -157 -212l-257 -381q83 -3 237 -3q38 0 81 3zM1290 1615h190l-339 -290h-59z" />
    <glyph glyph-name="Edieresis" unicode="&#xcb;" horiz-adv-x="1270" 
d="M1312 959h-53q8 51 8 81q0 40 -33.5 52.5t-252.5 12.5l-146 -1l-111 -442h207q98 0 120.5 14.5t32.5 72.5h57q-32 -121 -57 -266h-51q5 47 5 73q0 11 -14 27q-7 8 -26 11q-27 5 -84 5h-205q-89 -340 -185 -533q93 29 165 29q120 0 294 -38q92 -21 125 -21q44 0 71 22
t27 50q0 16 -13 52q-8 25 -8 47q0 23 18.5 41t44.5 18q31 0 51.5 -24t20.5 -64q0 -85 -74.5 -149t-196.5 -64q-64 0 -162 11q-215 24 -328 24q-148 0 -346 -24l16 55q118 33 139 48.5t35 45.5q48 95 124.5 381l155.5 604q-120 0 -227 -57t-167 -148.5t-60 -192.5
q0 -43 8.5 -75t38.5 -90q19 -35 19 -57t-18.5 -39t-45.5 -17q-39 0 -62 39q-34 57 -34 155q0 210 159 377t463 167h343q178 0 263 23q-40 -166 -51 -236zM883 1510q38 0 65.5 -27t27.5 -66q0 -38 -27.5 -65.5t-65.5 -27.5t-65.5 27.5t-27.5 65.5q0 39 27.5 66t65.5 27z
M1172 1509q39 0 66 -27t27 -65q0 -39 -27 -66t-66 -27q-38 0 -65 27t-27 66q0 38 27 65t65 27z" />
    <glyph glyph-name="Egrave" unicode="&#xc8;" horiz-adv-x="1270" 
d="M1312 959h-53q8 51 8 81q0 40 -33.5 52.5t-252.5 12.5l-146 -1l-111 -442h207q98 0 120.5 14.5t32.5 72.5h57q-32 -121 -57 -266h-51q5 47 5 73q0 11 -14 27q-7 8 -26 11q-27 5 -84 5h-205q-89 -340 -185 -533q93 29 165 29q120 0 294 -38q92 -21 125 -21q44 0 71 22
t27 50q0 16 -13 52q-8 25 -8 47q0 23 18.5 41t44.5 18q31 0 51.5 -24t20.5 -64q0 -85 -74.5 -149t-196.5 -64q-64 0 -162 11q-215 24 -328 24q-148 0 -346 -24l16 55q118 33 139 48.5t35 45.5q48 95 124.5 381l155.5 604q-120 0 -227 -57t-167 -148.5t-60 -192.5
q0 -43 8.5 -75t38.5 -90q19 -35 19 -57t-18.5 -39t-45.5 -17q-39 0 -62 39q-34 57 -34 155q0 210 159 377t463 167h343q178 0 263 23q-40 -166 -51 -236zM841 1615h167l110 -290h-60z" />
    <glyph glyph-name="Iacute" unicode="&#xcd;" horiz-adv-x="778" 
d="M970 1183l-17 -54q-113 -7 -150 -28q-24 -14 -40 -42q-19 -36 -111 -382q-30 -114 -153 -623q70 -23 177 -20l-16 -48q-32 -1 -128 8q-69 6 -161 6q-127 0 -233 -19l12 53q110 17 167 44q14 7 22 17q15 18 32.5 72.5t119.5 445.5q30 113 122 494q-69 2 -169 -19l19 55
q42 11 86 15.5t199 8.5q145 4 222 16zM875 1615h190l-339 -290h-59z" />
    <glyph glyph-name="Icircumflex" unicode="&#xce;" horiz-adv-x="778" 
d="M970 1183l-17 -54q-113 -7 -150 -28q-24 -14 -40 -42q-19 -36 -111 -382q-30 -114 -153 -623q70 -23 177 -20l-16 -48q-32 -1 -128 8q-69 6 -161 6q-127 0 -233 -19l12 53q110 17 167 44q14 7 22 17q15 18 32.5 72.5t119.5 445.5q30 113 122 494q-69 2 -169 -19l19 55
q42 11 86 15.5t199 8.5q145 4 222 16zM791 1616h151l73 -291h-57l-104 183l-268 -183h-64z" />
    <glyph glyph-name="Idieresis" unicode="&#xcf;" horiz-adv-x="778" 
d="M970 1183l-17 -54q-113 -7 -150 -28q-24 -14 -40 -42q-19 -36 -111 -382q-30 -114 -153 -623q70 -23 177 -20l-16 -48q-32 -1 -128 8q-69 6 -161 6q-127 0 -233 -19l12 53q110 17 167 44q14 7 22 17q15 18 32.5 72.5t119.5 445.5q30 113 122 494q-69 2 -169 -19l19 55
q42 11 86 15.5t199 8.5q145 4 222 16zM613 1510q38 0 65.5 -27t27.5 -66q0 -38 -27.5 -65.5t-65.5 -27.5t-65.5 27.5t-27.5 65.5q0 39 27.5 66t65.5 27zM902 1509q39 0 66 -27t27 -65q0 -39 -27 -66t-66 -27q-38 0 -65 27t-27 66q0 38 27 65t65 27z" />
    <glyph glyph-name="Igrave" unicode="&#xcc;" horiz-adv-x="778" 
d="M970 1183l-17 -54q-113 -7 -150 -28q-24 -14 -40 -42q-19 -36 -111 -382q-30 -114 -153 -623q70 -23 177 -20l-16 -48q-32 -1 -128 8q-69 6 -161 6q-127 0 -233 -19l12 53q110 17 167 44q14 7 22 17q15 18 32.5 72.5t119.5 445.5q30 113 122 494q-69 2 -169 -19l19 55
q42 11 86 15.5t199 8.5q145 4 222 16zM596 1615h167l110 -290h-60z" />
    <glyph glyph-name="Oacute" unicode="&#xd3;" horiz-adv-x="1229" 
d="M899 1197q126 0 227.5 -58.5t157.5 -167t56 -252.5q0 -188 -101 -373t-247 -279t-324 -94q-205 0 -331.5 128t-126.5 337q0 200 101 386.5t248 279.5t340 93zM826 1125q-116 0 -213.5 -68.5t-159.5 -214t-62 -337.5q0 -220 97 -339.5t242 -119.5q108 0 204.5 71
t159 223.5t62.5 350.5q0 205 -95.5 319.5t-234.5 114.5zM1100 1615h190l-339 -290h-59z" />
    <glyph glyph-name="Ocircumflex" unicode="&#xd4;" horiz-adv-x="1229" 
d="M899 1197q126 0 227.5 -58.5t157.5 -167t56 -252.5q0 -188 -101 -373t-247 -279t-324 -94q-205 0 -331.5 128t-126.5 337q0 200 101 386.5t248 279.5t340 93zM826 1125q-116 0 -213.5 -68.5t-159.5 -214t-62 -337.5q0 -220 97 -339.5t242 -119.5q108 0 204.5 71
t159 223.5t62.5 350.5q0 205 -95.5 319.5t-234.5 114.5zM932 1616h151l73 -291h-57l-104 183l-268 -183h-64z" />
    <glyph glyph-name="apple" unicode="&#xf000;" horiz-adv-x="1618" 
 />
    <glyph glyph-name="Ograve" unicode="&#xd2;" horiz-adv-x="1229" 
d="M899 1197q126 0 227.5 -58.5t157.5 -167t56 -252.5q0 -188 -101 -373t-247 -279t-324 -94q-205 0 -331.5 128t-126.5 337q0 200 101 386.5t248 279.5t340 93zM826 1125q-116 0 -213.5 -68.5t-159.5 -214t-62 -337.5q0 -220 97 -339.5t242 -119.5q108 0 204.5 71
t159 223.5t62.5 350.5q0 205 -95.5 319.5t-234.5 114.5zM725 1615h167l110 -290h-60z" />
    <glyph glyph-name="Uacute" unicode="&#xda;" horiz-adv-x="1515" 
d="M928 1195q-101 -178 -199 -453q-69 -195 -69 -326q0 -146 70.5 -227t176.5 -81q100 0 188 50q117 66 216.5 201t162.5 323.5t63 352.5q0 114 -49 216q-26 52 -29 62q-4 14 -4 30q0 30 18.5 49t45.5 19q47 0 74 -50q39 -68 39 -211q0 -306 -134 -609t-309.5 -433
t-368.5 -130q-157 0 -241 104.5t-84 257.5q0 126 39 258q51 173 211 517q-125 3 -224 -30.5t-142.5 -85.5t-43.5 -103q0 -21 23 -57q24 -41 24 -64q0 -29 -18 -48t-45 -19q-33 0 -57.5 30t-24.5 78q0 77 45 154.5t116.5 124.5t176.5 69q52 11 216 20q112 6 137 11z
M1340 1615h190l-339 -290h-59z" />
    <glyph glyph-name="Ucircumflex" unicode="&#xdb;" horiz-adv-x="1515" 
d="M928 1195q-101 -178 -199 -453q-69 -195 -69 -326q0 -146 70.5 -227t176.5 -81q100 0 188 50q117 66 216.5 201t162.5 323.5t63 352.5q0 114 -49 216q-26 52 -29 62q-4 14 -4 30q0 30 18.5 49t45.5 19q47 0 74 -50q39 -68 39 -211q0 -306 -134 -609t-309.5 -433
t-368.5 -130q-157 0 -241 104.5t-84 257.5q0 126 39 258q51 173 211 517q-125 3 -224 -30.5t-142.5 -85.5t-43.5 -103q0 -21 23 -57q24 -41 24 -64q0 -29 -18 -48t-45 -19q-33 0 -57.5 30t-24.5 78q0 77 45 154.5t116.5 124.5t176.5 69q52 11 216 20q112 6 137 11z
M1159 1616h151l73 -291h-57l-104 183l-268 -183h-64z" />
    <glyph glyph-name="Ugrave" unicode="&#xd9;" horiz-adv-x="1515" 
d="M928 1195q-101 -178 -199 -453q-69 -195 -69 -326q0 -146 70.5 -227t176.5 -81q100 0 188 50q117 66 216.5 201t162.5 323.5t63 352.5q0 114 -49 216q-26 52 -29 62q-4 14 -4 30q0 30 18.5 49t45.5 19q47 0 74 -50q39 -68 39 -211q0 -306 -134 -609t-309.5 -433
t-368.5 -130q-157 0 -241 104.5t-84 257.5q0 126 39 258q51 173 211 517q-125 3 -224 -30.5t-142.5 -85.5t-43.5 -103q0 -21 23 -57q24 -41 24 -64q0 -29 -18 -48t-45 -19q-33 0 -57.5 30t-24.5 78q0 77 45 154.5t116.5 124.5t176.5 69q52 11 216 20q112 6 137 11z
M1024 1615h167l110 -290h-60z" />
    <glyph glyph-name="dotlessi" unicode="&#x131;" horiz-adv-x="491" 
d="M206 609l-44 34q100 110 182.5 156.5t140.5 46.5q32 0 49 -14t17 -38q0 -29 -65 -246q-106 -355 -106 -428q0 -14 7 -23.5t15 -9.5q10 0 32 14q56 37 99 80q20 19 33 30l40 -38q-122 -111 -148 -130q-57 -42 -106 -61q-25 -10 -49 -10q-36 0 -56.5 21.5t-20.5 61.5
q0 72 40 224q69 269 109 387q8 24 8 41q0 20 -18 20q-20 0 -45.5 -16t-113.5 -102z" />
    <glyph glyph-name="circumflex" unicode="&#x2c6;" horiz-adv-x="696" 
d="M629 1254h151l73 -291h-57l-104 183l-268 -183h-64z" />
    <glyph glyph-name="tilde" unicode="&#x2dc;" horiz-adv-x="901" 
d="M998 1187h57q-28 -92 -82.5 -141t-115.5 -49q-31 0 -56 6q-13 3 -67 29q-56 26 -71 31q-22 6 -44 6q-27 0 -46 -15t-40 -57h-55q24 99 74.5 144.5t109.5 45.5q44 0 133 -35q84 -33 118 -33q32 0 56.5 19.5t28.5 48.5z" />
    <glyph glyph-name="macron" unicode="&#x2c9;" horiz-adv-x="901" 
d="M526 1045h463l-52 -86h-460z" />
    <glyph glyph-name="breve" unicode="&#x2d8;" horiz-adv-x="901" 
d="M556 1241h53q11 -70 20 -85q15 -25 48 -41.5t75 -16.5q73 0 140 42q41 26 95 101h58q-70 -139 -149.5 -208.5t-169.5 -69.5q-75 0 -123 60.5t-48 185.5q0 10 1 32z" />
    <glyph glyph-name="dotaccent" unicode="&#x2d9;" horiz-adv-x="451" 
d="M528 1192q42 0 71.5 -29.5t29.5 -71.5q0 -43 -29.5 -72.5t-71.5 -29.5t-72 29.5t-30 72.5q0 42 30 71.5t72 29.5z" />
    <glyph glyph-name="ring" unicode="&#x2da;" horiz-adv-x="614" 
d="M622 1283q72 0 123 -51.5t51 -123.5t-51 -123.5t-123 -51.5q-73 0 -124 51.5t-51 123.5t51 123.5t124 51.5zM621 1213q-43 0 -74 -31t-31 -74q0 -44 31 -75t74 -31q44 0 74.5 31t30.5 75q0 43 -30.5 74t-74.5 31z" />
    <glyph glyph-name="cedilla" unicode="&#xb8;" horiz-adv-x="614" 
d="M357 19h65l-61 -113q56 -8 82.5 -37.5t26.5 -69.5q0 -70 -85 -141.5t-240 -96.5l19 60q92 19 148 67q39 33 39 75q0 32 -25 53.5t-61 21.5q-6 0 -16 -1z" />
    <glyph glyph-name="hungarumlaut" unicode="&#x2dd;" horiz-adv-x="819" 
d="M164 926l177 332l227 3l-341 -334zM465 926l177 332l226 3l-340 -334z" />
    <glyph glyph-name="ogonek" unicode="&#x2db;" horiz-adv-x="573" 
d="M241 16h69q-65 -102 -65 -192q0 -56 36 -91.5t95 -35.5q23 0 59 4l-27 -60q-71 -17 -122 -17q-67 0 -107.5 38t-40.5 93q0 107 103 261z" />
    <glyph glyph-name="caron" unicode="&#x2c7;" horiz-adv-x="696" 
d="M475 1255h61l98 -181l273 181h58l-264 -291h-153z" />
    <glyph glyph-name="Lslash" unicode="&#x141;" horiz-adv-x="1188" 
d="M566 542q-64 -260 -105 -361q-28 -70 -68 -116q151 34 228 34q81 0 255 -41q97 -23 136 -23q38 0 64.5 23.5t26.5 52.5q0 19 -14 54q-13 35 -13 51q0 25 16 41.5t41 16.5q31 0 52 -26.5t21 -74.5q0 -85 -72.5 -148t-194.5 -63q-60 0 -157 9q-324 29 -424 29
q-135 0 -260 -17l12 54q129 25 168 70q49 56 113 339l-238 -131l18 81l239 132q64 250 100 324q58 122 133 200.5t157 115t155 36.5q78 0 132.5 -39.5t54.5 -80.5q0 -27 -16.5 -44t-39.5 -17q-27 0 -73 40q-78 67 -126 67q-68 0 -129 -86q-105 -146 -171 -418l342 188
l-16 -81z" />
    <glyph glyph-name="lslash" unicode="&#x142;" horiz-adv-x="614" 
d="M515 627l-44 -184l-66 -289q-7 -29 -7 -41q0 -31 24 -31q18 0 41 13q32 18 112 85q60 49 76 61l34 -36q-77 -88 -184 -160.5t-175 -72.5q-31 0 -51.5 23.5t-20.5 63.5q0 80 62 333l31 122l-212 -141l21 90l213 142l56 226q62 253 94 317q57 116 174.5 188.5t244.5 72.5
q43 0 67 -20t24 -50q0 -29 -25 -51t-67 -22q-30 0 -86 10q-47 8 -88 8q-42 0 -63 -17q-28 -24 -50.5 -96.5t-78.5 -308.5l-35 -145l304 203l-22 -90z" />
    <glyph glyph-name="Scaron" unicode="&#x160;" horiz-adv-x="942" 
d="M1029 811h-52q11 105 11 159q0 77 -41.5 121.5t-112.5 44.5q-110 0 -192 -79.5t-82 -178.5q0 -53 22.5 -96t99.5 -120q141 -138 185 -216t44 -152q0 -109 -66.5 -210t-196 -166.5t-273.5 -65.5q-142 0 -239.5 74t-97.5 156q0 44 25.5 73t58.5 29q34 0 56 -27
q14 -16 28 -72q16 -68 39 -98.5t63.5 -50t88.5 -19.5q143 0 250 96.5t107 213.5q0 40 -13.5 79.5t-49.5 89.5q-25 34 -111 120q-85 84 -107 115q-31 45 -46 90.5t-15 90.5q0 91 61 183t158.5 146.5t221.5 54.5q62 0 153 -19q52 -10 90 -15q-22 -65 -34 -122.5t-33 -228.5z
M719 1618h61l98 -181l273 181h58l-264 -291h-153z" />
    <glyph glyph-name="scaron" unicode="&#x161;" horiz-adv-x="655" 
d="M613 842q89 0 137.5 -34.5t48.5 -79.5q0 -27 -20.5 -47t-49.5 -20q-19 0 -33 8.5t-40 42.5q-49 65 -97 65q-41 0 -72.5 -31.5t-31.5 -78.5q0 -41 20 -79.5t101 -124.5q111 -118 111 -224t-90 -185.5t-232 -79.5q-119 0 -177 48.5t-58 119.5q0 35 22 58t54 23
q28 0 48 -18.5t20 -43.5q0 -10 -2 -26q-1 -13 -1 -22q0 -33 28 -56q27 -23 74 -23q54 0 95 18.5t64 56t23 74.5q0 36 -21.5 72t-96.5 119q-104 116 -104 223q0 98 79 171.5t201 73.5zM454 1255h61l98 -181l273 181h58l-264 -291h-153z" />
    <glyph glyph-name="Zcaron" unicode="&#x17d;" horiz-adv-x="1270" 
d="M1127 1047q-65 -15 -134 -15q-111 0 -262 43q-93 26 -118 26q-43 0 -65.5 -17.5t-22.5 -42.5q0 -28 32 -52q33 -26 41.5 -40t8.5 -34q0 -25 -18 -43t-43 -18q-40 0 -69 37t-29 100q0 88 66 150t163 62q62 0 148 -13q196 -30 292 -30q98 0 187 45q25 12 35 12
q13 0 23.5 -9t10.5 -18q0 -31 -93 -114q-97 -86 -182 -175l-500 -518l-286 -309q216 62 326 62q158 0 339 -66q100 -36 140 -36q46 0 68.5 20t22.5 58q0 20 -10 46q-12 31 -12 45q0 28 20 49t47 21q30 0 51.5 -24.5t21.5 -65.5q0 -97 -77 -160t-175 -63q-59 0 -206 19
q-168 21 -361 21q-223 0 -298 -31q-30 -12 -45 -12q-11 0 -21 9q-7 8 -7 20q0 29 38 65q41 39 152 155l282 288l300 306q110 112 219 247zM833 1618h61l98 -181l273 181h58l-264 -291h-153z" />
    <glyph glyph-name="zcaron" unicode="&#x17e;" horiz-adv-x="901" 
d="M806 737q-91 -25 -167 -25q-42 0 -93 5q-71 8 -95 8q-30 0 -46 -14t-16 -36q0 -34 36 -37q45 -5 45 -41q0 -17 -14 -30.5t-32 -13.5q-36 0 -66.5 35.5t-30.5 88.5q0 68 57 117t141 49q44 0 119 -12q121 -19 174 -19q54 0 101 36q22 16 36 16q12 0 20.5 -7.5t8.5 -14.5
q0 -10 -11 -22q-34 -42 -155 -158l-310 -297l-226 -210q57 6 89 6q45 0 82 -7.5t119 -34.5q107 -37 174 -37q42 0 64.5 19.5t22.5 49.5q0 17 -16 48q-14 30 -14 46q0 24 16 41t40 17q29 0 48.5 -23.5t19.5 -60.5q0 -56 -41 -117.5t-103 -94.5t-153 -33q-75 0 -219 43
q-120 35 -176 35q-34 0 -79 -36q-26 -22 -45 -22q-37 0 -37 18q0 17 21 41q56 66 284 273l270 255zM577 1255h61l98 -181l273 181h58l-264 -291h-153z" />
    <glyph glyph-name="brokenbar" unicode="&#xa6;" horiz-adv-x="1065" 
d="M667 516v892h111v-837zM667 -499v837l111 55v-892h-111z" />
    <glyph glyph-name="Eth" unicode="&#xd0;" horiz-adv-x="1434" 
d="M642 609q10 36 30 125l38 155q6 24 6 41q0 16 -10 25.5t-28 9.5q-7 0 -28 -3l10 43q109 9 257 44q-62 -191 -76 -252l-44 -188h357l-16 -64h-357q-40 -171 -88 -301.5t-78 -181.5q86 -17 152 -17q175 0 305 73.5t206.5 214.5t76.5 311q0 223 -130 358.5t-340 135.5
q-177 0 -334 -84t-248.5 -222.5t-91.5 -270.5q0 -126 112 -187q32 -18 41.5 -30.5t9.5 -31.5q0 -24 -19.5 -43.5t-42.5 -19.5q-52 0 -102 72q-68 97 -68 200q0 172 102.5 332.5t285.5 255.5t407 95q276 0 439.5 -147.5t163.5 -370.5q0 -207 -114 -380.5t-275.5 -247
t-322.5 -73.5q-52 0 -180 10q-108 8 -205 8q-45 0 -137 -3l23 49q93 5 117 17.5t46 51.5q32 60 77 211l56 216h-227l15 64h229z" />
    <glyph glyph-name="eth" unicode="&#xf0;" horiz-adv-x="819" 
d="M494 1413h65q71 -100 143 -216l259 38l10 -53l-245 -35q81 -128 130 -290.5t49 -297.5q0 -225 -167 -415q-153 -174 -326 -174q-105 0 -172.5 73t-67.5 186q0 150 73.5 301t174.5 224.5t200 73.5q40 0 82 -27q-21 98 -35 150l-56 178l-309 -46l-9 55l299 44zM587 765
q-55 0 -108.5 -44.5t-95 -163.5t-41.5 -240q0 -136 48 -211q36 -57 93 -57q53 0 107.5 45.5t97 158.5t42.5 230q0 123 -35.5 202.5t-107.5 79.5z" />
    <glyph glyph-name="Yacute" unicode="&#xdd;" horiz-adv-x="1147" 
d="M1090 59l-21 -59q-62 -16 -106 -16q-47 0 -124 8q-73 8 -116 8q-61 0 -187 -14l17 51q94 24 118 52t80 239.5t56 278.5q0 134 -52 275t-130 228q-147 -54 -210.5 -101.5t-102 -116.5t-38.5 -121q0 -51 46 -95q39 -38 39 -67q0 -26 -15.5 -43t-38.5 -17q-41 0 -69 40
q-38 55 -38 132q0 111 62 209t173 164q65 39 214 83q55 16 99 33q84 -101 135 -237.5t70 -338.5q186 390 354.5 548.5t274.5 158.5q33 0 54 -19t21 -47q0 -29 -24.5 -47t-95.5 -23q-70 -5 -108 -28q-75 -46 -176.5 -170t-200.5 -310t-151 -387.5t-56 -262.5q47 -8 93 -8
q70 0 154 20zM1180 1615h190l-339 -290h-59z" />
    <glyph glyph-name="yacute" unicode="&#xfd;" horiz-adv-x="819" 
d="M171 638l-32 47l74 50q108 74 152 95q25 12 46 12t40 -24q88 -111 148 -299.5t60 -365.5q0 -23 -2 -70q169 311 169 494q0 38 -17 101q-18 70 -18 100q0 29 18.5 48t46.5 19q35 0 56.5 -27t21.5 -77q0 -129 -59 -321.5t-185.5 -414t-231 -329t-202 -154t-184.5 -46.5
q-66 0 -99.5 24.5t-33.5 58.5q0 30 26 51.5t70 21.5q34 0 93 -13q63 -14 86 -14q61 0 129 51q93 70 147.5 167t54.5 196q0 139 -40.5 334t-114.5 298q-37 53 -79 53q-49 0 -140 -66zM775 1253h190l-339 -290h-59z" />
    <glyph glyph-name="Thorn" unicode="&#xde;" horiz-adv-x="1106" 
d="M1068 1194l-19 -57q-19 -3 -56 -8q-67 -9 -90 -21.5t-36 -34.5t-39 -115q32 1 53 1q178 0 274.5 -82.5t96.5 -212.5q0 -176 -161 -286t-363 -110q-32 0 -86 3l-60 -221q70 -19 126 -19q42 0 120 12l-8 -57q-62 -8 -104 -8q-43 0 -142 11q-98 11 -144 11q-78 0 -183 -24
l13 60q104 14 149 52.5t70 136.5l172 648q-207 -41 -306 -134.5t-99 -199.5q0 -57 52 -102q39 -32 50 -49q7 -10 7 -25q0 -25 -15.5 -41t-41.5 -16q-48 0 -90.5 55.5t-42.5 137.5q0 153 128 276t376 167l34 173l-41 2q-46 0 -122 -16l16 59q127 14 218 14q137 0 163 3
q47 4 131 17zM659 329q35 -1 58 -1q155 0 255.5 99.5t100.5 243.5q0 103 -65.5 160t-202.5 57z" />
    <glyph glyph-name="thorn" unicode="&#xfe;" horiz-adv-x="901" 
d="M494 593q153 153 209 189q94 61 173 61q50 0 85 -48t35 -145q0 -242 -151 -460t-334 -218q-72 0 -144 39l-85 -330q-8 -30 -8 -49q0 -37 28 -53q43 -25 181 -41l-13 -50q-136 13 -253 13q-95 0 -246 -13l13 50q76 8 110.5 41.5t55.5 121.5l295 1228q43 183 107.5 276
t169.5 149.5t208 56.5q43 0 67.5 -21t24.5 -53q0 -27 -24 -47.5t-67 -20.5q-24 0 -61 5q-84 12 -121 12q-44 0 -70.5 -33t-63.5 -178zM391 121q79 -79 162 -79q120 0 210.5 187.5t90.5 364.5q0 57 -25.5 86.5t-68.5 29.5q-48 0 -108 -47q-93 -73 -142 -145q-35 -52 -66 -180
z" />
    <glyph glyph-name="minus" unicode="&#x2212;" horiz-adv-x="1229" 
d="M356 643h885v-111h-885v111z" />
    <glyph glyph-name="multiply" unicode="&#xd7;" horiz-adv-x="1065" 
d="M794 585l293 -293l-78 -78l-293 293l-293 -293l-79 78l294 293l-294 294l78 78l294 -294l293 294l78 -79z" />
    <glyph glyph-name="onesuperior" unicode="&#xb9;" horiz-adv-x="541" 
d="M651 1206l-45 -156q-32 -106 -46 -158l-37 -140q-32 -109 -32 -126q0 -9 6.5 -12t101.5 -14l-17 -37q-132 12 -185 12q-72 0 -175 -14l15 39q105 18 120 29t30 51q47 126 78 256l25 97q6 23 6 34q0 9 -10 9q-13 0 -122 -46l-18 39q101 36 155 64.5t112 72.5h38z" />
    <glyph glyph-name="twosuperior" unicode="&#xb2;" horiz-adv-x="541" 
d="M350 1030l-49 21q49 84 101.5 117t121.5 33q76 0 125 -42.5t49 -99.5q0 -34 -15.5 -68.5t-55.5 -75.5q-23 -25 -135 -108q-135 -102 -186 -159q99 2 150 2h51q30 0 41.5 7.5t47.5 57.5h66q-56 -66 -92 -155q-92 15 -195 15q-56 0 -194 -8l15 41q55 71 166 161
q119 96 158 148q52 68 52 122q0 43 -25 69t-64 26q-32 0 -63.5 -21.5t-69.5 -82.5z" />
    <glyph glyph-name="threesuperior" unicode="&#xb3;" horiz-adv-x="541" 
d="M373 1061l-41 25q104 111 207 111q60 0 94.5 -26.5t34.5 -64.5t-27 -75q-37 -51 -101 -90q56 -6 87 -38.5t31 -81.5q0 -92 -103 -178t-228 -86q-61 0 -102 26q-30 19 -30 43q0 15 12 25.5t32 10.5q23 0 58 -29q37 -30 64 -30q53 0 113.5 62.5t60.5 129.5q0 39 -21.5 61.5
t-58.5 22.5q-32 0 -84 -16l7 46q79 24 138 81q40 39 40 80q0 28 -15.5 44t-42.5 16q-61 0 -125 -69z" />
    <glyph glyph-name="onehalf" unicode="&#xbd;" horiz-adv-x="1352" 
d="M725 1206l-45 -156q-32 -106 -46 -158l-37 -140q-32 -109 -32 -126q0 -9 6.5 -12t101.5 -14l-17 -37q-132 12 -185 12q-72 0 -175 -14l15 39q105 18 120 29t30 51q47 126 78 256l25 97q6 23 6 34q0 9 -10 9q-13 0 -122 -46l-18 39q101 36 155 64.5t112 72.5h38zM468 -7
l147 252l365 667l151 286q25 -7 80 -14q-92 -149 -173 -298l-321 -585q-88 -160 -164 -316q-41 6 -85 8zM985 457l-49 21q49 84 101.5 117t121.5 33q76 0 125 -42.5t49 -99.5q0 -34 -15.5 -68.5t-55.5 -75.5q-23 -25 -135 -108q-135 -102 -186 -159q99 2 150 2h51
q30 0 41.5 7.5t47.5 57.5h66q-56 -66 -92 -155q-92 15 -195 15q-56 0 -194 -8l15 41q55 71 166 161q119 96 158 148q52 68 52 122q0 43 -25 69t-64 26q-32 0 -63.5 -21.5t-69.5 -82.5z" />
    <glyph glyph-name="onequarter" unicode="&#xbc;" horiz-adv-x="1352" 
d="M730 1206l-45 -156q-32 -106 -46 -158l-37 -140q-32 -109 -32 -126q0 -9 6.5 -12t101.5 -14l-17 -37q-132 12 -185 12q-72 0 -175 -14l15 39q105 18 120 29t30 51q47 126 78 256l25 97q6 23 6 34q0 9 -10 9q-13 0 -122 -46l-18 39q101 36 155 64.5t112 72.5h38zM473 -7
l147 252l365 667l151 286q25 -7 80 -14q-92 -149 -173 -298l-321 -585q-88 -160 -164 -316q-41 6 -85 8zM1306 218l-16 -63h-91l-43 -170h-107l43 170q-162 2 -231 -2q-38 -2 -38 16q0 24 79 114q157 177 395 345h36q-7 -20 -60 -198l-58 -212h91zM1107 221q24 92 71 253
q-142 -111 -256 -253h185z" />
    <glyph glyph-name="threequarters" unicode="&#xbe;" horiz-adv-x="1352" 
d="M463 1061l-41 25q104 111 207 111q60 0 94.5 -26.5t34.5 -64.5t-27 -75q-37 -51 -101 -90q56 -6 87 -38.5t31 -81.5q0 -92 -103 -178t-228 -86q-61 0 -102 26q-30 19 -30 43q0 15 12 25.5t32 10.5q23 0 58 -29q37 -30 64 -30q53 0 113.5 62.5t60.5 129.5q0 39 -21.5 61.5
t-58.5 22.5q-32 0 -84 -16l7 46q79 24 138 81q40 39 40 80q0 28 -15.5 44t-42.5 16q-61 0 -125 -69zM484 -7l147 252l365 667l151 286q25 -7 80 -14q-92 -149 -173 -298l-321 -585q-88 -160 -164 -316q-41 6 -85 8zM1318 218l-16 -63h-91l-43 -170h-107l43 170
q-162 2 -231 -2q-38 -2 -38 16q0 24 79 114q157 177 395 345h36q-7 -20 -60 -198l-58 -212h91zM1119 221q24 92 71 253q-142 -111 -256 -253h185z" />
    <glyph glyph-name="franc" unicode="&#x20a3;" horiz-adv-x="1186" 
d="M726 312h208l-16 -64h-211q-31 -107 -64 -193q80 -13 143 -13q41 0 81 7l-17 -57q-29 -4 -54 -4q-22 0 -138 7q-69 5 -117 5q-97 0 -207 -18l12 55q81 17 110 35t46 46.5t47 129.5h-167l15 64h171l63 223l145 570q-134 -4 -234.5 -60t-160 -150.5t-59.5 -191.5
q0 -39 10 -80q5 -23 28 -66q29 -53 29 -74t-17 -36.5t-44 -15.5q-40 0 -65 42q-34 56 -34 159q0 201 157 370q157 168 414 168h384q64 0 141 8q23 2 99 21q-51 -209 -61 -267h-54q17 84 17 108q0 33 -23 49t-87 16l-64 -1l-21 1h-200l-32 -117q-54 -194 -82 -318h195
q71 0 92 14t32 58q1 5 3 13h54q-31 -126 -54 -263h-55q7 57 7 67q0 24 -24 36q-14 7 -76 9h-191q-29 -140 -74 -292z" />
    <glyph glyph-name="Gbreve" unicode="&#x11e;" horiz-adv-x="1270" 
d="M1331 796h-54q5 47 5 83q0 135 -69.5 197t-171.5 62q-141 0 -283 -95.5t-232.5 -266.5t-90.5 -357q0 -189 89.5 -278t200.5 -89q66 0 126.5 17.5t115.5 51.5q46 157 46 209q0 25 -18.5 39.5t-65.5 14.5q-16 0 -77 -5l9 49q44 8 89 8q36 0 89 -2q41 -1 61 -1q36 0 110 6
q39 3 67 4l-11 -51q-50 1 -71 -21.5t-44 -117.5q-82 -341 -162 -493.5t-182 -219t-220 -66.5q-100 0 -161.5 45.5t-61.5 95.5q0 27 19.5 46t44.5 19q34 0 77 -48q49 -54 76.5 -70t58.5 -16q63 0 111 49q98 97 193 449q-66 -36 -134 -54.5t-139 -18.5q-176 0 -277 93
q-135 124 -135 346q0 202 102.5 380t285 293t346.5 115q89 0 209 -28q121 -27 184 -28q-55 -190 -55 -346zM857 1603h53q11 -70 20 -85q15 -25 48 -41.5t75 -16.5q73 0 140 42q41 26 95 101h58q-70 -139 -149.5 -208.5t-169.5 -69.5q-75 0 -123 60.5t-48 185.5q0 10 1 32z
" />
    <glyph glyph-name="gbreve" unicode="&#x11f;" horiz-adv-x="819" 
d="M847 848l81 18q-73 -234 -134 -469q-44 -168 -61 -280q-9 -56 -10 -142q-2 -144 -32 -232q-42 -123 -156.5 -198t-271.5 -75q-135 0 -212.5 63.5t-77.5 145.5q0 81 62 151q46 53 192 128q74 39 139 80q-74 -38 -115 -38q-37 0 -65.5 34.5t-28.5 91.5q0 184 109.5 365.5
t263.5 272.5q95 56 238 56q28 0 69 -2zM735 700q-48 9 -85 9q-95 0 -163 -50t-116 -168q-67 -167 -67 -281q0 -47 26.5 -79t59.5 -32q40 0 99 38.5t96.5 96.5t76.5 200zM599 155q-68 -61 -262 -195q-171 -116 -210 -167q-39 -52 -39 -110q0 -57 50.5 -102.5t122.5 -45.5
q68 0 132 33.5t111.5 97t65.5 143.5t19 212q1 29 10 134zM515 1241h53q11 -70 20 -85q15 -25 48 -41.5t75 -16.5q73 0 140 42q41 26 95 101h58q-70 -139 -149.5 -208.5t-169.5 -69.5q-75 0 -123 60.5t-48 185.5q0 10 1 32z" />
    <glyph glyph-name="Idotaccent" unicode="&#x130;" horiz-adv-x="778" 
d="M970 1183l-17 -54q-113 -7 -150 -28q-24 -14 -40 -42q-19 -36 -111 -382q-30 -114 -153 -623q70 -23 177 -20l-16 -48q-32 -1 -128 8q-69 6 -161 6q-127 0 -233 -19l12 53q110 17 167 44q14 7 22 17q15 18 32.5 72.5t119.5 445.5q30 113 122 494q-69 2 -169 -19l19 55
q42 11 86 15.5t199 8.5q145 4 222 16zM764 1554q42 0 71.5 -29.5t29.5 -71.5q0 -43 -29.5 -72.5t-71.5 -29.5t-72 29.5t-30 72.5q0 42 30 71.5t72 29.5z" />
    <glyph glyph-name="Scedilla" unicode="&#x15e;" horiz-adv-x="942" 
d="M1029 811h-52q11 105 11 159q0 77 -41.5 121.5t-112.5 44.5q-110 0 -192 -79.5t-82 -178.5q0 -53 22.5 -96t99.5 -120q141 -138 185 -216t44 -152q0 -109 -66.5 -210t-196 -166.5t-273.5 -65.5q-142 0 -239.5 74t-97.5 156q0 44 25.5 73t58.5 29q34 0 56 -27
q14 -16 28 -72q16 -68 39 -98.5t63.5 -50t88.5 -19.5q143 0 250 96.5t107 213.5q0 40 -13.5 79.5t-49.5 89.5q-25 34 -111 120q-85 84 -107 115q-31 45 -46 90.5t-15 90.5q0 91 61 183t158.5 146.5t221.5 54.5q62 0 153 -19q52 -10 90 -15q-22 -65 -34 -122.5t-33 -228.5z
M356 -108h65l-61 -113q56 -8 82.5 -37.5t26.5 -69.5q0 -70 -85 -141.5t-240 -96.5l19 60q92 19 148 67q39 33 39 75q0 32 -25 53.5t-61 21.5q-6 0 -16 -1z" />
    <glyph glyph-name="scedilla" unicode="&#x15f;" horiz-adv-x="655" 
d="M613 842q89 0 137.5 -34.5t48.5 -79.5q0 -27 -20.5 -47t-49.5 -20q-19 0 -33 8.5t-40 42.5q-49 65 -97 65q-41 0 -72.5 -31.5t-31.5 -78.5q0 -41 20 -79.5t101 -124.5q111 -118 111 -224t-90 -185.5t-232 -79.5q-119 0 -177 48.5t-58 119.5q0 35 22 58t54 23
q28 0 48 -18.5t20 -43.5q0 -10 -2 -26q-1 -13 -1 -22q0 -33 28 -56q27 -23 74 -23q54 0 95 18.5t64 56t23 74.5q0 36 -21.5 72t-96.5 119q-104 116 -104 223q0 98 79 171.5t201 73.5zM377 19h65l-61 -113q56 -8 82.5 -37.5t26.5 -69.5q0 -70 -85 -141.5t-240 -96.5l19 60
q92 19 148 67q39 33 39 75q0 32 -25 53.5t-61 21.5q-6 0 -16 -1z" />
    <glyph glyph-name="Cacute" unicode="&#x106;" horiz-adv-x="1065" 
d="M1192 764h-54q5 78 5 125q0 141 -58.5 196.5t-147.5 55.5q-119 0 -247 -96.5t-220 -301t-92 -420.5q0 -209 85.5 -320.5t214.5 -111.5q175 0 321 210q15 21 31 21q13 0 22 -8.5t9 -19.5q0 -27 -66.5 -106t-167.5 -131.5t-199 -52.5q-118 0 -219 61.5t-157 175.5t-56 271
q0 219 114.5 436t286.5 335t336 118q59 0 117 -13q25 -6 206 -69q-57 -172 -64 -355zM1022 1615h190l-339 -290h-59z" />
    <glyph glyph-name="cacute" unicode="&#x107;" horiz-adv-x="696" 
d="M723 217l21 -58q-238 -187 -402 -187q-87 0 -126.5 62t-39.5 157q0 158 84 325t204 256q94 69 212 69q74 0 112 -28t38 -68q0 -31 -20 -50.5t-56 -19.5q-35 0 -90 32q-57 34 -95 34q-49 0 -97.5 -44.5t-92.5 -172.5t-44 -257q0 -95 37 -147q27 -40 76 -40q117 0 279 137z
M750 1253h190l-339 -290h-59z" />
    <glyph glyph-name="Ccaron" unicode="&#x10c;" horiz-adv-x="1065" 
d="M1192 764h-54q5 78 5 125q0 141 -58.5 196.5t-147.5 55.5q-119 0 -247 -96.5t-220 -301t-92 -420.5q0 -209 85.5 -320.5t214.5 -111.5q175 0 321 210q15 21 31 21q13 0 22 -8.5t9 -19.5q0 -27 -66.5 -106t-167.5 -131.5t-199 -52.5q-118 0 -219 61.5t-157 175.5t-56 271
q0 219 114.5 436t286.5 335t336 118q59 0 117 -13q25 -6 206 -69q-57 -172 -64 -355zM779 1618h61l98 -181l273 181h58l-264 -291h-153z" />
    <glyph glyph-name="ccaron" unicode="&#x10d;" horiz-adv-x="696" 
d="M723 217l21 -58q-238 -187 -402 -187q-87 0 -126.5 62t-39.5 157q0 158 84 325t204 256q94 69 212 69q74 0 112 -28t38 -68q0 -31 -20 -50.5t-56 -19.5q-35 0 -90 32q-57 34 -95 34q-49 0 -97.5 -44.5t-92.5 -172.5t-44 -257q0 -95 37 -147q27 -40 76 -40q117 0 279 137z
M511 1255h61l98 -181l273 181h58l-264 -291h-153z" />
    <glyph glyph-name="dmacron" unicode="&#x111;" horiz-adv-x="901" 
d="M805 1020h-246l16 64h254q41 100 110 172.5t160 112t174 39.5q40 0 64 -21t24 -53q0 -31 -22 -50.5t-60 -19.5q-25 0 -93 10t-93 10q-43 0 -72.5 -32t-52.5 -124l-11 -44h262l-15 -64h-263l-33 -137l-142 -604q-25 -107 -25 -142q0 -38 29 -38q18 0 42 13q34 19 132 95
l28 -38q-134 -113 -199 -150q-90 -51 -142 -51q-24 0 -39 13.5t-15 30.5t11 56l35 122q-120 -129 -200 -175t-144 -46q-53 0 -89 46.5t-36 136.5q0 142 97.5 326.5t217 273t218.5 88.5q22 0 66 -7q28 117 52 187zM732 723q-80 18 -113 18q-67 0 -131 -52.5t-123.5 -203.5
t-59.5 -263q0 -51 27.5 -83.5t62.5 -32.5q42 0 96 37q77 55 122 134q27 50 73 245z" />
    <glyph glyph-name="overscore" unicode="&#xaf;" horiz-adv-x="1024" 
d="M290 1375h1048v-102h-1048v102z" />
    <glyph glyph-name="middot" unicode="&#xb7;" horiz-adv-x="682" 
d="M649 1147q38 0 65.5 -27t27.5 -66q0 -38 -27.5 -65.5t-65.5 -27.5t-65.5 27.5t-27.5 65.5q0 39 27.5 66t65.5 27z" />
    <glyph glyph-name="foursuperior" unicode="&#xf003;" horiz-adv-x="541" 
d="M693 791l-16 -63h-91l-43 -170h-107l43 170q-162 2 -231 -2q-38 -2 -38 16q0 24 79 114q157 177 395 345h36q-7 -20 -60 -198l-58 -212h91zM494 794q24 92 71 253q-142 -111 -256 -253h185z" />
    <glyph glyph-name="Abreve" unicode="&#x102;" horiz-adv-x="1270" 
d="M1299 44l-10 -57q-36 -3 -63 -3q-39 0 -94 6q-94 10 -119 10q-42 0 -129 -13q31 78 52 164q15 61 32 210q-117 1 -363 -5q-254 -388 -372.5 -487.5t-225.5 -99.5q-56 0 -83.5 21.5t-27.5 55.5q0 26 16 43t40 17q14 0 38 -5q60 -14 80 -14q67 0 148 76q132 124 390 520
q292 448 473 652q-247 -22 -308 -42q-84 -27 -126 -80t-42 -108q0 -18 13 -51q14 -37 14 -54q0 -22 -17 -39t-41 -17q-34 0 -54.5 25.5t-20.5 76.5q0 72 37.5 139.5t107.5 113t175 69.5q54 13 190 23q118 10 148 19q47 13 90 51q-30 -123 -43 -215l-78 -578l-45 -414
q74 -19 133 -19q39 0 85 9zM977 435q48 406 96 593q-127 -168 -157 -212l-257 -381q83 -3 237 -3q38 0 81 3zM980 1603h53q11 -70 20 -85q15 -25 48 -41.5t75 -16.5q73 0 140 42q41 26 95 101h58q-70 -139 -149.5 -208.5t-169.5 -69.5q-75 0 -123 60.5t-48 185.5q0 10 1 32z
" />
    <glyph glyph-name="abreve" unicode="&#x103;" horiz-adv-x="860" 
d="M856 858l66 14l-75 -253q-45 -151 -85 -348q-22 -107 -22 -138t25 -31q16 0 51 21q62 37 119 92l32 -39q-114 -104 -146 -126q-64 -44 -122 -65q-38 -14 -74 -14q-26 0 -39 12t-13 35q0 15 8 41l40 136q-86 -103 -205 -177q-73 -46 -134 -46q-58 0 -89 41q-42 55 -42 144
q0 106 56.5 236t151.5 236t200 156q81 38 208 38q32 0 65 -4zM732 705q-54 11 -91 11q-90 0 -157 -49.5t-124.5 -178t-57.5 -256.5q0 -68 23 -98t60 -30q69 0 148 74.5t116 214.5zM544 1241h53q11 -70 20 -85q15 -25 48 -41.5t75 -16.5q73 0 140 42q41 26 95 101h58
q-70 -139 -149.5 -208.5t-169.5 -69.5q-75 0 -123 60.5t-48 185.5q0 10 1 32z" />
    <glyph glyph-name="Aogonek" unicode="&#x104;" horiz-adv-x="1270" 
d="M1299 44l-10 -57q-36 -3 -63 -3q-39 0 -94 6q-94 10 -119 10q-42 0 -129 -13q31 78 52 164q15 61 32 210q-117 1 -363 -5q-254 -388 -372.5 -487.5t-225.5 -99.5q-56 0 -83.5 21.5t-27.5 55.5q0 26 16 43t40 17q14 0 38 -5q60 -14 80 -14q67 0 148 76q132 124 390 520
q292 448 473 652q-247 -22 -308 -42q-84 -27 -126 -80t-42 -108q0 -18 13 -51q14 -37 14 -54q0 -22 -17 -39t-41 -17q-34 0 -54.5 25.5t-20.5 76.5q0 72 37.5 139.5t107.5 113t175 69.5q54 13 190 23q118 10 148 19q47 13 90 51q-30 -123 -43 -215l-78 -578l-45 -414
q74 -19 133 -19q39 0 85 9zM977 435q48 406 96 593q-127 -168 -157 -212l-257 -381q83 -3 237 -3q38 0 81 3zM922 16h69q-65 -102 -65 -192q0 -56 36 -91.5t95 -35.5q23 0 59 4l-27 -60q-71 -17 -122 -17q-67 0 -107.5 38t-40.5 93q0 107 103 261z" />
    <glyph glyph-name="aogonek" unicode="&#x105;" horiz-adv-x="860" 
d="M856 858l66 14l-75 -253q-45 -151 -85 -348q-22 -107 -22 -138t25 -31q16 0 51 21q62 37 119 92l32 -39q-114 -104 -146 -126q-64 -44 -122 -65q-38 -14 -74 -14q-26 0 -39 12t-13 35q0 15 8 41l40 136q-86 -103 -205 -177q-73 -46 -134 -46q-58 0 -89 41q-42 55 -42 144
q0 106 56.5 236t151.5 236t200 156q81 38 208 38q32 0 65 -4zM732 705q-54 11 -91 11q-90 0 -157 -49.5t-124.5 -178t-57.5 -256.5q0 -68 23 -98t60 -30q69 0 148 74.5t116 214.5zM614 16h69q-65 -102 -65 -192q0 -56 36 -91.5t95 -35.5q23 0 59 4l-27 -60q-71 -17 -122 -17
q-67 0 -107.5 38t-40.5 93q0 107 103 261z" />
    <glyph glyph-name="Dcaron" unicode="&#x10e;" horiz-adv-x="1434" 
d="M650 962l10 43q109 9 257 44q-43 -111 -76 -252l-66 -279q-71 -302 -160 -456q86 -17 152 -17q175 0 305 73.5t206.5 214.5t76.5 311q0 223 -130 358.5t-340 135.5q-177 0 -334 -84t-248.5 -222.5t-91.5 -269.5q0 -128 112 -188q32 -18 41.5 -31t9.5 -32
q0 -24 -18.5 -42.5t-42.5 -18.5q-53 0 -103 70q-68 98 -68 201q0 172 102.5 332.5t285.5 255.5t407 95q276 0 439.5 -147.5t163.5 -370.5q0 -207 -114 -380.5t-275.5 -247t-322.5 -73.5q-52 0 -180 10q-108 8 -205 8q-45 0 -137 -3l23 49q92 5 114.5 16t38.5 37
q29 46 79 200l69 261l80 326q6 24 6 41q0 16 -10 25.5t-28 9.5q-7 0 -28 -3zM929 1618h61l98 -181l273 181h58l-264 -291h-153z" />
    <glyph glyph-name="dcaron" unicode="&#x10f;" horiz-adv-x="988" 
d="M1276 930l-17 64q122 96 122 191q0 22 -24 67q-19 36 -19 67q0 39 24 65.5t62 26.5q42 0 66.5 -31.5t24.5 -75.5q0 -100 -77.5 -209t-161.5 -165zM944 207l28 -38q-231 -201 -341 -201q-55 0 -55 45q0 15 12 55l35 122q-206 -221 -344 -221q-47 0 -86 42.5t-39 140.5
q0 156 108 344.5t221.5 266t203.5 77.5q22 0 66 -7q80 341 194.5 458t229.5 117q36 0 62 -19.5t26 -54.5q0 -68 -74 -68q-22 0 -64 16q-39 14 -51 14q-45 0 -78 -74t-84 -314q-2 -10 -6 -25l-142 -604q-25 -108 -25 -139q0 -42 30 -42q34 0 173 109zM732 723q-80 18 -114 18
q-137 0 -225 -189.5t-88 -330.5q0 -46 25.5 -80.5t64.5 -34.5q49 0 117.5 54.5t99 114.5t74.5 247z" />
    <glyph glyph-name="Dslash" unicode="&#x110;" horiz-adv-x="1434" 
d="M642 609q10 36 30 125l38 155q6 24 6 41q0 16 -10 25.5t-28 9.5q-7 0 -28 -3l10 43q109 9 257 44q-62 -191 -76 -252l-44 -188h357l-16 -64h-357q-40 -171 -88 -301.5t-78 -181.5q86 -17 152 -17q175 0 305 73.5t206.5 214.5t76.5 311q0 223 -130 358.5t-340 135.5
q-177 0 -334 -84t-248.5 -222.5t-91.5 -270.5q0 -126 112 -187q32 -18 41.5 -30.5t9.5 -31.5q0 -24 -19.5 -43.5t-42.5 -19.5q-52 0 -102 72q-68 97 -68 200q0 172 102.5 332.5t285.5 255.5t407 95q276 0 439.5 -147.5t163.5 -370.5q0 -207 -114 -380.5t-275.5 -247
t-322.5 -73.5q-52 0 -180 10q-108 8 -205 8q-45 0 -137 -3l23 49q93 5 117 17.5t46 51.5q32 60 77 211l56 216h-227l15 64h229z" />
    <glyph glyph-name="Eogonek" unicode="&#x118;" horiz-adv-x="1270" 
d="M1312 959h-53q8 51 8 81q0 40 -33.5 52.5t-252.5 12.5l-146 -1l-111 -442h207q98 0 120.5 14.5t32.5 72.5h57q-32 -121 -57 -266h-51q5 47 5 73q0 11 -14 27q-7 8 -26 11q-27 5 -84 5h-205q-89 -340 -185 -533q93 29 165 29q120 0 294 -38q92 -21 125 -21q44 0 71 22
t27 50q0 16 -13 52q-8 25 -8 47q0 23 18.5 41t44.5 18q31 0 51.5 -24t20.5 -64q0 -85 -74.5 -149t-196.5 -64q-64 0 -162 11q-215 24 -328 24q-148 0 -346 -24l16 55q118 33 139 48.5t35 45.5q48 95 124.5 381l155.5 604q-120 0 -227 -57t-167 -148.5t-60 -192.5
q0 -43 8.5 -75t38.5 -90q19 -35 19 -57t-18.5 -39t-45.5 -17q-39 0 -62 39q-34 57 -34 155q0 210 159 377t463 167h343q178 0 263 23q-40 -166 -51 -236zM1104 16h69q-65 -102 -65 -192q0 -56 36 -91.5t95 -35.5q23 0 59 4l-27 -60q-71 -17 -122 -17q-67 0 -107.5 38
t-40.5 93q0 107 103 261z" />
    <glyph glyph-name="eogonek" unicode="&#x119;" horiz-adv-x="696" 
d="M698 251l33 -44q-245 -233 -420 -233q-71 0 -108.5 48t-37.5 154q0 214 130 426q146 241 349 241q71 0 108.5 -35.5t37.5 -97.5q0 -65 -45 -128t-161 -131q-58 -33 -248 -119q-9 -54 -9 -103q0 -71 22.5 -99t65.5 -28q41 0 90 23q66 31 193 126zM348 396q161 72 242 155
q55 58 55 115q0 43 -22.5 68.5t-58.5 25.5q-37 0 -72 -28q-47 -37 -79 -112q-46 -110 -65 -224zM332 16h69q-65 -102 -65 -192q0 -56 36 -91.5t95 -35.5q23 0 59 4l-27 -60q-71 -17 -122 -17q-67 0 -107.5 38t-40.5 93q0 107 103 261z" />
    <glyph glyph-name="Ecaron" unicode="&#x11a;" horiz-adv-x="1270" 
d="M1312 959h-53q8 51 8 81q0 40 -33.5 52.5t-252.5 12.5l-146 -1l-111 -442h207q98 0 120.5 14.5t32.5 72.5h57q-32 -121 -57 -266h-51q5 47 5 73q0 11 -14 27q-7 8 -26 11q-27 5 -84 5h-205q-89 -340 -185 -533q93 29 165 29q120 0 294 -38q92 -21 125 -21q44 0 71 22
t27 50q0 16 -13 52q-8 25 -8 47q0 23 18.5 41t44.5 18q31 0 51.5 -24t20.5 -64q0 -85 -74.5 -149t-196.5 -64q-64 0 -162 11q-215 24 -328 24q-148 0 -346 -24l16 55q118 33 139 48.5t35 45.5q48 95 124.5 381l155.5 604q-120 0 -227 -57t-167 -148.5t-60 -192.5
q0 -43 8.5 -75t38.5 -90q19 -35 19 -57t-18.5 -39t-45.5 -17q-39 0 -62 39q-34 57 -34 155q0 210 159 377t463 167h343q178 0 263 23q-40 -166 -51 -236zM840 1618h61l98 -181l273 181h58l-264 -291h-153z" />
    <glyph glyph-name="ecaron" unicode="&#x11b;" horiz-adv-x="696" 
d="M698 251l33 -44q-245 -233 -420 -233q-71 0 -108.5 48t-37.5 154q0 214 130 426q146 241 349 241q71 0 108.5 -35.5t37.5 -97.5q0 -65 -45 -128t-161 -131q-58 -33 -248 -119q-9 -54 -9 -103q0 -71 22.5 -99t65.5 -28q41 0 90 23q66 31 193 126zM348 396q161 72 242 155
q55 58 55 115q0 43 -22.5 68.5t-58.5 25.5q-37 0 -72 -28q-47 -37 -79 -112q-46 -110 -65 -224zM484 1255h61l98 -181l273 181h58l-264 -291h-153z" />
    <glyph glyph-name="IJ" unicode="&#x132;" horiz-adv-x="1597" 
d="M970 1183l-17 -54q-145 -4 -183.5 -55.5t-268.5 -1011.5q58 -20 143 -20h34l-18 -56h-15q-24 0 -113 8q-69 6 -161 6q-134 0 -233 -19l11 49q175 30 198 71.5t120 420.5l146 585l-27 1q-46 0 -142 -20l19 55q58 18 285 24q154 5 222 16zM1783 1180q-71 -153 -156 -451
l-148 -521q-73 -255 -202 -369t-276 -114q-91 0 -156.5 43t-65.5 101q0 24 17.5 43.5t41.5 19.5q34 0 73 -41q88 -91 160 -91q46 0 79 29.5t59 68.5t120 335.5t173 577.5l88 304l-49 2q-150 0 -258 -74t-108 -164q0 -30 25 -69q24 -36 24 -57q0 -25 -19 -45t-47 -20
q-80 0 -80 122q0 113 81 207t194 129t292 35q26 0 138 -1z" />
    <glyph glyph-name="ij" unicode="&#x133;" horiz-adv-x="942" 
d="M600 1271q31 0 50.5 -20.5t19.5 -52.5q0 -38 -27 -74.5t-71 -36.5q-31 0 -50.5 21.5t-19.5 54.5q0 44 28.5 76t69.5 32zM1102 1271q32 0 51.5 -20.5t19.5 -52.5q0 -40 -28.5 -75.5t-69.5 -35.5q-32 0 -51.5 21.5t-19.5 54.5q0 44 29 76t69 32zM699 605l-33 39
q89 97 188 149.5t146 52.5q52 0 52 -54q0 -17 -15 -72l-189 -695q-76 -279 -176 -414t-263 -135q-68 0 -106.5 26t-38.5 61q0 24 18 41t42 17q28 0 80 -26q60 -30 92 -30q60 0 92 57.5t94 308.5q117 471 185 696q20 64 20 75q0 22 -23 22q-45 0 -165 -119zM201 611l-40 33
q189 202 325 202q65 0 65 -52q0 -29 -65 -246q-106 -356 -106 -425q0 -36 26 -36q28 0 161 121l38 -35q-206 -201 -304 -201q-75 0 -75 84q0 119 138 569q20 65 20 77q0 25 -21 25q-46 0 -162 -116z" />
    <glyph glyph-name="Lacute" unicode="&#x139;" horiz-adv-x="1188" 
d="M98 -17l12 54q105 20 140.5 46t64 92.5t77.5 274.5q65 275 118 396q81 182 201.5 270t243.5 88q79 0 133 -40t54 -83q0 -24 -16.5 -41t-39.5 -17q-30 0 -73 39q-48 42 -74.5 55t-51.5 13q-29 0 -57 -16q-39 -22 -83.5 -83.5t-92.5 -182.5q-31 -82 -79 -270
q-75 -299 -114 -397q-28 -70 -68 -116q143 32 228 32q53 0 98 -6.5t157 -32.5q97 -23 136 -23q38 0 64.5 23.5t26.5 53.5q0 19 -14 53q-13 32 -13 51q0 27 16 42.5t42 15.5q30 0 51 -26.5t21 -72.5q0 -87 -72 -150t-195 -63q-61 0 -157 9q-324 29 -424 29q-147 0 -260 -17z
M1066 1615h190l-339 -290h-59z" />
    <glyph glyph-name="lacute" unicode="&#x13a;" horiz-adv-x="491" 
d="M781 1615h190l-263 -176h-72zM590 241l34 -36q-66 -75 -176.5 -154t-183.5 -79q-71 0 -71 88q0 80 62 332l108 439q58 234 108.5 337t164.5 172t241 69q44 0 68 -20.5t24 -49.5q0 -73 -94 -73q-30 0 -85 10q-48 8 -89 8q-46 0 -71.5 -25.5t-59.5 -150t-55 -224.5
q-3 -10 -5 -22l-145 -612q-28 -120 -28 -136q0 -32 25 -32q30 0 104.5 55t123.5 104z" />
    <glyph glyph-name="Lcaron" unicode="&#x13d;" horiz-adv-x="1188" 
d="M1133 777l-16 53q141 109 141 174q0 24 -19 61q-20 38 -20 62q0 30 21.5 53.5t52.5 23.5q38 0 60.5 -30.5t22.5 -63.5q0 -166 -243 -333zM98 -17l12 54q105 20 144 48.5t68.5 112.5t69.5 252q65 276 132.5 427t187.5 239t243 88q77 0 132 -39.5t55 -83.5q0 -24 -17 -41
t-39 -17q-30 0 -73 39q-77 68 -126 68q-81 0 -159.5 -128.5t-152.5 -423.5q-65 -261 -101 -364t-81 -149q136 32 228 32q90 0 255 -39q97 -23 136 -23q38 0 64.5 23t26.5 54q0 19 -14 53q-13 32 -13 51q0 58 58 58q32 0 52 -27.5t20 -71.5q0 -81 -68.5 -147t-198.5 -66
q-61 0 -157 9q-317 29 -424 29q-147 0 -260 -17z" />
    <glyph glyph-name="lcaron" unicode="&#x13e;" horiz-adv-x="691" 
d="M882 927l-17 65q122 112 122 194q0 21 -24 66q-19 36 -19 67q0 39 24 65.5t62 26.5q42 0 66.5 -31.5t24.5 -75.5q0 -72 -43.5 -157t-195.5 -220zM362 831q80 333 191 455.5t230 122.5q36 0 62 -19.5t26 -54.5q0 -68 -74 -68q-22 0 -64 16q-39 14 -51 14q-46 0 -79 -75
t-88 -338q-2 -8 -5 -22l-142 -597q-31 -132 -31 -151q0 -32 25 -32q22 0 87.5 42.5t140.5 116.5l34 -36q-66 -75 -176.5 -154t-183.5 -79q-71 0 -71 90q0 73 62 330z" />
    <glyph glyph-name="Ldot" unicode="&#x13f;" horiz-adv-x="1188" 
d="M98 -17l12 54q105 20 140.5 46t64 92.5t77.5 274.5q65 275 118 396q81 182 201.5 270t243.5 88q79 0 133 -40t54 -83q0 -24 -16.5 -41t-39.5 -17q-30 0 -73 39q-48 42 -74.5 55t-51.5 13q-29 0 -57 -16q-39 -22 -83.5 -83.5t-92.5 -182.5q-31 -82 -79 -270
q-75 -299 -114 -397q-28 -70 -68 -116q143 32 228 32q53 0 98 -6.5t157 -32.5q97 -23 136 -23q38 0 64.5 23.5t26.5 53.5q0 19 -14 53q-13 32 -13 51q0 27 16 42.5t42 15.5q30 0 51 -26.5t21 -72.5q0 -87 -72 -150t-195 -63q-61 0 -157 9q-324 29 -424 29q-147 0 -260 -17z
M883 684q42 0 71.5 -29.5t29.5 -71.5q0 -43 -29.5 -72.5t-71.5 -29.5t-72 29.5t-30 72.5q0 42 30 71.5t72 29.5z" />
    <glyph glyph-name="ldot" unicode="&#x140;" horiz-adv-x="672" 
d="M590 241l34 -36q-78 -88 -184.5 -160.5t-175.5 -72.5q-31 0 -51 23.5t-20 64.5q0 80 62 332l108 439q59 238 99 319q62 123 175.5 191t239.5 68q43 0 67.5 -20.5t24.5 -49.5q0 -32 -24 -52.5t-70 -20.5q-30 0 -85 10q-48 8 -89 8t-62 -17q-29 -24 -52.5 -101t-76.5 -304
l-99 -419q-74 -315 -74 -329q0 -32 23 -32q22 0 64 26q83 52 166 133zM676 806q42 0 71.5 -29.5t29.5 -71.5q0 -43 -29.5 -72.5t-71.5 -29.5t-72 29.5t-30 72.5q0 42 30 71.5t72 29.5z" />
    <glyph glyph-name="Nacute" unicode="&#x143;" horiz-adv-x="1434" 
d="M915 1204l28 -117q39 -160 77 -280t195 -555q15 55 60 244q58 246 77 309q56 185 108 272t116 125t145 38q65 0 99.5 -25t34.5 -60q0 -25 -18.5 -44t-43.5 -19q-18 0 -42 10q-50 20 -60 23q-18 4 -39 4q-49 0 -84 -33q-62 -58 -136.5 -291t-189.5 -745l-34 -149
q-114 251 -154 356q-54 141 -123 356l-110 346q-20 -120 -93.5 -404.5t-87.5 -327.5q-46 -135 -98.5 -207t-115 -105t-137.5 -33q-94 0 -154 42q-46 31 -46 79q0 21 17 37.5t41 16.5q31 0 67 -33q64 -59 117 -59q57 0 112 51q82 78 158 327q92 301 177 764q-35 0 -134 -20
t-165.5 -56.5t-102 -95t-35.5 -122.5q0 -32 9 -65q6 -22 26 -54q23 -37 23 -56q0 -24 -17.5 -41t-43.5 -17q-38 0 -65 39.5t-27 120.5q0 134 67.5 228t180.5 142q72 30 278 58q76 10 143 26zM1374 1615h190l-339 -290h-59z" />
    <glyph glyph-name="nacute" unicode="&#x144;" horiz-adv-x="942" 
d="M204 607l-34 35q128 122 204 162t130 40q21 0 33 -9t12 -21q0 -9 -5 -32l-45 -201q102 113 256 211q82 51 135 51q39 0 61 -25t22 -72q0 -31 -9 -70q-16 -65 -84 -283q-64 -204 -64 -271q0 -20 6 -30t17 -10q29 0 91 56q44 40 88 74l25 -36q-92 -102 -191 -164
q-63 -40 -104 -40q-38 0 -59 27.5t-21 89.5q0 89 111 443q34 126 34 147q0 31 -37 31q-40 0 -103 -42q-94 -62 -157 -146q-40 -54 -67 -172l-81 -349h-149q42 150 73 287l89 380q5 23 5 33q0 27 -20 27q-16 0 -46 -21q-62 -41 -116 -100zM876 1253h190l-339 -290h-59z" />
    <glyph glyph-name="Ncaron" unicode="&#x147;" horiz-adv-x="1434" 
d="M915 1204l28 -117q39 -160 77 -280t195 -555q15 55 60 244q58 246 77 309q56 185 108 272t116 125t145 38q65 0 99.5 -25t34.5 -60q0 -25 -18.5 -44t-43.5 -19q-18 0 -42 10q-50 20 -60 23q-18 4 -39 4q-49 0 -84 -33q-62 -58 -136.5 -291t-189.5 -745l-34 -149
q-114 251 -154 356q-54 141 -123 356l-110 346q-20 -120 -93.5 -404.5t-87.5 -327.5q-46 -135 -98.5 -207t-115 -105t-137.5 -33q-94 0 -154 42q-46 31 -46 79q0 21 17 37.5t41 16.5q31 0 67 -33q64 -59 117 -59q57 0 112 51q82 78 158 327q92 301 177 764q-35 0 -134 -20
t-165.5 -56.5t-102 -95t-35.5 -122.5q0 -32 9 -65q6 -22 26 -54q23 -37 23 -56q0 -24 -17.5 -41t-43.5 -17q-38 0 -65 39.5t-27 120.5q0 134 67.5 228t180.5 142q72 30 278 58q76 10 143 26zM1050 1618h61l98 -181l273 181h58l-264 -291h-153z" />
    <glyph glyph-name="ncaron" unicode="&#x148;" horiz-adv-x="942" 
d="M204 607l-34 35q128 122 204 162t130 40q21 0 33 -9t12 -21q0 -9 -5 -32l-45 -201q102 113 256 211q82 51 135 51q39 0 61 -25t22 -72q0 -31 -9 -70q-16 -65 -84 -283q-64 -204 -64 -271q0 -20 6 -30t17 -10q29 0 91 56q44 40 88 74l25 -36q-92 -102 -191 -164
q-63 -40 -104 -40q-38 0 -59 27.5t-21 89.5q0 89 111 443q34 126 34 147q0 31 -37 31q-40 0 -103 -42q-94 -62 -157 -146q-40 -54 -67 -172l-81 -349h-149q42 150 73 287l89 380q5 23 5 33q0 27 -20 27q-16 0 -46 -21q-62 -41 -116 -100zM589 1255h61l98 -181l273 181h58
l-264 -291h-153z" />
    <glyph glyph-name="napostrophe" unicode="&#x149;" horiz-adv-x="1192" 
d="M455 607l-34 35q128 122 204 162t130 40q21 0 33 -9t12 -21q0 -9 -5 -32l-45 -201q102 113 256 211q82 51 135 51q39 0 61 -25t22 -72q0 -31 -9 -70q-16 -65 -84 -283q-64 -204 -64 -271q0 -20 6 -30t17 -10q29 0 91 56q44 40 88 74l25 -36q-92 -102 -191 -164
q-63 -40 -104 -40q-38 0 -59 27.5t-21 89.5q0 89 111 443q34 126 34 147q0 31 -37 31q-40 0 -103 -42q-94 -62 -157 -146q-40 -54 -67 -172l-81 -349h-149q42 150 73 287l89 380q5 23 5 33q0 27 -20 27q-16 0 -46 -21q-62 -41 -116 -100zM296 918l-17 64q84 74 109.5 118.5
t25.5 84.5q0 22 -24 67q-19 36 -19 67q0 41 24 66.5t61 25.5q39 0 65 -29.5t26 -77.5q0 -84 -54.5 -175.5t-196.5 -210.5z" />
    <glyph glyph-name="Odblacute" unicode="&#x150;" horiz-adv-x="1229" 
d="M899 1197q126 0 227.5 -58.5t157.5 -167t56 -252.5q0 -188 -101 -373t-247 -279t-324 -94q-205 0 -331.5 128t-126.5 337q0 200 101 386.5t248 279.5t340 93zM826 1125q-116 0 -213.5 -68.5t-159.5 -214t-62 -337.5q0 -220 97 -339.5t242 -119.5q108 0 204.5 71
t159 223.5t62.5 350.5q0 205 -95.5 319.5t-234.5 114.5zM696 1289l177 332l227 3l-341 -334zM997 1289l177 332l226 3l-340 -334z" />
    <glyph glyph-name="odblacute" unicode="&#x151;" horiz-adv-x="819" 
d="M670 841q98 0 163 -78t65 -217q0 -222 -156 -398.5t-330 -176.5q-107 0 -172.5 70t-65.5 191q0 210 120 388q151 221 376 221zM585 766q-85 0 -164.5 -121.5t-79.5 -335.5q0 -130 49 -205q36 -55 96 -55q84 0 153 104q88 135 88 335q0 150 -40.5 214t-101.5 64zM406 926
l177 332l227 3l-341 -334zM707 926l177 332l226 3l-340 -334z" />
    <glyph glyph-name="Racute" unicode="&#x154;" horiz-adv-x="1229" 
d="M737 572l-134 -531q48 -7 77 -7q44 0 109 15l-10 -49q-67 -14 -104 -14q-39 0 -115 7q-67 7 -111 7q-80 0 -185 -23l15 56q110 28 143 55q50 43 77 151l140 559q26 107 26 126q0 18 -12.5 27t-49.5 8l13 48q101 1 242 37q-12 -38 -31 -112l-75 -295q48 -10 81 -10
q125 0 214 87.5t89 207.5q0 93 -71.5 153t-194.5 60q-157 0 -307 -76t-225 -188.5t-75 -235.5q0 -93 77 -160q39 -33 48 -48t9 -32q0 -21 -15.5 -36.5t-37.5 -15.5q-54 0 -96 63q-54 82 -54 202q0 154 85 287t257.5 220t363.5 87q178 0 293 -67t115 -198q0 -123 -105.5 -229
t-290.5 -136q46 -92 59 -124q21 -54 64 -182q101 -301 209 -424q80 -90 173 -90q96 0 123 87q16 55 30 68q19 18 43 18t40.5 -17t16.5 -41q0 -62 -68 -118t-175 -56q-97 0 -185.5 47t-172 154t-145.5 257q-31 75 -91 275q-36 122 -45 146l-25 2q-9 0 -26 -2zM1141 1615h190
l-339 -290h-59z" />
    <glyph glyph-name="racute" unicode="&#x155;" horiz-adv-x="614" 
d="M359 0h-149l70 269q51 198 89 376q9 44 9 55q0 24 -22 24q-15 0 -46 -20.5t-112 -101.5l-31 35q96 103 191.5 154.5t146.5 51.5q18 0 28.5 -8.5t10.5 -21.5t-13 -69l-43 -179q101 159 228 272q61 54 102 54q30 0 50 -19.5t20 -45.5q0 -27 -19.5 -46t-97.5 -45
q-74 -25 -120.5 -60t-102 -107t-77.5 -125.5t-67 -248.5zM736 1253h190l-339 -290h-59z" />
    <glyph glyph-name="Rcaron" unicode="&#x158;" horiz-adv-x="1229" 
d="M737 572l-134 -531q48 -7 77 -7q44 0 109 15l-10 -49q-67 -14 -104 -14q-39 0 -115 7q-67 7 -111 7q-80 0 -185 -23l15 56q110 28 143 55q50 43 77 151l140 559q26 107 26 126q0 18 -12.5 27t-49.5 8l13 48q101 1 242 37q-12 -38 -31 -112l-75 -295q48 -10 81 -10
q125 0 214 87.5t89 207.5q0 93 -71.5 153t-194.5 60q-157 0 -307 -76t-225 -188.5t-75 -235.5q0 -93 77 -160q39 -33 48 -48t9 -32q0 -21 -15.5 -36.5t-37.5 -15.5q-54 0 -96 63q-54 82 -54 202q0 154 85 287t257.5 220t363.5 87q178 0 293 -67t115 -198q0 -123 -105.5 -229
t-290.5 -136q46 -92 59 -124q21 -54 64 -182q101 -301 209 -424q80 -90 173 -90q96 0 123 87q16 55 30 68q19 18 43 18t40.5 -17t16.5 -41q0 -62 -68 -118t-175 -56q-97 0 -185.5 47t-172 154t-145.5 257q-31 75 -91 275q-36 122 -45 146l-25 2q-9 0 -26 -2zM830 1618h61
l98 -181l273 181h58l-264 -291h-153z" />
    <glyph glyph-name="rcaron" unicode="&#x159;" horiz-adv-x="614" 
d="M359 0h-149l70 269q51 198 89 376q9 44 9 55q0 24 -22 24q-15 0 -46 -20.5t-112 -101.5l-31 35q96 103 191.5 154.5t146.5 51.5q18 0 28.5 -8.5t10.5 -21.5t-13 -69l-43 -179q101 159 228 272q61 54 102 54q30 0 50 -19.5t20 -45.5q0 -27 -19.5 -46t-97.5 -45
q-74 -25 -120.5 -60t-102 -107t-77.5 -125.5t-67 -248.5zM461 1255h61l98 -181l273 181h58l-264 -291h-153z" />
    <glyph glyph-name="Sacute" unicode="&#x15a;" horiz-adv-x="942" 
d="M1029 811h-52q11 105 11 159q0 77 -41.5 121.5t-112.5 44.5q-110 0 -192 -79.5t-82 -178.5q0 -53 22.5 -96t99.5 -120q141 -138 185 -216t44 -152q0 -109 -66.5 -210t-196 -166.5t-273.5 -65.5q-142 0 -239.5 74t-97.5 156q0 44 25.5 73t58.5 29q34 0 56 -27
q14 -16 28 -72q16 -68 39 -98.5t63.5 -50t88.5 -19.5q143 0 250 96.5t107 213.5q0 40 -13.5 79.5t-49.5 89.5q-25 34 -111 120q-85 84 -107 115q-31 45 -46 90.5t-15 90.5q0 91 61 183t158.5 146.5t221.5 54.5q62 0 153 -19q52 -10 90 -15q-22 -65 -34 -122.5t-33 -228.5z
M969 1615h190l-339 -290h-59z" />
    <glyph glyph-name="sacute" unicode="&#x15b;" horiz-adv-x="655" 
d="M613 842q89 0 137.5 -34.5t48.5 -79.5q0 -27 -20.5 -47t-49.5 -20q-19 0 -33 8.5t-40 42.5q-49 65 -97 65q-41 0 -72.5 -31.5t-31.5 -78.5q0 -41 20 -79.5t101 -124.5q111 -118 111 -224t-90 -185.5t-232 -79.5q-119 0 -177 48.5t-58 119.5q0 35 22 58t54 23
q28 0 48 -18.5t20 -43.5q0 -10 -2 -26q-1 -13 -1 -22q0 -33 28 -56q27 -23 74 -23q54 0 95 18.5t64 56t23 74.5q0 36 -21.5 72t-96.5 119q-104 116 -104 223q0 98 79 171.5t201 73.5zM746 1253h190l-339 -290h-59z" />
    <glyph glyph-name="Tcedilla" unicode="&#x162;" horiz-adv-x="1024" 
d="M991 57l-14 -57q-67 -15 -113 -15q-42 0 -139 9q-73 6 -131 6q-105 0 -206 -18l14 55q163 12 201.5 113t185.5 711l58 239q-59 2 -89 2q-280 0 -395.5 -91.5t-115.5 -228.5q0 -35 10.5 -56t44.5 -59q34 -37 34 -68q0 -28 -21 -46.5t-47 -18.5q-48 0 -77 55t-29 135
q0 176 152 327t452 151q90 0 287 -26q140 -18 203 -18q115 0 115 77q0 7 -3 28q-3 19 -3 25q0 28 18 45.5t43 17.5q31 0 50 -22.5t19 -58.5q0 -73 -78 -129.5t-274 -56.5q-74 0 -145 6q-91 -328 -258 -1042q64 -8 111 -8q71 0 140 17zM448 -530l-16 54q141 108 141 173
q0 24 -19 61q-20 38 -20 62q0 31 21.5 54t52.5 23q35 0 59 -28.5t24 -64.5q0 -167 -243 -334z" />
    <glyph glyph-name="tcedilla" unicode="&#x163;" horiz-adv-x="655" 
d="M454 995l159 61l-72 -280h207l-16 -71h-207l-88 -335q-41 -151 -41 -210q0 -51 42 -51q66 0 256 148l38 -46q-194 -148 -277.5 -193.5t-134.5 -45.5q-80 0 -80 115q0 72 38 220l103 398h-162l18 71h161zM155 -530l-16 54q141 108 141 173q0 24 -19 61q-20 38 -20 62
q0 31 21.5 54t52.5 23q35 0 59 -28.5t24 -64.5q0 -167 -243 -334z" />
    <glyph glyph-name="Tcaron" unicode="&#x164;" horiz-adv-x="1024" 
d="M991 57l-14 -57q-69 -15 -113 -15q-42 0 -139 9q-73 6 -131 6q-100 0 -206 -18l14 55q101 10 147 42q33 23 56.5 78.5t106.5 387.5l128 530l7 25q-59 2 -89 2q-185 0 -293.5 -40t-163 -116t-54.5 -164q0 -31 11 -57q8 -18 44 -58q34 -37 34 -68q0 -27 -20 -46t-48 -19
q-42 0 -68 40q-38 59 -38 150q0 122 75.5 237t207.5 178t321 63q90 0 287 -26q140 -18 203 -18t89 21t26 56q0 7 -3 28q-3 19 -3 25q0 27 18 45t43 18q30 0 49.5 -22t19.5 -59q0 -76 -81 -131t-271 -55q-68 0 -145 6q-10 -36 -63 -244l-87 -346l-53 -211l-55 -241
q67 -8 111 -8q67 0 140 17zM805 1618h61l98 -181l273 181h58l-264 -291h-153z" />
    <glyph glyph-name="tcaron" unicode="&#x165;" horiz-adv-x="655" 
d="M454 995l159 61l-72 -280h207l-16 -71h-207l-88 -335q-41 -151 -41 -210q0 -27 11.5 -39t31.5 -12q31 0 95 37q84 49 160 111l38 -46q-219 -165 -293 -202t-119 -37q-37 0 -58.5 27t-21.5 88q0 72 38 220l103 398h-162l18 71h161zM722 918l-17 64q84 74 109.5 118.5
t25.5 84.5q0 22 -24 67q-19 36 -19 67q0 41 24 66.5t61 25.5q39 0 65 -29.5t26 -77.5q0 -84 -54.5 -175.5t-196.5 -210.5z" />
    <glyph glyph-name="Uring" unicode="&#x16e;" horiz-adv-x="1515" 
d="M928 1195q-101 -178 -199 -453q-69 -195 -69 -326q0 -146 70.5 -227t176.5 -81q100 0 188 50q117 66 216.5 201t162.5 323.5t63 352.5q0 114 -49 216q-26 52 -29 62q-4 14 -4 30q0 30 18.5 49t45.5 19q47 0 74 -50q39 -68 39 -211q0 -306 -134 -609t-309.5 -433
t-368.5 -130q-157 0 -241 104.5t-84 257.5q0 126 39 258q51 173 211 517q-125 3 -224 -30.5t-142.5 -85.5t-43.5 -103q0 -21 23 -57q24 -41 24 -64q0 -29 -18 -48t-45 -19q-33 0 -57.5 30t-24.5 78q0 77 45 154.5t116.5 124.5t176.5 69q52 11 216 20q112 6 137 11z
M1225 1646q72 0 123 -51.5t51 -123.5t-51 -123.5t-123 -51.5q-73 0 -124 51.5t-51 123.5t51 123.5t124 51.5zM1224 1576q-43 0 -74 -31t-31 -74q0 -44 31 -75t74 -31q44 0 74.5 31t30.5 75q0 43 -30.5 74t-74.5 31z" />
    <glyph glyph-name="uring" unicode="&#x16f;" horiz-adv-x="942" 
d="M850 815h142l-94 -349q-83 -304 -83 -346q0 -19 9 -29t20 -10q17 0 40 15q33 23 125 116l33 -37q-201 -209 -296 -209q-32 0 -54.5 24.5t-22.5 69.5q0 52 22 139q-89 -102 -220 -179q-87 -51 -151 -51q-35 0 -55 23t-20 73q0 39 9 84q13 63 66 253q67 241 67 289
q0 28 -20 28q-18 0 -49 -18.5t-106 -89.5l-44 35q134 120 204.5 157.5t113.5 37.5q24 0 39 -17.5t15 -54.5q0 -69 -72 -339q-64 -243 -64 -277q0 -21 13.5 -36t29.5 -15q56 0 159 92.5t135 210.5zM763 1283q72 0 123 -51.5t51 -123.5t-51 -123.5t-123 -51.5q-73 0 -124 51.5
t-51 123.5t51 123.5t124 51.5zM762 1213q-43 0 -74 -31t-31 -74q0 -44 31 -75t74 -31q44 0 74.5 31t30.5 75q0 43 -30.5 74t-74.5 31z" />
    <glyph glyph-name="Udblacute" unicode="&#x170;" horiz-adv-x="1515" 
d="M928 1195q-101 -178 -199 -453q-69 -195 -69 -326q0 -146 70.5 -227t176.5 -81q100 0 188 50q117 66 216.5 201t162.5 323.5t63 352.5q0 114 -49 216q-26 52 -29 62q-4 14 -4 30q0 30 18.5 49t45.5 19q47 0 74 -50q39 -68 39 -211q0 -306 -134 -609t-309.5 -433
t-368.5 -130q-157 0 -241 104.5t-84 257.5q0 126 39 258q51 173 211 517q-125 3 -224 -30.5t-142.5 -85.5t-43.5 -103q0 -21 23 -57q24 -41 24 -64q0 -29 -18 -48t-45 -19q-33 0 -57.5 30t-24.5 78q0 77 45 154.5t116.5 124.5t176.5 69q52 11 216 20q112 6 137 11zM917 1289
l177 332l227 3l-341 -334zM1218 1289l177 332l226 3l-340 -334z" />
    <glyph glyph-name="udblacute" unicode="&#x171;" horiz-adv-x="942" 
d="M850 815h142l-94 -349q-83 -304 -83 -346q0 -19 9 -29t20 -10q17 0 40 15q33 23 125 116l33 -37q-201 -209 -296 -209q-32 0 -54.5 24.5t-22.5 69.5q0 52 22 139q-89 -102 -220 -179q-87 -51 -151 -51q-35 0 -55 23t-20 73q0 39 9 84q13 63 66 253q67 241 67 289
q0 28 -20 28q-18 0 -49 -18.5t-106 -89.5l-44 35q134 120 204.5 157.5t113.5 37.5q24 0 39 -17.5t15 -54.5q0 -69 -72 -339q-64 -243 -64 -277q0 -21 13.5 -36t29.5 -15q56 0 159 92.5t135 210.5zM489 926l177 332l227 3l-341 -334zM790 926l177 332l226 3l-340 -334z" />
    <glyph glyph-name="Zacute" unicode="&#x179;" horiz-adv-x="1270" 
d="M1127 1047q-65 -15 -134 -15q-111 0 -262 43q-93 26 -118 26q-43 0 -65.5 -17.5t-22.5 -42.5q0 -28 32 -52q33 -26 41.5 -40t8.5 -34q0 -25 -18 -43t-43 -18q-40 0 -69 37t-29 100q0 88 66 150t163 62q62 0 148 -13q196 -30 292 -30q98 0 187 45q25 12 35 12
q13 0 23.5 -9t10.5 -18q0 -31 -93 -114q-97 -86 -182 -175l-500 -518l-286 -309q216 62 326 62q158 0 339 -66q100 -36 140 -36q46 0 68.5 20t22.5 58q0 20 -10 46q-12 31 -12 45q0 28 20 49t47 21q30 0 51.5 -24.5t21.5 -65.5q0 -97 -77 -160t-175 -63q-59 0 -206 19
q-168 21 -361 21q-223 0 -298 -31q-30 -12 -45 -12q-11 0 -21 9q-7 8 -7 20q0 29 38 65q41 39 152 155l282 288l300 306q110 112 219 247zM1072 1615h190l-339 -290h-59z" />
    <glyph glyph-name="zacute" unicode="&#x17a;" horiz-adv-x="901" 
d="M806 737q-91 -25 -167 -25q-42 0 -93 5q-71 8 -95 8q-30 0 -46 -14t-16 -36q0 -34 36 -37q45 -5 45 -41q0 -17 -14 -30.5t-32 -13.5q-36 0 -66.5 35.5t-30.5 88.5q0 68 57 117t141 49q44 0 119 -12q121 -19 174 -19q54 0 101 36q22 16 36 16q12 0 20.5 -7.5t8.5 -14.5
q0 -10 -11 -22q-34 -42 -155 -158l-310 -297l-226 -210q57 6 89 6q45 0 82 -7.5t119 -34.5q107 -37 174 -37q42 0 64.5 19.5t22.5 49.5q0 17 -16 48q-14 30 -14 46q0 24 16 41t40 17q29 0 48.5 -23.5t19.5 -60.5q0 -56 -41 -117.5t-103 -94.5t-153 -33q-75 0 -219 43
q-120 35 -176 35q-34 0 -79 -36q-26 -22 -45 -22q-37 0 -37 18q0 17 21 41q56 66 284 273l270 255zM798 1253h190l-339 -290h-59z" />
    <glyph glyph-name="Zdot" unicode="&#x17b;" horiz-adv-x="1270" 
d="M1127 1047q-65 -15 -134 -15q-111 0 -262 43q-93 26 -118 26q-43 0 -65.5 -17.5t-22.5 -42.5q0 -28 32 -52q33 -26 41.5 -40t8.5 -34q0 -25 -18 -43t-43 -18q-40 0 -69 37t-29 100q0 88 66 150t163 62q62 0 148 -13q196 -30 292 -30q98 0 187 45q25 12 35 12
q13 0 23.5 -9t10.5 -18q0 -31 -93 -114q-97 -86 -182 -175l-500 -518l-286 -309q216 62 326 62q158 0 339 -66q100 -36 140 -36q46 0 68.5 20t22.5 58q0 20 -10 46q-12 31 -12 45q0 28 20 49t47 21q30 0 51.5 -24.5t21.5 -65.5q0 -97 -77 -160t-175 -63q-59 0 -206 19
q-168 21 -361 21q-223 0 -298 -31q-30 -12 -45 -12q-11 0 -21 9q-7 8 -7 20q0 29 38 65q41 39 152 155l282 288l300 306q110 112 219 247zM973 1555q42 0 71.5 -29.5t29.5 -71.5q0 -43 -29.5 -72.5t-71.5 -29.5t-72 29.5t-30 72.5q0 42 30 71.5t72 29.5z" />
    <glyph glyph-name="zdot" unicode="&#x17c;" horiz-adv-x="901" 
d="M806 737q-91 -25 -167 -25q-42 0 -93 5q-71 8 -95 8q-30 0 -46 -14t-16 -36q0 -34 36 -37q45 -5 45 -41q0 -17 -14 -30.5t-32 -13.5q-36 0 -66.5 35.5t-30.5 88.5q0 68 57 117t141 49q44 0 119 -12q121 -19 174 -19q54 0 101 36q22 16 36 16q12 0 20.5 -7.5t8.5 -14.5
q0 -10 -11 -22q-34 -42 -155 -158l-310 -297l-226 -210q57 6 89 6q45 0 82 -7.5t119 -34.5q107 -37 174 -37q42 0 64.5 19.5t22.5 49.5q0 17 -16 48q-14 30 -14 46q0 24 16 41t40 17q29 0 48.5 -23.5t19.5 -60.5q0 -56 -41 -117.5t-103 -94.5t-153 -33q-75 0 -219 43
q-120 35 -176 35q-34 0 -79 -36q-26 -22 -45 -22q-37 0 -37 18q0 17 21 41q56 66 284 273l270 255zM711 1192q42 0 71.5 -29.5t29.5 -71.5q0 -43 -29.5 -72.5t-71.5 -29.5t-72 29.5t-30 72.5q0 42 30 71.5t72 29.5z" />
    <glyph glyph-name="noGamma" unicode="&#xf100;" horiz-adv-x="1323" 
d="M1253 1356l14 -310h-36q-21 142 -109.5 183.5t-214.5 41.5h-403v-1100q-1 -60 44 -96.5t154 -38.5v-36h-605v36q101 0 147.5 33.5t46.5 126.5v970q0 84 -44.5 119t-149.5 35v36h1156z" />
    <glyph glyph-name="noTheta" unicode="&#xf101;" horiz-adv-x="1592" 
d="M1484 681q0 -298 -202 -505t-482 -207t-486.5 208t-206.5 502q0 290 201 499t487 209q282 0 485.5 -205.5t203.5 -500.5zM1240 674q0 289 -119.5 462t-328.5 173q-204 0 -322.5 -169t-118.5 -459q0 -292 123 -463.5t323 -171.5q209 0 326 176t117 452zM555 916h36
q-1 -81 34.5 -118.5t114.5 -37.5h111q78 0 114 37t35 119h36v-480h-36q1 83 -34.5 121t-114.5 38h-111q-78 0 -114 -38t-35 -121h-36v480z" />
    <glyph glyph-name="noPhi" unicode="&#xf102;" horiz-adv-x="1593" 
d="M903 191q12 -155 192 -155v-36h-598v36q175 0 191 155q-265 0 -423 142.5t-158 344.5q0 219 168 353t413 134q-12 155 -191 155v36h598v-36q-179 0 -192 -155q265 0 423.5 -142t158.5 -345q0 -222 -169 -354.5t-413 -132.5zM688 1110q-115 -3 -203 -56.5t-125 -142
t-37 -245.5q0 -405 365 -420v864zM903 1110v-864q140 0 253 92.5t113 351.5q0 405 -366 420z" />
    <glyph glyph-name="noalpha" unicode="&#xf103;" horiz-adv-x="1097" 
d="M784 916h166l-100 -467q-23 -108 -51 -189q20 -169 118 -169q84 0 103 130h36q-11 -118 -55.5 -183.5t-107.5 -65.5q-92 0 -120 215q-106 -215 -339 -215q-165 0 -258.5 127.5t-93.5 354.5q0 231 104 360t251 129q199 0 286 -315zM703 537q-100 348 -248 348
q-84 0 -135.5 -110t-51.5 -332q0 -235 48.5 -321.5t126.5 -86.5q67 0 121.5 71.5t103.5 280.5z" />
    <glyph glyph-name="nodelta" unicode="&#xf104;" horiz-adv-x="969" 
d="M496 854q-57 63 -139 134q-115 100 -140 156t-25 102q0 174 260 174q156 0 259.5 -50t103.5 -123q0 -33 -22.5 -59t-56.5 -26q-46 0 -108 68q-71 80 -113.5 105t-103.5 25q-74 0 -117 -31.5t-43 -77.5q0 -49 37.5 -96t196.5 -156q162 -111 237 -182t120 -166t45 -204
q0 -189 -130 -332t-302 -143q-156 0 -264.5 113.5t-108.5 308.5q0 190 124 313t290 147zM540 807q-287 -48 -287 -394q0 -184 73.5 -280t164.5 -96q99 0 163 95t64 258q0 119 -34 202.5t-99 159.5q-38 44 -45 55z" />
    <glyph glyph-name="noepsilon" unicode="&#xf105;" horiz-adv-x="907" 
d="M323 486q-197 78 -197 219q0 106 100.5 172t256.5 66q132 0 220 -44t88 -110q0 -35 -26 -60.5t-61 -25.5q-56 0 -92 75q-50 105 -150 105q-76 0 -128.5 -48.5t-52.5 -143.5q0 -183 188 -183q21 0 47 4q46 7 70 7q61 0 61 -36q0 -39 -61 -39q-22 0 -67 8q-34 5 -53 5
q-198 0 -198 -204q0 -99 53 -159t148 -60q119 0 158 123q21 65 45 90t65 25q33 0 61 -24t28 -65q0 -93 -104.5 -152t-244.5 -59q-149 0 -272 76t-123 204q0 156 241 234z" />
    <glyph glyph-name="nosigma" unicode="&#xf106;" horiz-adv-x="1198" 
d="M1153 916v-146h-437q105 -52 197.5 -170.5t92.5 -251.5q0 -170 -135.5 -273t-293.5 -103q-202 0 -348.5 148t-146.5 355q0 145 76 256t177 148t255 37h563zM649 770h-35q-132 0 -201.5 -29t-114 -101t-44.5 -177q0 -175 95.5 -300.5t227.5 -125.5q109 0 182 93t73 237
q0 219 -183 403z" />
    <glyph glyph-name="notau" unicode="&#xf107;" horiz-adv-x="875" 
d="M810 916v-146h-300q-37 -321 -37 -470q0 -82 35 -123t88 -41q95 0 113 116h36q0 -107 -56 -193.5t-145 -86.5q-178 0 -178 330q0 141 35 468h-88q-81 0 -127 -26.5t-85 -111.5h-36q36 118 79 180.5t85 83t115 20.5h466z" />
    <glyph glyph-name="nophi" unicode="&#xf108;" horiz-adv-x="1145" 
d="M462 943v-36q-205 -55 -205 -412q0 -392 256 -463v584q0 121 14 179.5t66.5 103t127.5 44.5q77 0 156.5 -53t133 -158t53.5 -241q0 -191 -111 -342.5t-337 -172.5v-395h-103v395q-195 18 -313 156t-118 360q0 204 112 325t268 126zM616 54q300 47 300 409q0 159 -63 272
t-155 113q-39 0 -61 -37t-22 -160z" />
    <glyph glyph-name="underscoredbl" unicode="&#x2017;" horiz-adv-x="1024" 
d="M-12 -154h1048v-102h-1048v102zM-12 -343h1048v-102h-1048v102z" />
    <glyph glyph-name="minute" unicode="&#x2032;" horiz-adv-x="328" 
d="M368 668h-32l36 325q13 117 37 160.5t66 43.5q50 0 50 -64q0 -38 -39 -144z" />
    <glyph glyph-name="second" unicode="&#x2033;" horiz-adv-x="451" 
d="M300 668h-32l36 325q13 117 37 160.5t66 43.5q50 0 50 -64q0 -38 -39 -144zM559 668h-32l36 325q13 117 37.5 160.5t66.5 43.5q50 0 50 -64q0 -38 -40 -144z" />
    <glyph glyph-name="exclamdbl" unicode="&#x203c;" horiz-adv-x="990" 
d="M433 330h-58q65 477 93 808q1 20 13 30.5t63 25t87 14.5q20 0 20 -21q0 -10 -23 -92q-58 -198 -195 -765zM850 330h-59q66 477 93 808q2 20 14 30.5t62.5 25t86.5 14.5q21 0 21 -21q0 -10 -24 -92q-57 -198 -194 -765zM379 216q41 0 66.5 -31t25.5 -73q0 -64 -31 -101.5
t-78 -37.5q-39 0 -65.5 28t-26.5 70q0 49 28 97t81 48zM795 216q42 0 67 -31t25 -73q0 -64 -30.5 -101.5t-78.5 -37.5q-40 0 -65.5 28t-25.5 70q0 51 28.5 98t79.5 47z" />
    <glyph glyph-name="nsuperior" unicode="&#x207f;" horiz-adv-x="612" 
d="M244 908l-35 35q139 127 230 127q42 0 42 -24q0 -6 -4 -22l-21 -86q163 132 233 132q67 0 67 -64q0 -34 -30 -122q-72 -213 -72 -256q0 -15 9 -15q6 0 14 7q3 2 35 25q34 24 64 52l27 -34q-128 -129 -203 -129q-66 0 -66 75q0 55 60 233q35 103 35 122q0 13 -12 13
q-29 0 -85 -40t-78.5 -74t-38.5 -99l-54 -213h-120l45 164q2 8 4 18l58 228q4 15 4 18q0 7 -6 7q-3 0 -9 -3q-56 -37 -93 -75z" />
    <glyph glyph-name="peseta" unicode="&#x20a7;" horiz-adv-x="2199" 
d="M1327 776h118l56 219l159 61l-72 -280h207l-16 -71h-207l-88 -335q-41 -151 -41 -210q0 -51 43 -51q34 0 144 67q77 48 117 48q30 0 50.5 -18t20.5 -46q0 -9 -2 -25q-2 -13 -2 -22q0 -32 27 -55.5t76 -23.5q88 0 135 43.5t47 105.5q0 36 -21.5 72t-96.5 119
q-105 116 -105 223q0 91 76 168t205 77q98 0 141.5 -37.5t43.5 -76.5q0 -25 -19.5 -46t-48.5 -21q-35 0 -74 51q-49 65 -97 65q-36 0 -70 -29.5t-34 -79.5q0 -47 22 -85.5t98 -119.5q112 -118 112 -224q0 -102 -88 -183.5t-234 -81.5q-214 0 -235 159q-212 -161 -307 -161
q-80 0 -80 115q0 72 38 220l103 398h-145q-62 -86 -191.5 -140t-272.5 -54q-24 0 -75 3l-79 -311q-23 -91 -45 -156q75 -19 136 -19q77 0 157 28l-12 -56q-76 -21 -132 -21q-52 0 -152 11q-80 10 -130 10q-97 0 -199 -23l12 53q126 15 168 78.5t57 132.5q3 10 5 19l151 599
q10 42 10 56q0 44 -44 44q-7 0 -20 -2l12 45q147 13 248 40q-24 -64 -54 -183l-74 -281q56 -6 95 -6q148 0 239.5 112.5t91.5 232.5q0 98 -70.5 158.5t-223.5 60.5q-261 0 -467 -173.5t-206 -386.5q0 -121 105 -201q49 -36 49 -70q0 -23 -17 -37.5t-37 -14.5
q-62 0 -115.5 85t-53.5 201q0 254 217.5 457t568.5 203q216 0 321 -82.5t105 -202.5q0 -67 -34 -138z" />
    <glyph glyph-name="afii61248" unicode="&#x2105;" horiz-adv-x="1244" 
d="M397 -7q109 181 216 379l239 435q131 237 208 391q20 -7 80 -14q-35 -45 -340 -601.5t-318 -597.5q-16 4 -51 6q-12 0 -34 2zM671 820l20 -53q-156 -121 -268 -121q-120 0 -120 142q0 146 101.5 277.5t230.5 131.5q49 0 78.5 -18.5t29.5 -46.5q0 -50 -62 -50
q-26 0 -60 19q-37 21 -58 21q-49 0 -92.5 -88t-43.5 -200q0 -108 60 -108q70 0 167 81zM1088 534q173 0 173 -188q0 -125 -95.5 -244.5t-226.5 -119.5q-78 0 -121.5 47t-43.5 121q0 155 97.5 269.5t216.5 114.5zM1049 475q-51 0 -97.5 -76.5t-46.5 -200.5q0 -75 24 -115
t55 -40q58 0 101 81t43 185q0 166 -79 166z" />
    <glyph glyph-name="afii61289" unicode="&#x2113;" horiz-adv-x="834" 
d="M171 486l225 160l80 337q59 247 145 342t202 95q78 0 131.5 -48.5t53.5 -127.5q0 -132 -138 -270t-308 -254l-98 -412q-16 -66 -16 -100q0 -73 39 -113.5t96 -40.5q65 0 137.5 64.5t126.5 182.5l39 -13q-142 -311 -357 -311q-90 0 -157 61.5t-67 184.5q0 48 16 112
l60 243l-185 -128zM580 785q205 154 287.5 258.5t82.5 190.5q0 107 -105 107q-131 0 -186 -230z" />
    <glyph glyph-name="arrowleft" unicode="&#x2190;" horiz-adv-x="2048" 
d="M492 876h76q-81 -170 -195 -309h1595v-101h-1595q102 -102 198 -309h-78q-223 253 -414 341v45q177 71 413 333z" />
    <glyph glyph-name="arrowup" unicode="&#x2191;" horiz-adv-x="1024" 
d="M153 1050q262 236 333 413h46q87 -192 340 -415v-77q-207 96 -309 197v-1597h-101v1597q-139 -114 -309 -195v77z" />
    <glyph glyph-name="arrowright" unicode="&#x2192;" horiz-adv-x="2048" 
d="M1555 876q237 -262 413 -333v-45q-191 -88 -414 -341h-77q95 207 197 309h-1595v101h1595q-114 139 -195 309h76z" />
    <glyph glyph-name="arrowdown" unicode="&#x2193;" horiz-adv-x="1024" 
d="M153 -16v76q170 -81 309 -195v1598h101v-1598q102 102 309 197v-77q-253 -223 -340 -414h-46q-71 176 -333 413z" />
    <glyph glyph-name="arrowboth" unicode="&#x2194;" horiz-adv-x="2048" 
d="M1968 540v-45q-181 -79 -406 -337h-80q69 172 194 311h-1305q125 -139 194 -311h-80q-224 258 -406 337v45q182 79 406 338h80q-69 -172 -194 -311h1305q-125 139 -194 311h80q225 -259 406 -338z" />
    <glyph glyph-name="arrowupdn" unicode="&#x2195;" horiz-adv-x="1024" 
d="M489 1463h45q79 -182 337 -407v-80q-171 69 -311 195v-1306q140 126 311 194v-79q-258 -225 -337 -407h-45q-79 182 -337 407v79q171 -68 311 -194v1306q-140 -126 -311 -195v80q258 225 337 407z" />
    <glyph glyph-name="arrowupdnbse" unicode="&#x21a8;" horiz-adv-x="1024" 
d="M489 1463h45q79 -182 337 -407v-80q-171 69 -311 195v-1306q140 126 311 194v-79q-258 -225 -337 -407h-45q-79 182 -337 407v79q171 -68 311 -194v1306q-140 -126 -311 -195v80q258 225 337 407zM154 -522h717v-98h-717v98z" />
    <glyph glyph-name="orthogonal" unicode="&#x221f;" horiz-adv-x="2005" 
d="M362 1279h100v-1179h1181v-100h-1281v1279z" />
    <glyph glyph-name="intersection" unicode="&#x2229;" horiz-adv-x="1472" 
d="M302 0h-110v374q1 119 2.5 228.5t19.5 192t59.5 151t114.5 128.5t163.5 92t184.5 32q144 0 268.5 -70t186 -167.5t76 -206.5t14.5 -380v-374h-109v381q0 232 -12 333.5t-60 183t-149.5 138.5t-214.5 57q-114 0 -215.5 -58.5t-148 -137.5t-58.5 -181t-12 -335v-381z" />
    <glyph glyph-name="equivalence" unicode="&#x2261;" horiz-adv-x="1065" 
d="M1159 981v-111h-885v111h885zM1159 640v-111h-885v111h885zM1159 299v-111h-885v111h885z" />
    <glyph glyph-name="H22073" unicode="&#x25a1;" horiz-adv-x="1237" 
d="M279 944h944v-944h-944v944zM355 868v-792h792v792h-792z" />
    <glyph glyph-name="H18543" unicode="&#x25aa;" horiz-adv-x="726" 
d="M775 909v-464h-463v463z" />
    <glyph glyph-name="H18551" unicode="&#x25ab;" horiz-adv-x="726" 
d="M775 909v-464h-463v463zM699 833l-311 -1v-311h311v312z" />
    <glyph glyph-name="H18533" unicode="&#x25cf;" horiz-adv-x="1237" 
d="M776 1018q181 0 310.5 -129t129.5 -311t-129 -311.5t-311 -129.5t-311.5 129.5t-129.5 311.5q0 189 131.5 314.5t309.5 125.5z" />
    <glyph glyph-name="openbullet" unicode="&#x25e6;" horiz-adv-x="726" 
d="M544 928q101 0 176 -72t75 -179q0 -104 -73.5 -177.5t-177.5 -73.5t-177.5 73.5t-73.5 177.5t74 177.5t177 73.5zM544 852q-71 0 -123 -50t-52 -125q0 -73 51.5 -124t123.5 -51t123.5 51t51.5 124q0 74 -52 124.5t-123 50.5z" />
    <glyph glyph-name="commaaccent" unicode="&#xf004;" horiz-adv-x="682" 
d="M170 -589l-17 58q155 120 155 191q0 26 -22 67q-21 41 -21 68q0 33 23.5 58.5t58.5 25.5q37 0 63.5 -31t26.5 -71q0 -184 -267 -366z" />
    <glyph glyph-name="Amacron" unicode="&#x100;" horiz-adv-x="1270" 
d="M1299 44l-10 -57q-36 -3 -63 -3q-39 0 -94 6q-94 10 -119 10q-42 0 -129 -13q31 78 52 164q15 61 32 210q-117 1 -363 -5q-254 -388 -372.5 -487.5t-225.5 -99.5q-56 0 -83.5 21.5t-27.5 55.5q0 26 16 43t40 17q14 0 38 -5q60 -14 80 -14q67 0 148 76q132 124 390 520
q292 448 473 652q-247 -22 -308 -42q-84 -27 -126 -80t-42 -108q0 -18 13 -51q14 -37 14 -54q0 -22 -17 -39t-41 -17q-34 0 -54.5 25.5t-20.5 76.5q0 72 37.5 139.5t107.5 113t175 69.5q54 13 190 23q118 10 148 19q47 13 90 51q-30 -123 -43 -215l-78 -578l-45 -414
q74 -19 133 -19q39 0 85 9zM977 435q48 406 96 593q-127 -168 -157 -212l-257 -381q83 -3 237 -3q38 0 81 3zM915 1456h463l-52 -86h-460z" />
    <glyph glyph-name="amacron" unicode="&#x101;" horiz-adv-x="860" 
d="M856 858l66 14l-75 -253q-45 -151 -85 -348q-22 -107 -22 -138t25 -31q16 0 51 21q62 37 119 92l32 -39q-114 -104 -146 -126q-64 -44 -122 -65q-38 -14 -74 -14q-26 0 -39 12t-13 35q0 15 8 41l40 136q-86 -103 -205 -177q-73 -46 -134 -46q-58 0 -89 41q-42 55 -42 144
q0 106 56.5 236t151.5 236t200 156q81 38 208 38q32 0 65 -4zM732 705q-54 11 -91 11q-90 0 -157 -49.5t-124.5 -178t-57.5 -256.5q0 -68 23 -98t60 -30q69 0 148 74.5t116 214.5zM484 1094h463l-52 -86h-460z" />
    <glyph glyph-name="Ccircumflex" unicode="&#x108;" horiz-adv-x="1065" 
d="M1192 764h-54q5 78 5 125q0 141 -58.5 196.5t-147.5 55.5q-119 0 -247 -96.5t-220 -301t-92 -420.5q0 -209 85.5 -320.5t214.5 -111.5q175 0 321 210q15 21 31 21q13 0 22 -8.5t9 -19.5q0 -27 -66.5 -106t-167.5 -131.5t-199 -52.5q-118 0 -219 61.5t-157 175.5t-56 271
q0 219 114.5 436t286.5 335t336 118q59 0 117 -13q25 -6 206 -69q-57 -172 -64 -355zM981 1616h151l73 -291h-57l-104 183l-268 -183h-64z" />
    <glyph glyph-name="ccircumflex" unicode="&#x109;" horiz-adv-x="696" 
d="M723 217l21 -58q-238 -187 -402 -187q-87 0 -126.5 62t-39.5 157q0 158 84 325t204 256q94 69 212 69q74 0 112 -28t38 -68q0 -31 -20 -50.5t-56 -19.5q-35 0 -90 32q-57 34 -95 34q-49 0 -97.5 -44.5t-92.5 -172.5t-44 -257q0 -95 37 -147q27 -40 76 -40q117 0 279 137z
M657 1254h151l73 -291h-57l-104 183l-268 -183h-64z" />
    <glyph glyph-name="Cdot" unicode="&#x10a;" horiz-adv-x="1065" 
d="M1192 764h-54q5 78 5 125q0 141 -58.5 196.5t-147.5 55.5q-119 0 -247 -96.5t-220 -301t-92 -420.5q0 -209 85.5 -320.5t214.5 -111.5q175 0 321 210q15 21 31 21q13 0 22 -8.5t9 -19.5q0 -27 -66.5 -106t-167.5 -131.5t-199 -52.5q-118 0 -219 61.5t-157 175.5t-56 271
q0 219 114.5 436t286.5 335t336 118q59 0 117 -13q25 -6 206 -69q-57 -172 -64 -355zM989 1554q42 0 71.5 -29.5t29.5 -71.5q0 -43 -29.5 -72.5t-71.5 -29.5t-72 29.5t-30 72.5q0 42 30 71.5t72 29.5z" />
    <glyph glyph-name="cdot" unicode="&#x10b;" horiz-adv-x="696" 
d="M723 217l21 -58q-238 -187 -402 -187q-87 0 -126.5 62t-39.5 157q0 158 84 325t204 256q94 69 212 69q74 0 112 -28t38 -68q0 -31 -20 -50.5t-56 -19.5q-35 0 -90 32q-57 34 -95 34q-49 0 -97.5 -44.5t-92.5 -172.5t-44 -257q0 -95 37 -147q27 -40 76 -40q117 0 279 137z
M679 1192q42 0 71.5 -29.5t29.5 -71.5q0 -43 -29.5 -72.5t-71.5 -29.5t-72 29.5t-30 72.5q0 42 30 71.5t72 29.5z" />
    <glyph glyph-name="Emacron" unicode="&#x112;" horiz-adv-x="1270" 
d="M1312 959h-53q8 51 8 81q0 40 -33.5 52.5t-252.5 12.5l-146 -1l-111 -442h207q98 0 120.5 14.5t32.5 72.5h57q-32 -121 -57 -266h-51q5 47 5 73q0 11 -14 27q-7 8 -26 11q-27 5 -84 5h-205q-89 -340 -185 -533q93 29 165 29q120 0 294 -38q92 -21 125 -21q44 0 71 22
t27 50q0 16 -13 52q-8 25 -8 47q0 23 18.5 41t44.5 18q31 0 51.5 -24t20.5 -64q0 -85 -74.5 -149t-196.5 -64q-64 0 -162 11q-215 24 -328 24q-148 0 -346 -24l16 55q118 33 139 48.5t35 45.5q48 95 124.5 381l155.5 604q-120 0 -227 -57t-167 -148.5t-60 -192.5
q0 -43 8.5 -75t38.5 -90q19 -35 19 -57t-18.5 -39t-45.5 -17q-39 0 -62 39q-34 57 -34 155q0 210 159 377t463 167h343q178 0 263 23q-40 -166 -51 -236zM823 1456h463l-52 -86h-460z" />
    <glyph glyph-name="emacron" unicode="&#x113;" horiz-adv-x="696" 
d="M698 251l33 -44q-245 -233 -420 -233q-71 0 -108.5 48t-37.5 154q0 214 130 426q146 241 349 241q71 0 108.5 -35.5t37.5 -97.5q0 -65 -45 -128t-161 -131q-58 -33 -248 -119q-9 -54 -9 -103q0 -71 22.5 -99t65.5 -28q41 0 90 23q66 31 193 126zM348 396q161 72 242 155
q55 58 55 115q0 43 -22.5 68.5t-58.5 25.5q-37 0 -72 -28q-47 -37 -79 -112q-46 -110 -65 -224zM390 1094h463l-52 -86h-460z" />
    <glyph glyph-name="Ebreve" unicode="&#x114;" horiz-adv-x="1270" 
d="M1312 959h-53q8 51 8 81q0 40 -33.5 52.5t-252.5 12.5l-146 -1l-111 -442h207q98 0 120.5 14.5t32.5 72.5h57q-32 -121 -57 -266h-51q5 47 5 73q0 11 -14 27q-7 8 -26 11q-27 5 -84 5h-205q-89 -340 -185 -533q93 29 165 29q120 0 294 -38q92 -21 125 -21q44 0 71 22
t27 50q0 16 -13 52q-8 25 -8 47q0 23 18.5 41t44.5 18q31 0 51.5 -24t20.5 -64q0 -85 -74.5 -149t-196.5 -64q-64 0 -162 11q-215 24 -328 24q-148 0 -346 -24l16 55q118 33 139 48.5t35 45.5q48 95 124.5 381l155.5 604q-120 0 -227 -57t-167 -148.5t-60 -192.5
q0 -43 8.5 -75t38.5 -90q19 -35 19 -57t-18.5 -39t-45.5 -17q-39 0 -62 39q-34 57 -34 155q0 210 159 377t463 167h343q178 0 263 23q-40 -166 -51 -236zM866 1603h53q11 -70 20 -85q15 -25 48 -41.5t75 -16.5q73 0 140 42q41 26 95 101h58q-70 -139 -149.5 -208.5
t-169.5 -69.5q-75 0 -123 60.5t-48 185.5q0 10 1 32z" />
    <glyph glyph-name="ebreve" unicode="&#x115;" horiz-adv-x="696" 
d="M698 251l33 -44q-245 -233 -420 -233q-71 0 -108.5 48t-37.5 154q0 214 130 426q146 241 349 241q71 0 108.5 -35.5t37.5 -97.5q0 -65 -45 -128t-161 -131q-58 -33 -248 -119q-9 -54 -9 -103q0 -71 22.5 -99t65.5 -28q41 0 90 23q66 31 193 126zM348 396q161 72 242 155
q55 58 55 115q0 43 -22.5 68.5t-58.5 25.5q-37 0 -72 -28q-47 -37 -79 -112q-46 -110 -65 -224zM433 1241h53q11 -70 20 -85q15 -25 48 -41.5t75 -16.5q73 0 140 42q41 26 95 101h58q-70 -139 -149.5 -208.5t-169.5 -69.5q-75 0 -123 60.5t-48 185.5q0 10 1 32z" />
    <glyph glyph-name="Edot" unicode="&#x116;" horiz-adv-x="1270" 
d="M1312 959h-53q8 51 8 81q0 40 -33.5 52.5t-252.5 12.5l-146 -1l-111 -442h207q98 0 120.5 14.5t32.5 72.5h57q-32 -121 -57 -266h-51q5 47 5 73q0 11 -14 27q-7 8 -26 11q-27 5 -84 5h-205q-89 -340 -185 -533q93 29 165 29q120 0 294 -38q92 -21 125 -21q44 0 71 22
t27 50q0 16 -13 52q-8 25 -8 47q0 23 18.5 41t44.5 18q31 0 51.5 -24t20.5 -64q0 -85 -74.5 -149t-196.5 -64q-64 0 -162 11q-215 24 -328 24q-148 0 -346 -24l16 55q118 33 139 48.5t35 45.5q48 95 124.5 381l155.5 604q-120 0 -227 -57t-167 -148.5t-60 -192.5
q0 -43 8.5 -75t38.5 -90q19 -35 19 -57t-18.5 -39t-45.5 -17q-39 0 -62 39q-34 57 -34 155q0 210 159 377t463 167h343q178 0 263 23q-40 -166 -51 -236zM1038 1554q42 0 71.5 -29.5t29.5 -71.5q0 -43 -29.5 -72.5t-71.5 -29.5t-72 29.5t-30 72.5q0 42 30 71.5t72 29.5z" />
    <glyph glyph-name="edot" unicode="&#x117;" horiz-adv-x="696" 
d="M698 251l33 -44q-245 -233 -420 -233q-71 0 -108.5 48t-37.5 154q0 214 130 426q146 241 349 241q71 0 108.5 -35.5t37.5 -97.5q0 -65 -45 -128t-161 -131q-58 -33 -248 -119q-9 -54 -9 -103q0 -71 22.5 -99t65.5 -28q41 0 90 23q66 31 193 126zM348 396q161 72 242 155
q55 58 55 115q0 43 -22.5 68.5t-58.5 25.5q-37 0 -72 -28q-47 -37 -79 -112q-46 -110 -65 -224zM630 1192q42 0 71.5 -29.5t29.5 -71.5q0 -43 -29.5 -72.5t-71.5 -29.5t-72 29.5t-30 72.5q0 42 30 71.5t72 29.5z" />
    <glyph glyph-name="Gcircumflex" unicode="&#x11c;" horiz-adv-x="1270" 
d="M1331 796h-54q5 47 5 83q0 135 -69.5 197t-171.5 62q-141 0 -283 -95.5t-232.5 -266.5t-90.5 -357q0 -189 89.5 -278t200.5 -89q66 0 126.5 17.5t115.5 51.5q46 157 46 209q0 25 -18.5 39.5t-65.5 14.5q-16 0 -77 -5l9 49q44 8 89 8q36 0 89 -2q41 -1 61 -1q36 0 110 6
q39 3 67 4l-11 -51q-50 1 -71 -21.5t-44 -117.5q-82 -341 -162 -493.5t-182 -219t-220 -66.5q-100 0 -161.5 45.5t-61.5 95.5q0 27 19.5 46t44.5 19q34 0 77 -48q49 -54 76.5 -70t58.5 -16q63 0 111 49q98 97 193 449q-66 -36 -134 -54.5t-139 -18.5q-176 0 -277 93
q-135 124 -135 346q0 202 102.5 380t285 293t346.5 115q89 0 209 -28q121 -27 184 -28q-55 -190 -55 -346zM1065 1616h151l73 -291h-57l-104 183l-268 -183h-64z" />
    <glyph glyph-name="gcircumflex" unicode="&#x11d;" horiz-adv-x="819" 
d="M847 848l81 18q-73 -234 -134 -469q-44 -168 -61 -280q-9 -56 -10 -142q-2 -144 -32 -232q-42 -123 -156.5 -198t-271.5 -75q-135 0 -212.5 63.5t-77.5 145.5q0 81 62 151q46 53 192 128q74 39 139 80q-74 -38 -115 -38q-37 0 -65.5 34.5t-28.5 91.5q0 184 109.5 365.5
t263.5 272.5q95 56 238 56q28 0 69 -2zM735 700q-48 9 -85 9q-95 0 -163 -50t-116 -168q-67 -167 -67 -281q0 -47 26.5 -79t59.5 -32q40 0 99 38.5t96.5 96.5t76.5 200zM599 155q-68 -61 -262 -195q-171 -116 -210 -167q-39 -52 -39 -110q0 -57 50.5 -102.5t122.5 -45.5
q68 0 132 33.5t111.5 97t65.5 143.5t19 212q1 29 10 134zM707 1254h151l73 -291h-57l-104 183l-268 -183h-64z" />
    <glyph glyph-name="Gdot" unicode="&#x120;" horiz-adv-x="1270" 
d="M1331 796h-54q5 47 5 83q0 135 -69.5 197t-171.5 62q-141 0 -283 -95.5t-232.5 -266.5t-90.5 -357q0 -189 89.5 -278t200.5 -89q66 0 126.5 17.5t115.5 51.5q46 157 46 209q0 25 -18.5 39.5t-65.5 14.5q-16 0 -77 -5l9 49q44 8 89 8q36 0 89 -2q41 -1 61 -1q36 0 110 6
q39 3 67 4l-11 -51q-50 1 -71 -21.5t-44 -117.5q-82 -341 -162 -493.5t-182 -219t-220 -66.5q-100 0 -161.5 45.5t-61.5 95.5q0 27 19.5 46t44.5 19q34 0 77 -48q49 -54 76.5 -70t58.5 -16q63 0 111 49q98 97 193 449q-66 -36 -134 -54.5t-139 -18.5q-176 0 -277 93
q-135 124 -135 346q0 202 102.5 380t285 293t346.5 115q89 0 209 -28q121 -27 184 -28q-55 -190 -55 -346zM1098 1554q42 0 71.5 -29.5t29.5 -71.5q0 -43 -29.5 -72.5t-71.5 -29.5t-72 29.5t-30 72.5q0 42 30 71.5t72 29.5z" />
    <glyph glyph-name="gdot" unicode="&#x121;" horiz-adv-x="819" 
d="M847 848l81 18q-73 -234 -134 -469q-44 -168 -61 -280q-9 -56 -10 -142q-2 -144 -32 -232q-42 -123 -156.5 -198t-271.5 -75q-135 0 -212.5 63.5t-77.5 145.5q0 81 62 151q46 53 192 128q74 39 139 80q-74 -38 -115 -38q-37 0 -65.5 34.5t-28.5 91.5q0 184 109.5 365.5
t263.5 272.5q95 56 238 56q28 0 69 -2zM735 700q-48 9 -85 9q-95 0 -163 -50t-116 -168q-67 -167 -67 -281q0 -47 26.5 -79t59.5 -32q40 0 99 38.5t96.5 96.5t76.5 200zM599 155q-68 -61 -262 -195q-171 -116 -210 -167q-39 -52 -39 -110q0 -57 50.5 -102.5t122.5 -45.5
q68 0 132 33.5t111.5 97t65.5 143.5t19 212q1 29 10 134zM740 1192q42 0 71.5 -29.5t29.5 -71.5q0 -43 -29.5 -72.5t-71.5 -29.5t-72 29.5t-30 72.5q0 42 30 71.5t72 29.5z" />
    <glyph glyph-name="Gcedilla" unicode="&#x122;" horiz-adv-x="1270" 
d="M713 -25l-37 -69q108 -16 108 -107q0 -81 -96 -149.5t-228 -88.5l18 60q66 12 127 50t61 92q0 36 -28 55.5t-58 19.5q-6 0 -17 -1l82 136q-155 0 -270.5 111.5t-115.5 326.5q0 324 243 555.5t491 231.5q89 0 209 -28q121 -27 184 -28q-55 -185 -55 -346h-54q5 45 5 83
q0 145 -75 202t-166 57q-229 0 -417.5 -219.5t-188.5 -499.5q0 -180 86.5 -273.5t203.5 -93.5q132 0 242 69q46 160 46 209q0 54 -84 54q-19 0 -77 -5l9 49q41 8 89 8q36 0 89 -2q41 -1 61 -1q36 0 110 6q45 3 67 4l-11 -51q-51 0 -71.5 -22t-43.5 -117q-4 -13 -67 -253
h-152l12 44q-107 -61 -231 -69z" />
    <glyph glyph-name="gcedilla" unicode="&#x123;" horiz-adv-x="819" 
d="M847 848l81 18q-73 -234 -134 -469q-44 -168 -61 -280q-9 -56 -10 -142q-2 -144 -32 -232q-42 -123 -156.5 -198t-271.5 -75q-135 0 -212.5 63.5t-77.5 145.5q0 81 62 151q46 53 192 128q74 39 139 80q-74 -38 -115 -38q-37 0 -65.5 34.5t-28.5 91.5q0 184 109.5 365.5
t263.5 272.5q95 56 238 56q28 0 69 -2zM735 700q-48 9 -85 9q-95 0 -163 -50t-116 -168q-67 -167 -67 -281q0 -47 26.5 -79t59.5 -32q40 0 99 38.5t96.5 96.5t76.5 200zM599 155q-68 -61 -262 -195q-171 -116 -210 -167q-39 -52 -39 -110q0 -57 50.5 -102.5t122.5 -45.5
q68 0 132 33.5t111.5 97t65.5 143.5t19 212q1 29 10 134zM851 1322l15 -53q-141 -108 -141 -174q0 -24 20 -60q20 -38 20 -63q0 -30 -22 -53t-53 -23q-38 0 -60 30t-22 63q0 166 243 333z" />
    <glyph glyph-name="Hcircumflex" unicode="&#x124;" horiz-adv-x="1393" 
d="M1380 45l-13 -57q-51 -6 -78 -6q-43 0 -114 7q-76 7 -130 7q-43 0 -89 -14q41 115 93 320l77 300l-270 -10q-71 -4 -146 -11q-68 -267 -140 -395t-164.5 -188.5t-177.5 -60.5q-83 0 -142 40q-43 28 -43 70q0 25 17 42.5t41 17.5q39 0 80 -55q25 -33 40.5 -42.5t34.5 -9.5
q78 0 146.5 126t200.5 623l98 366q-200 0 -300.5 -66t-100.5 -149q0 -28 27 -71q24 -40 24 -65q0 -29 -18.5 -47.5t-46.5 -18.5q-35 0 -60 33.5t-25 97.5q0 116 84 205t244 126q92 21 367 21q-74 -146 -165 -516q264 0 416 19q87 290 153 404.5t148.5 165.5t184.5 51
q88 0 135.5 -33.5t47.5 -76.5q0 -25 -17 -41t-44 -16q-35 0 -79 50q-45 50 -80 50q-75 0 -148 -139q-130 -248 -301 -1047q17 -2 48 -7q57 -10 92 -10q41 0 93 10zM1134 1616h151l73 -291h-57l-104 183l-268 -183h-64z" />
    <glyph glyph-name="hcircumflex" unicode="&#x125;" horiz-adv-x="901" 
d="M977 212l26 -37q-92 -102 -189 -162q-66 -41 -109 -41q-35 0 -56.5 28t-21.5 87q0 40 16.5 116.5t93.5 328.5q34 124 34 145q0 34 -34 34q-42 0 -105 -42q-88 -58 -156 -148q-43 -58 -69 -172l-80 -348h-149q48 175 74 286l147 642q40 177 105.5 272.5t171 152.5
t208.5 57q43 0 68 -21t25 -53q0 -27 -24.5 -47.5t-66.5 -20.5q-24 0 -62 5q-86 12 -119 12q-46 0 -75 -37t-60 -174l-112 -494q119 125 259 211q82 51 132 51q39 0 61 -23.5t22 -65.5q0 -34 -8 -68q-13 -59 -61 -214q-65 -214 -76.5 -266t-11.5 -93q0 -16 5.5 -24t16.5 -8
q24 0 90 57zM897 1763h151l73 -291h-57l-104 183l-268 -183h-64z" />
    <glyph glyph-name="Hbar" unicode="&#x126;" horiz-adv-x="1393" 
d="M1380 45l-13 -57q-51 -6 -78 -6q-43 0 -114 7q-76 7 -130 7q-43 0 -89 -14q41 115 93 320l77 300l-270 -10q-71 -4 -146 -11q-68 -267 -140 -395t-164.5 -188.5t-177.5 -60.5q-83 0 -142 40q-43 28 -43 70q0 25 17 42.5t41 17.5q39 0 80 -55q25 -33 40.5 -42.5t34.5 -9.5
q78 0 146.5 126t200.5 623l32 121h-219l16 64h220l49 185q-200 0 -300.5 -66.5t-100.5 -148.5q0 -29 27 -72q24 -39 24 -64q0 -28 -18 -47t-47 -19q-32 0 -58.5 31t-26.5 99q0 99 59.5 177t147.5 114.5t165.5 49t322.5 12.5q-46 -86 -94 -251h425q140 375 406 375
q88 0 135.5 -33.5t47.5 -76.5q0 -58 -61 -58q-35 0 -79 51q-45 50 -80 50q-107 0 -220 -308h200l-16 -64h-206q-95 -296 -207 -814q11 -1 48 -8q57 -10 92 -10q43 0 93 7zM784 870q-49 -183 -53 -201q264 0 416 18q40 133 57 183h-420z" />
    <glyph glyph-name="hbar" unicode="&#x127;" horiz-adv-x="901" 
d="M977 212l26 -37q-92 -102 -189 -162q-66 -41 -109 -41q-35 0 -56.5 28t-21.5 87q0 40 16.5 116.5t93.5 328.5q34 124 34 145q0 34 -34 34q-42 0 -105 -42q-88 -58 -156 -148q-43 -58 -69 -172l-80 -348h-149q48 175 74 286l147 642q15 66 21 85h-154l16 64h160
q66 172 193.5 253t248.5 81q42 0 67.5 -21t25.5 -53q0 -28 -24 -48.5t-67 -20.5q-24 0 -62 5q-86 12 -119 12q-39 0 -68.5 -29t-66.5 -179h300l-15 -64h-299l-98 -433q79 87 201.5 174.5t189.5 87.5q83 0 83 -89q0 -60 -44 -203q-84 -273 -98.5 -336t-14.5 -102
q0 -32 22 -32q41 0 180 131z" />
    <glyph glyph-name="Itilde" unicode="&#x128;" horiz-adv-x="778" 
d="M970 1183l-17 -54q-113 -7 -150 -28q-24 -14 -40 -42q-19 -36 -111 -382q-30 -114 -153 -623q70 -23 177 -20l-16 -48q-32 -1 -128 8q-69 6 -161 6q-127 0 -233 -19l12 53q110 17 167 44q14 7 22 17q15 18 32.5 72.5t119.5 445.5q30 113 122 494q-69 2 -169 -19l19 55
q42 11 86 15.5t199 8.5q145 4 222 16zM1000 1549h57q-28 -92 -82.5 -141t-115.5 -49q-31 0 -56 6q-13 3 -67 29q-56 26 -71 31q-22 6 -44 6q-27 0 -46 -15t-40 -57h-55q24 99 74.5 144.5t109.5 45.5q44 0 133 -35q84 -33 118 -33q32 0 56.5 19.5t28.5 48.5z" />
    <glyph glyph-name="itilde" unicode="&#x129;" horiz-adv-x="491" 
d="M206 609l-44 34q100 110 182.5 156.5t140.5 46.5q32 0 49 -14t17 -38q0 -29 -65 -246q-106 -355 -106 -428q0 -14 7 -23.5t15 -9.5q10 0 32 14q56 37 99 80q20 19 33 30l40 -38q-122 -111 -148 -130q-57 -42 -106 -61q-25 -10 -49 -10q-36 0 -56.5 21.5t-20.5 61.5
q0 72 40 224q69 269 109 387q8 24 8 41q0 20 -18 20q-20 0 -45.5 -16t-113.5 -102zM763 1187h57q-28 -92 -82.5 -141t-115.5 -49q-31 0 -56 6q-13 3 -67 29q-56 26 -71 31q-22 6 -44 6q-27 0 -46 -15t-40 -57h-55q24 99 74.5 144.5t109.5 45.5q44 0 133 -35q84 -33 118 -33
q32 0 56.5 19.5t28.5 48.5z" />
    <glyph glyph-name="Imacron" unicode="&#x12a;" horiz-adv-x="778" 
d="M970 1183l-17 -54q-113 -7 -150 -28q-24 -14 -40 -42q-19 -36 -111 -382q-30 -114 -153 -623q70 -23 177 -20l-16 -48q-32 -1 -128 8q-69 6 -161 6q-127 0 -233 -19l12 53q110 17 167 44q14 7 22 17q15 18 32.5 72.5t119.5 445.5q30 113 122 494q-69 2 -169 -19l19 55
q42 11 86 15.5t199 8.5q145 4 222 16zM559 1456h463l-52 -86h-460z" />
    <glyph glyph-name="imacron" unicode="&#x12b;" horiz-adv-x="491" 
d="M211 609l-44 34q100 110 182.5 156.5t140.5 46.5q32 0 49 -14t17 -38q0 -29 -65 -246q-106 -355 -106 -428q0 -14 7 -23.5t15 -9.5q10 0 32 14q56 37 99 80q20 19 33 30l40 -38q-122 -111 -148 -130q-57 -42 -106 -61q-25 -10 -49 -10q-36 0 -56.5 21.5t-20.5 61.5
q0 72 40 224q69 269 109 387q8 24 8 41q0 20 -18 20q-20 0 -45.5 -16t-113.5 -102zM316 1094h463l-52 -86h-460z" />
    <glyph glyph-name="Ibreve" unicode="&#x12c;" horiz-adv-x="778" 
d="M970 1183l-17 -54q-113 -7 -150 -28q-24 -14 -40 -42q-19 -36 -111 -382q-30 -114 -153 -623q70 -23 177 -20l-16 -48q-32 -1 -128 8q-69 6 -161 6q-127 0 -233 -19l12 53q110 17 167 44q14 7 22 17q15 18 32.5 72.5t119.5 445.5q30 113 122 494q-69 2 -169 -19l19 55
q42 11 86 15.5t199 8.5q145 4 222 16zM571 1603h53q11 -70 20 -85q15 -25 48 -41.5t75 -16.5q73 0 140 42q41 26 95 101h58q-70 -139 -149.5 -208.5t-169.5 -69.5q-75 0 -123 60.5t-48 185.5q0 10 1 32z" />
    <glyph glyph-name="ibreve" unicode="&#x12d;" horiz-adv-x="491" 
d="M206 609l-44 34q100 110 182.5 156.5t140.5 46.5q32 0 49 -14t17 -38q0 -29 -65 -246q-106 -355 -106 -428q0 -14 7 -23.5t15 -9.5q10 0 32 14q56 37 99 80q20 19 33 30l40 -38q-122 -111 -148 -130q-57 -42 -106 -61q-25 -10 -49 -10q-36 0 -56.5 21.5t-20.5 61.5
q0 72 40 224q69 269 109 387q8 24 8 41q0 20 -18 20q-20 0 -45.5 -16t-113.5 -102zM371 1241h53q11 -70 20 -85q15 -25 48 -41.5t75 -16.5q73 0 140 42q41 26 95 101h58q-70 -139 -149.5 -208.5t-169.5 -69.5q-75 0 -123 60.5t-48 185.5q0 10 1 32z" />
    <glyph glyph-name="Iogonek" unicode="&#x12e;" horiz-adv-x="778" 
d="M970 1183l-17 -54q-113 -7 -150 -28q-24 -14 -40 -42q-19 -36 -111 -382q-30 -114 -153 -623q70 -23 177 -20l-16 -48q-32 -1 -128 8q-69 6 -161 6q-127 0 -233 -19l12 53q110 17 167 44q14 7 22 17q15 18 32.5 72.5t119.5 445.5q30 113 122 494q-69 2 -169 -19l19 55
q42 11 86 15.5t199 8.5q145 4 222 16zM368 16h69q-65 -102 -65 -192q0 -56 36 -91.5t95 -35.5q23 0 59 4l-27 -60q-71 -17 -122 -17q-67 0 -107.5 38t-40.5 93q0 107 103 261z" />
    <glyph glyph-name="iogonek" unicode="&#x12f;" horiz-adv-x="491" 
d="M600 1271q31 0 51 -20.5t20 -52.5q0 -44 -30.5 -77.5t-68.5 -33.5q-30 0 -50 21t-20 55q0 45 29 76.5t69 31.5zM206 609l-44 34q100 110 182.5 156.5t140.5 46.5q32 0 49 -14t17 -38q0 -29 -65 -246q-106 -355 -106 -428q0 -14 7 -23.5t15 -9.5q32 0 164 124l39 -38
q-137 -129 -200 -165t-103 -36q-35 0 -55.5 22t-20.5 61q0 125 150 611q7 23 7 41q0 20 -18 20q-20 0 -45.5 -16t-113.5 -102zM297 16h69q-65 -102 -65 -192q0 -56 36 -91.5t95 -35.5q23 0 59 4l-27 -60q-71 -17 -122 -17q-67 0 -107.5 38t-40.5 93q0 107 103 261z" />
    <glyph glyph-name="Jcircumflex" unicode="&#x134;" horiz-adv-x="819" 
d="M1004 1180q-73 -162 -155 -451l-149 -521q-71 -250 -198 -366q-128 -117 -279 -117q-100 0 -161 45t-61 99q0 25 18 44t41 19q34 0 73 -41q53 -55 83 -70q42 -21 76 -21q36 0 62 16q43 26 75 81.5t132 369.5q84 262 163 544l87 304l-48 2q-159 0 -263 -76.5t-104 -161.5
q0 -30 26 -69q24 -36 24 -57q0 -26 -19.5 -45.5t-46.5 -19.5q-35 0 -57.5 31t-22.5 91q0 112 79.5 205.5t214.5 136.5q90 29 273 29q26 0 137 -1zM833 1616h151l73 -291h-57l-104 183l-268 -183h-64z" />
    <glyph glyph-name="jcircumflex" unicode="&#x135;" horiz-adv-x="451" 
d="M458 1254h152l73 -291h-57l-104 183l-268 -183h-64zM208 605l-33 39q88 97 187.5 149.5t146.5 52.5q52 0 52 -54q0 -17 -15 -72l-190 -695q-77 -284 -177 -416.5t-261 -132.5q-68 0 -106.5 26t-38.5 61q0 24 18 41t42 17q28 0 80 -26q60 -30 92 -30q59 0 91.5 57.5
t94.5 308.5q117 471 185 696q20 64 20 75q0 22 -23 22q-45 0 -165 -119z" />
    <glyph glyph-name="Kcedilla" unicode="&#x136;" horiz-adv-x="1352" 
d="M1551 1180l-6 -25q-81 -20 -134 -50t-143 -109q-239 -209 -416 -321q51 -63 87 -141t125 -359q80 -251 163 -339t169 -88q83 0 113 88q18 52 31 64q18 16 40 16q24 0 41 -16.5t17 -39.5q0 -60 -71 -116t-180 -56q-94 0 -178.5 48t-154.5 151t-143 319q-68 204 -105 279.5
t-103 159.5l-106 -405q-32 -123 -40 -176q68 -29 122 -29q13 0 37 2l-13 -50q-20 -1 -25 -1q-33 0 -94 7q-64 7 -105 7q-83 0 -263 -32l6 48q96 19 135 52.5t62 105.5q53 162 138 487l122 463q-198 -12 -313 -90q-89 -59 -89 -132q0 -26 25 -66q23 -36 23 -58
q0 -27 -20 -47.5t-47 -20.5q-31 0 -55.5 31t-24.5 82q0 139 138.5 250.5t481.5 111.5h65q-55 -143 -72 -207l-80 -303q74 28 172.5 95.5t189.5 143.5q167 140 190 170q7 10 7 17q0 8 -20.5 14.5t-115.5 8.5l13 56q128 -12 210 -12q84 0 194 12zM615 -103q60 10 99 10
q70 0 103 -31.5t33 -72.5q0 -160 -301 -239l19 61q164 55 164 137q0 72 -92 72q-17 0 -40 -4z" />
    <glyph glyph-name="kcedilla" unicode="&#x137;" horiz-adv-x="901" 
d="M329 0h-149l131 545q95 405 124.5 499t71 155t104 109t135 73.5t127.5 25.5q52 0 77.5 -20t25.5 -53q0 -28 -23 -48t-58 -20q-44 0 -133 15q-29 6 -51 6q-31 0 -58.5 -22t-49 -78.5t-60.5 -234.5l-71 -320q96 109 199 168q78 44 149 44q50 0 84.5 -37.5t34.5 -94.5
q0 -107 -111 -191t-339 -90q77 -34 123 -74.5t90.5 -112t114.5 -239.5q83 -200 154 -266q70 -66 154 -66q49 0 81 21.5t32 43.5q0 14 -10 38q-11 26 -11 44q0 23 18 41t42 18q28 0 48 -22.5t20 -59.5q0 -72 -66 -128t-172 -56q-109 0 -195 55t-161 176q-43 70 -150 319
q-50 118 -90 177q-31 46 -85 91zM434 473q135 -1 218.5 26t119 72t35.5 98q0 38 -20.5 61t-49.5 23q-94 0 -288 -210zM377 -103q60 10 99 10q70 0 103 -31.5t33 -72.5q0 -160 -301 -239l19 61q164 55 164 137q0 72 -92 72q-17 0 -40 -4z" />
    <glyph glyph-name="kgreenlandic" unicode="&#x138;" horiz-adv-x="901" 
d="M472 471q51 38 127 131q143 177 220.5 228.5t150.5 51.5q85 0 85 -66q0 -64 -77 -64l-28 1q-22 2 -33 2q-59 0 -117 -33.5t-151 -136.5q-89 -100 -130 -130q136 -64 186.5 -129t154.5 -321q75 -183 143 -257.5t164 -74.5q41 0 75.5 20t34.5 44q0 12 -11 42q-10 27 -10 41
q0 22 17.5 40.5t42.5 18.5q29 0 48.5 -22.5t19.5 -59.5q0 -75 -67.5 -129.5t-170.5 -54.5q-150 0 -271.5 115.5t-245.5 470.5q-35 102 -66.5 149t-99.5 84l-101 -432h-151l70 269q98 382 98 432q0 23 -22 23q-42 0 -158 -122l-31 35q100 109 197 157.5t140 48.5q40 0 40 -31
q0 -11 -13 -68z" />
    <glyph glyph-name="Lcedilla" unicode="&#x13b;" horiz-adv-x="1188" 
d="M98 -17l12 54q105 20 140.5 46t64 92.5t77.5 274.5q65 275 118 396q81 182 201.5 270t243.5 88q79 0 133 -40t54 -83q0 -24 -16.5 -41t-39.5 -17q-30 0 -73 39q-48 42 -74.5 55t-51.5 13q-29 0 -57 -16q-39 -22 -83.5 -83.5t-92.5 -182.5q-31 -82 -79 -270
q-75 -299 -114 -397q-28 -70 -68 -116q143 32 228 32q53 0 98 -6.5t157 -32.5q97 -23 136 -23q38 0 64.5 23.5t26.5 53.5q0 19 -14 53q-13 32 -13 51q0 27 16 42.5t42 15.5q30 0 51 -26.5t21 -72.5q0 -87 -72 -150t-195 -63q-61 0 -157 9q-324 29 -424 29q-147 0 -260 -17z
M521 -103q60 10 99 10q70 0 103 -31.5t33 -72.5q0 -160 -301 -239l19 61q164 55 164 137q0 72 -92 72q-17 0 -40 -4z" />
    <glyph glyph-name="lcedilla" unicode="&#x13c;" horiz-adv-x="491" 
d="M590 241l34 -36q-78 -88 -184.5 -160.5t-175.5 -72.5q-31 0 -51 23.5t-20 64.5q0 80 62 332l108 439q59 238 99 319q62 123 175.5 191t239.5 68q43 0 67.5 -20.5t24.5 -49.5q0 -32 -24 -52.5t-70 -20.5q-30 0 -85 10q-48 8 -89 8t-62 -17q-29 -24 -52.5 -101t-76.5 -304
l-99 -419q-74 -315 -74 -329q0 -32 23 -32q22 0 64 26q83 52 166 133zM160 -103q60 10 99 10q70 0 103 -31.5t33 -72.5q0 -160 -301 -239l19 61q164 55 164 137q0 72 -92 72q-17 0 -40 -4z" />
    <glyph glyph-name="Ncedilla" unicode="&#x145;" horiz-adv-x="1434" 
d="M915 1204l28 -117q39 -160 77 -280t195 -555q15 55 60 244q58 246 77 309q56 185 108 272t116 125t145 38q65 0 99.5 -25t34.5 -60q0 -25 -18.5 -44t-43.5 -19q-18 0 -42 10q-50 20 -60 23q-18 4 -39 4q-49 0 -84 -33q-62 -58 -136.5 -291t-189.5 -745l-34 -149
q-114 251 -154 356q-54 141 -123 356l-110 346q-20 -120 -93.5 -404.5t-87.5 -327.5q-46 -135 -98.5 -207t-115 -105t-137.5 -33q-94 0 -154 42q-46 31 -46 79q0 21 17 37.5t41 16.5q31 0 67 -33q64 -59 117 -59q57 0 112 51q82 78 158 327q92 301 177 764q-35 0 -134 -20
t-165.5 -56.5t-102 -95t-35.5 -122.5q0 -32 9 -65q6 -22 26 -54q23 -37 23 -56q0 -24 -17.5 -41t-43.5 -17q-38 0 -65 39.5t-27 120.5q0 134 67.5 228t180.5 142q72 30 278 58q76 10 143 26zM682 -103q60 10 99 10q70 0 103 -31.5t33 -72.5q0 -160 -301 -239l19 61
q164 55 164 137q0 72 -92 72q-17 0 -40 -4z" />
    <glyph glyph-name="ncedilla" unicode="&#x146;" horiz-adv-x="942" 
d="M204 607l-34 35q128 122 204 162t130 40q21 0 33 -9t12 -21q0 -9 -5 -32l-45 -201q102 113 256 211q82 51 135 51q39 0 61 -25t22 -72q0 -31 -9 -70q-16 -65 -84 -283q-64 -204 -64 -271q0 -20 6 -30t17 -10q29 0 91 56q44 40 88 74l25 -36q-92 -102 -191 -164
q-63 -40 -104 -40q-38 0 -59 27.5t-21 89.5q0 89 111 443q34 126 34 147q0 31 -37 31q-40 0 -103 -42q-94 -62 -157 -146q-40 -54 -67 -172l-81 -349h-149q42 150 73 287l89 380q5 23 5 33q0 27 -20 27q-16 0 -46 -21q-62 -41 -116 -100zM373 -103q60 10 99 10
q70 0 103 -31.5t33 -72.5q0 -160 -301 -239l19 61q164 55 164 137q0 72 -92 72q-17 0 -40 -4z" />
    <glyph glyph-name="Eng" unicode="&#x14a;" horiz-adv-x="1380" 
d="M679 1125q-179 -10 -290.5 -76.5t-111.5 -144.5q0 -30 26 -68q22 -33 22 -57q0 -28 -20.5 -48.5t-46.5 -20.5q-30 0 -55 29.5t-25 90.5q0 136 143.5 246t465.5 110q24 0 63 -1q-11 -49 -36 -141q141 153 293 153q155 0 263 -131.5t108 -380.5q0 -200 -83.5 -444.5
t-285 -398.5t-395.5 -154q-97 0 -161.5 31t-64.5 80q0 26 18.5 46t47.5 20q36 0 78 -49q44 -52 106 -52q124 0 259.5 109.5t217 339.5t81.5 468q0 198 -65 315.5t-177 117.5q-145 0 -280 -221q-146 -620 -232 -838q76 -13 143 -13q44 0 81 7l-17 -57q-27 -4 -54 -4
q-20 0 -91 4q-117 8 -164 8q-101 0 -207 -18l12 55q109 24 140.5 60.5t84.5 222t209 805.5z" />
    <glyph glyph-name="eng" unicode="&#x14b;" horiz-adv-x="872" 
d="M368 0h-149q2 12 21 81q18 62 52 207l89 380q5 24 5 34q0 26 -21 26q-33 0 -161 -125l-34 39q199 202 334 202q45 0 45 -30q0 -9 -5 -32l-45 -201q54 64 186.5 163t204.5 99q83 0 83 -96q0 -58 -44 -196l-65 -208l-86 -318q-78 -285 -178.5 -417t-260.5 -132
q-69 0 -107 26.5t-38 60.5q0 24 18 41t42 17q29 0 81 -26q59 -30 91 -30q68 0 101.5 65t109.5 372q91 364 134 505q42 138 42 169q0 34 -37 34q-48 0 -133.5 -63.5t-127 -124.5t-66.5 -172z" />
    <glyph glyph-name="Omacron" unicode="&#x14c;" horiz-adv-x="1229" 
d="M899 1197q126 0 227.5 -58.5t157.5 -167t56 -252.5q0 -188 -101 -373t-247 -279t-324 -94q-205 0 -331.5 128t-126.5 337q0 200 101 386.5t248 279.5t340 93zM826 1125q-116 0 -213.5 -68.5t-159.5 -214t-62 -337.5q0 -220 97 -339.5t242 -119.5q108 0 204.5 71
t159 223.5t62.5 350.5q0 205 -95.5 319.5t-234.5 114.5zM743 1456h463l-52 -86h-460z" />
    <glyph glyph-name="omacron" unicode="&#x14d;" horiz-adv-x="819" 
d="M670 841q98 0 163 -78t65 -217q0 -222 -156 -398.5t-330 -176.5q-107 0 -172.5 70t-65.5 191q0 210 120 388q151 221 376 221zM585 766q-85 0 -164.5 -121.5t-79.5 -335.5q0 -130 49 -205q36 -55 96 -55q84 0 153 104q88 135 88 335q0 150 -40.5 214t-101.5 64zM461 1094
h463l-52 -86h-460z" />
    <glyph glyph-name="Obreve" unicode="&#x14e;" horiz-adv-x="1229" 
d="M899 1197q126 0 227.5 -58.5t157.5 -167t56 -252.5q0 -188 -101 -373t-247 -279t-324 -94q-205 0 -331.5 128t-126.5 337q0 200 101 386.5t248 279.5t340 93zM826 1125q-116 0 -213.5 -68.5t-159.5 -214t-62 -337.5q0 -220 97 -339.5t242 -119.5q108 0 204.5 71
t159 223.5t62.5 350.5q0 205 -95.5 319.5t-234.5 114.5zM717 1603h53q11 -70 20 -85q15 -25 48 -41.5t75 -16.5q73 0 140 42q41 26 95 101h58q-70 -139 -149.5 -208.5t-169.5 -69.5q-75 0 -123 60.5t-48 185.5q0 10 1 32z" />
    <glyph glyph-name="obreve" unicode="&#x14f;" horiz-adv-x="819" 
d="M670 841q98 0 163 -78t65 -217q0 -222 -156 -398.5t-330 -176.5q-107 0 -172.5 70t-65.5 191q0 210 120 388q151 221 376 221zM585 766q-85 0 -164.5 -121.5t-79.5 -335.5q0 -130 49 -205q36 -55 96 -55q84 0 153 104q88 135 88 335q0 150 -40.5 214t-101.5 64zM479 1241
h53q11 -70 20 -85q15 -25 48 -41.5t75 -16.5q73 0 140 42q41 26 95 101h58q-70 -139 -149.5 -208.5t-169.5 -69.5q-75 0 -123 60.5t-48 185.5q0 10 1 32z" />
    <glyph glyph-name="Rcedilla" unicode="&#x156;" horiz-adv-x="1229" 
d="M737 572l-134 -531q48 -7 77 -7q44 0 109 15l-10 -49q-67 -14 -104 -14q-39 0 -115 7q-67 7 -111 7q-80 0 -185 -23l15 56q110 28 143 55q50 43 77 151l140 559q26 107 26 126q0 18 -12.5 27t-49.5 8l13 48q101 1 242 37q-12 -38 -31 -112l-75 -295q48 -10 81 -10
q125 0 214 87.5t89 207.5q0 93 -71.5 153t-194.5 60q-157 0 -307 -76t-225 -188.5t-75 -235.5q0 -93 77 -160q39 -33 48 -48t9 -32q0 -21 -15.5 -36.5t-37.5 -15.5q-54 0 -96 63q-54 82 -54 202q0 154 85 287t257.5 220t363.5 87q178 0 293 -67t115 -198q0 -123 -105.5 -229
t-290.5 -136q46 -92 59 -124q21 -54 64 -182q101 -301 209 -424q80 -90 173 -90q96 0 123 87q16 55 30 68q19 18 43 18t40.5 -17t16.5 -41q0 -62 -68 -118t-175 -56q-97 0 -185.5 47t-172 154t-145.5 257q-31 75 -91 275q-36 122 -45 146l-25 2q-9 0 -26 -2zM592 -103
q60 10 99 10q70 0 103 -31.5t33 -72.5q0 -160 -301 -239l19 61q164 55 164 137q0 72 -92 72q-17 0 -40 -4z" />
    <glyph glyph-name="rcedilla" unicode="&#x157;" horiz-adv-x="614" 
d="M359 0h-149l70 269q51 198 89 376q9 44 9 55q0 24 -22 24q-15 0 -46 -20.5t-112 -101.5l-31 35q96 103 191.5 154.5t146.5 51.5q18 0 28.5 -8.5t10.5 -21.5t-13 -69l-43 -179q101 159 228 272q61 54 102 54q30 0 50 -19.5t20 -45.5q0 -27 -19.5 -46t-97.5 -45
q-74 -25 -120.5 -60t-102 -107t-77.5 -125.5t-67 -248.5zM222 -103q60 10 99 10q70 0 103 -31.5t33 -72.5q0 -160 -301 -239l19 61q164 55 164 137q0 72 -92 72q-17 0 -40 -4z" />
    <glyph glyph-name="Scircumflex" unicode="&#x15c;" horiz-adv-x="942" 
d="M1029 811h-52q11 105 11 159q0 77 -41.5 121.5t-112.5 44.5q-110 0 -192 -79.5t-82 -178.5q0 -53 22.5 -96t99.5 -120q141 -138 185 -216t44 -152q0 -109 -66.5 -210t-196 -166.5t-273.5 -65.5q-142 0 -239.5 74t-97.5 156q0 44 25.5 73t58.5 29q34 0 56 -27
q14 -16 28 -72q16 -68 39 -98.5t63.5 -50t88.5 -19.5q143 0 250 96.5t107 213.5q0 40 -13.5 79.5t-49.5 89.5q-25 34 -111 120q-85 84 -107 115q-31 45 -46 90.5t-15 90.5q0 91 61 183t158.5 146.5t221.5 54.5q62 0 153 -19q52 -10 90 -15q-22 -65 -34 -122.5t-33 -228.5z
M859 1616h151l73 -291h-57l-104 183l-268 -183h-64z" />
    <glyph glyph-name="scircumflex" unicode="&#x15d;" horiz-adv-x="655" 
d="M613 842q89 0 137.5 -34.5t48.5 -79.5q0 -27 -20.5 -47t-49.5 -20q-19 0 -33 8.5t-40 42.5q-49 65 -97 65q-41 0 -72.5 -31.5t-31.5 -78.5q0 -41 20 -79.5t101 -124.5q111 -118 111 -224t-90 -185.5t-232 -79.5q-119 0 -177 48.5t-58 119.5q0 35 22 58t54 23
q28 0 48 -18.5t20 -43.5q0 -10 -2 -26q-1 -13 -1 -22q0 -33 28 -56q27 -23 74 -23q54 0 95 18.5t64 56t23 74.5q0 36 -21.5 72t-96.5 119q-104 116 -104 223q0 98 79 171.5t201 73.5zM633 1254h151l73 -291h-57l-104 183l-268 -183h-64z" />
    <glyph glyph-name="Tbar" unicode="&#x166;" horiz-adv-x="1024" 
d="M713 551h-290l16 64h290l65 264q40 174 53 221q-59 2 -89 2q-278 0 -394.5 -92t-116.5 -228q0 -35 10.5 -56t44.5 -59q34 -37 34 -68q0 -27 -20.5 -46t-47.5 -19q-50 0 -78 58t-28 132q0 184 157.5 331t446.5 147q90 0 287 -26q140 -18 203 -18q115 0 115 77q0 7 -3 28
q-3 19 -3 25q0 28 18 45.5t43 17.5q30 0 49.5 -22t19.5 -59q0 -73 -78 -129.5t-274 -56.5q-74 0 -145 6q-9 -28 -121 -475h291l-16 -64h-291q-53 -205 -121 -503q64 -8 111 -8q71 0 140 17l-14 -57q-58 -15 -120 -15q-33 0 -97 6q-110 9 -166 9q-105 0 -206 -18l14 55
q106 11 149 44t68.5 116t93.5 354z" />
    <glyph glyph-name="tbar" unicode="&#x167;" horiz-adv-x="655" 
d="M468 490h219l-16 -64h-220l-15 -56q-40 -153 -40 -210q0 -51 45 -51q31 0 72 20.5t186 120.5l33 -39q-191 -145 -275.5 -191.5t-136.5 -46.5q-80 0 -80 115q0 69 38 219l31 119h-148l15 64h149l55 215h-161l18 71h161l56 219l159 61l-72 -280h207l-16 -71h-207z" />
    <glyph glyph-name="Utilde" unicode="&#x168;" horiz-adv-x="1515" 
d="M928 1195q-101 -178 -199 -453q-69 -195 -69 -326q0 -146 70.5 -227t176.5 -81q100 0 188 50q117 66 216.5 201t162.5 323.5t63 352.5q0 114 -49 216q-26 52 -29 62q-4 14 -4 30q0 30 18.5 49t45.5 19q47 0 74 -50q39 -68 39 -211q0 -306 -134 -609t-309.5 -433
t-368.5 -130q-157 0 -241 104.5t-84 257.5q0 126 39 258q51 173 211 517q-125 3 -224 -30.5t-142.5 -85.5t-43.5 -103q0 -21 23 -57q24 -41 24 -64q0 -29 -18 -48t-45 -19q-33 0 -57.5 30t-24.5 78q0 77 45 154.5t116.5 124.5t176.5 69q52 11 216 20q112 6 137 11z
M1368 1549h57q-28 -92 -82.5 -141t-115.5 -49q-31 0 -56 6q-13 3 -67 29q-56 26 -71 31q-22 6 -44 6q-27 0 -46 -15t-40 -57h-55q24 99 74.5 144.5t109.5 45.5q44 0 133 -35q84 -33 118 -33q32 0 56.5 19.5t28.5 48.5z" />
    <glyph glyph-name="utilde" unicode="&#x169;" horiz-adv-x="942" 
d="M850 814h142l-94 -349q-83 -304 -83 -346q0 -19 9 -29t20 -10q17 0 40 15q33 23 125 116l33 -37q-201 -209 -296 -209q-32 0 -54.5 24.5t-22.5 69.5q0 52 22 139q-89 -102 -220 -179q-87 -51 -151 -51q-35 0 -55 23t-20 73q0 39 9 84q13 63 66 253q67 241 67 289
q0 28 -20 28q-18 0 -49 -18.5t-106 -89.5l-44 35q134 120 204.5 157.5t113.5 37.5q24 0 39 -17.5t15 -54.5q0 -69 -72 -339q-64 -243 -64 -277q0 -21 13.5 -36t29.5 -15q56 0 159 92.5t135 210.5zM978 1187h57q-28 -92 -82.5 -141t-115.5 -49q-31 0 -56 6q-13 3 -67 29
q-56 26 -71 31q-22 6 -44 6q-27 0 -46 -15t-40 -57h-55q24 99 74.5 144.5t109.5 45.5q44 0 133 -35q84 -33 118 -33q32 0 56.5 19.5t28.5 48.5z" />
    <glyph glyph-name="Umacron" unicode="&#x16a;" horiz-adv-x="1515" 
d="M928 1195q-101 -178 -199 -453q-69 -195 -69 -326q0 -146 70.5 -227t176.5 -81q100 0 188 50q117 66 216.5 201t162.5 323.5t63 352.5q0 114 -49 216q-26 52 -29 62q-4 14 -4 30q0 30 18.5 49t45.5 19q47 0 74 -50q39 -68 39 -211q0 -306 -134 -609t-309.5 -433
t-368.5 -130q-157 0 -241 104.5t-84 257.5q0 126 39 258q51 173 211 517q-125 3 -224 -30.5t-142.5 -85.5t-43.5 -103q0 -21 23 -57q24 -41 24 -64q0 -29 -18 -48t-45 -19q-33 0 -57.5 30t-24.5 78q0 77 45 154.5t116.5 124.5t176.5 69q52 11 216 20q112 6 137 11zM921 1456
h463l-52 -86h-460z" />
    <glyph glyph-name="umacron" unicode="&#x16b;" horiz-adv-x="942" 
d="M850 814h142l-94 -349q-83 -304 -83 -346q0 -19 9 -29t20 -10q17 0 40 15q33 23 125 116l33 -37q-201 -209 -296 -209q-32 0 -54.5 24.5t-22.5 69.5q0 52 22 139q-89 -102 -220 -179q-87 -51 -151 -51q-35 0 -55 23t-20 73q0 39 9 84q13 63 66 253q67 241 67 289
q0 28 -20 28q-18 0 -49 -18.5t-106 -89.5l-44 35q134 120 204.5 157.5t113.5 37.5q24 0 39 -17.5t15 -54.5q0 -69 -72 -339q-64 -243 -64 -277q0 -21 13.5 -36t29.5 -15q56 0 159 92.5t135 210.5zM536 1094h463l-52 -86h-460z" />
    <glyph glyph-name="Ubreve" unicode="&#x16c;" horiz-adv-x="1515" 
d="M928 1195q-101 -178 -199 -453q-69 -195 -69 -326q0 -146 70.5 -227t176.5 -81q100 0 188 50q117 66 216.5 201t162.5 323.5t63 352.5q0 114 -49 216q-26 52 -29 62q-4 14 -4 30q0 30 18.5 49t45.5 19q47 0 74 -50q39 -68 39 -211q0 -306 -134 -609t-309.5 -433
t-368.5 -130q-157 0 -241 104.5t-84 257.5q0 126 39 258q51 173 211 517q-125 3 -224 -30.5t-142.5 -85.5t-43.5 -103q0 -21 23 -57q24 -41 24 -64q0 -29 -18 -48t-45 -19q-33 0 -57.5 30t-24.5 78q0 77 45 154.5t116.5 124.5t176.5 69q52 11 216 20q112 6 137 11zM963 1603
h53q11 -70 20 -85q15 -25 48 -41.5t75 -16.5q73 0 140 42q41 26 95 101h58q-70 -139 -149.5 -208.5t-169.5 -69.5q-75 0 -123 60.5t-48 185.5q0 10 1 32z" />
    <glyph glyph-name="ubreve" unicode="&#x16d;" horiz-adv-x="942" 
d="M850 814h142l-94 -349q-83 -304 -83 -346q0 -19 9 -29t20 -10q17 0 40 15q33 23 125 116l33 -37q-201 -209 -296 -209q-32 0 -54.5 24.5t-22.5 69.5q0 52 22 139q-89 -102 -220 -179q-87 -51 -151 -51q-35 0 -55 23t-20 73q0 39 9 84q13 63 66 253q67 241 67 289
q0 28 -20 28q-18 0 -49 -18.5t-106 -89.5l-44 35q134 120 204.5 157.5t113.5 37.5q24 0 39 -17.5t15 -54.5q0 -69 -72 -339q-64 -243 -64 -277q0 -21 13.5 -36t29.5 -15q56 0 159 92.5t135 210.5zM548 1241h53q11 -70 20 -85q15 -25 48 -41.5t75 -16.5q73 0 140 42
q41 26 95 101h58q-70 -139 -149.5 -208.5t-169.5 -69.5q-75 0 -123 60.5t-48 185.5q0 10 1 32z" />
    <glyph glyph-name="Uogonek" unicode="&#x172;" horiz-adv-x="1515" 
d="M928 1195q-101 -178 -199 -453q-69 -195 -69 -326q0 -146 70.5 -227t176.5 -81q100 0 188 50q117 66 216.5 201t162.5 323.5t63 352.5q0 114 -49 216q-26 52 -29 62q-4 14 -4 30q0 30 18.5 49t45.5 19q47 0 74 -50q39 -68 39 -211q0 -306 -134 -609t-309.5 -433
t-368.5 -130q-157 0 -241 104.5t-84 257.5q0 126 39 258q51 173 211 517q-125 3 -224 -30.5t-142.5 -85.5t-43.5 -103q0 -21 23 -57q24 -41 24 -64q0 -29 -18 -48t-45 -19q-33 0 -57.5 30t-24.5 78q0 77 45 154.5t116.5 124.5t176.5 69q52 11 216 20q112 6 137 11zM821 16
h69q-65 -102 -65 -192q0 -56 36 -91.5t95 -35.5q23 0 59 4l-27 -60q-71 -17 -122 -17q-67 0 -107.5 38t-40.5 93q0 107 103 261z" />
    <glyph glyph-name="uogonek" unicode="&#x173;" horiz-adv-x="942" 
d="M850 814h142l-94 -349q-83 -304 -83 -346q0 -19 9 -29t20 -10q17 0 40 15q33 23 125 116l33 -37q-201 -209 -296 -209q-32 0 -54.5 24.5t-22.5 69.5q0 52 22 139q-89 -102 -220 -179q-87 -51 -151 -51q-35 0 -55 23t-20 73q0 39 9 84q13 63 66 253q67 241 67 289
q0 28 -20 28q-18 0 -49 -18.5t-106 -89.5l-44 35q134 120 204.5 157.5t113.5 37.5q24 0 39 -17.5t15 -54.5q0 -69 -72 -339q-64 -243 -64 -277q0 -21 13.5 -36t29.5 -15q56 0 159 92.5t135 210.5zM752 16h69q-65 -102 -65 -192q0 -56 36 -91.5t95 -35.5q23 0 59 4l-27 -60
q-71 -17 -122 -17q-67 0 -107.5 38t-40.5 93q0 107 103 261z" />
    <glyph glyph-name="Wcircumflex" unicode="&#x174;" horiz-adv-x="1802" 
d="M1228 -88l20 644q7 214 40 402q-58 -71 -146 -212q-263 -423 -567 -794q-22 133 -35.5 311t-13.5 312q0 189 35.5 301.5t134.5 246.5q-188 -21 -298.5 -119t-110.5 -201q0 -38 21 -77q25 -47 25 -63q0 -26 -16.5 -43t-40.5 -17q-32 0 -52 29q-27 38 -27 98q0 91 52.5 186
t139.5 156.5t198 89.5q61 15 205 31q49 6 97 13q-217 -304 -217 -614q0 -97 15 -387q59 71 107 137q33 46 172 255q224 340 335 479q78 96 176 179q-96 -377 -96 -1083l251 311q101 126 204.5 293.5t136.5 267.5q21 65 21 123q0 57 -26 120q-16 40 -16 58q0 27 19.5 45.5
t49.5 18.5q38 0 60 -34q32 -46 32 -122q0 -101 -69.5 -266t-308.5 -482q-308 -405 -507 -593zM1459 1616h151l73 -291h-57l-104 183l-268 -183h-64z" />
    <glyph glyph-name="wcircumflex" unicode="&#x175;" horiz-adv-x="1393" 
d="M587 813q46 32 70 32q19 0 31 -12.5t12 -30.5q0 -39 -59 -54l-77 -151q-29 -63 -43.5 -126t-14.5 -129q0 -83 40 -266q154 102 287 273q-1 43 -1 63q0 220 65 347q43 84 95 84q31 0 51.5 -26.5t20.5 -78.5q0 -42 -16 -97q-27 -90 -64 -165q0 -252 38 -400q120 82 233 206
q83 91 126 189.5t43 161.5q0 31 -22 80q-25 57 -25 83t19 44.5t46 18.5q33 0 52.5 -31.5t19.5 -112.5q0 -206 -179 -432t-437 -349q-32 109 -59 324q-136 -136 -169 -163q-66 -55 -127.5 -93.5t-131.5 -67.5q-7 57 -32 184q-35 179 -35 256q0 104 50.5 204.5t151.5 176.5
q-181 -5 -258 -42q-52 -25 -52 -60q0 -13 12 -42q11 -27 11 -40q0 -18 -13 -31t-33 -13q-26 0 -44 23t-18 65q0 80 72 130q104 73 364 68zM1063 1254h151l73 -291h-57l-104 183l-268 -183h-64z" />
    <glyph glyph-name="Ycircumflex" unicode="&#x176;" horiz-adv-x="1147" 
d="M1090 59l-21 -59q-62 -16 -106 -16q-47 0 -124 8q-73 8 -116 8q-61 0 -187 -14l17 51q94 24 118 52t80 239.5t56 278.5q0 134 -52 275t-130 228q-147 -54 -210.5 -101.5t-102 -116.5t-38.5 -121q0 -51 46 -95q39 -38 39 -67q0 -26 -15.5 -43t-38.5 -17q-41 0 -69 40
q-38 55 -38 132q0 111 62 209t173 164q65 39 214 83q55 16 99 33q84 -101 135 -237.5t70 -338.5q186 390 354.5 548.5t274.5 158.5q33 0 54 -19t21 -47q0 -29 -24.5 -47t-95.5 -23q-70 -5 -108 -28q-75 -46 -176.5 -170t-200.5 -310t-151 -387.5t-56 -262.5q47 -8 93 -8
q70 0 154 20zM1094 1616h151l73 -291h-57l-104 183l-268 -183h-64z" />
    <glyph glyph-name="ycircumflex" unicode="&#x177;" horiz-adv-x="819" 
d="M171 638l-32 47l74 50q108 74 152 95q25 12 46 12t40 -24q88 -111 148 -299.5t60 -365.5q0 -23 -2 -70q169 311 169 494q0 38 -17 101q-18 70 -18 100q0 29 18.5 48t46.5 19q35 0 56.5 -27t21.5 -77q0 -129 -59 -321.5t-185.5 -414t-231 -329t-202 -154t-184.5 -46.5
q-66 0 -99.5 24.5t-33.5 58.5q0 30 26 51.5t70 21.5q34 0 93 -13q63 -14 86 -14q61 0 129 51q93 70 147.5 167t54.5 196q0 139 -40.5 334t-114.5 298q-37 53 -79 53q-49 0 -140 -66zM693 1254h151l73 -291h-57l-104 183l-268 -183h-64z" />
    <glyph glyph-name="longs" unicode="&#x17f;" horiz-adv-x="559" 
d="M182 -95l217 871q55 221 121 347.5t196 207t246 80.5q61 0 92 -24t31 -57q0 -28 -20 -49t-56 -21q-31 0 -123 19q-61 12 -84 12q-131 0 -209 -318l-222 -906q-70 -282 -230 -436.5t-352 -154.5q-55 0 -91.5 21.5t-36.5 63.5q0 68 87 68q21 0 62 -5q70 -9 134 -9
q105 0 148.5 52t89.5 238z" />
    <glyph glyph-name="Aringacute" unicode="&#x1fa;" horiz-adv-x="1270" 
d="M1303 1859h190l-339 -290h-59zM1125 1188q-111 57 -111 164q0 72 51.5 123.5t123.5 51.5t123 -51.5t51 -123.5q0 -60 -37 -107.5t-97 -62.5q-19 -89 -61 -393l-43 -321l-44 -414q72 -19 133 -19q42 0 85 9l-10 -57q-34 -3 -63 -3q-39 0 -94 6q-94 10 -119 10
q-45 0 -129 -13q62 149 84 374l-74 1q-59 0 -289 -6q-215 -330 -342 -458.5t-256 -128.5q-111 0 -111 77q0 60 56 60q14 0 38 -5q60 -14 80 -14q92 0 218.5 149.5t320.5 446.5q286 439 455 630q46 51 61 75zM1293 1352q0 43 -30.5 74t-74.5 31q-43 0 -74 -31t-31 -74
q0 -44 31 -75t74 -31q44 0 74.5 31t30.5 75zM977 435q57 452 96 593q-139 -179 -414 -593q69 -3 237 -3q43 0 81 3z" />
    </font>
</defs>
</svg>
